<svg xmlns="http://www.w3.org/2000/svg" xmlns:xlink="http://www.w3.org/1999/xlink" viewBox="0 0 400.93 400.93"><defs><style>.cls-1,.cls-5,.cls-6{fill:none;}.cls-2{fill:#7c5e3a;}.cls-3{fill:#96774b;}.cls-4{fill:#9b3937;}.cls-5,.cls-6{stroke:#000;stroke-linecap:round;stroke-linejoin:round;}.cls-5{stroke-width:7px;}.cls-6{stroke-width:15px;}.cls-7{clip-path:url(#clip-path);}.cls-8{clip-path:url(#clip-path-2);}.cls-9{fill:#fff;}</style><clipPath id="clip-path"><path class="cls-1" d="M240.08,307.64l-32.35,9a29.93,29.93,0,0,1-16.07,0l-31.94-8.93a30,30,0,0,1-21.89-28.85v-71.6a30,30,0,0,1,29.95-29.95h64.29A30,30,0,0,1,262,207.22v71.55A30,30,0,0,1,240.08,307.64Z"/></clipPath><clipPath id="clip-path-2"><polygon class="cls-1" points="254.25 161.78 254.25 58.89 139.35 58.89 139.35 161.78 70.3 161.78 70.3 177.83 329.26 177.83 329.26 161.78 254.25 161.78"/></clipPath></defs><g id="Layer_2" data-name="Layer 2"><g id="Layer_1-2" data-name="Layer 1"><rect class="cls-1" width="400.93" height="400.93"/><circle class="cls-2" cx="262.63" cy="246.57" r="17.55"/><circle class="cls-2" cx="138.3" cy="246.57" r="17.55"/><path class="cls-3" d="M240.08,307.64l-32.35,9a29.93,29.93,0,0,1-16.07,0l-31.94-8.93a30,30,0,0,1-21.89-28.85v-71.6a30,30,0,0,1,29.95-29.95h64.29A30,30,0,0,1,262,207.22v71.55A30,30,0,0,1,240.08,307.64Z"/><path class="cls-4" d="M209.76,258.81h0a5.3,5.3,0,0,0-.67.23l-7,3a4.85,4.85,0,0,1-3.88,0l-7-3a5.3,5.3,0,0,0-.67-.23h0a4.85,4.85,0,0,1-3.11-6.78l8.32-17.41a4.86,4.86,0,0,1,8.76,0L212.87,252A4.85,4.85,0,0,1,209.76,258.81Z"/><circle cx="224.26" cy="234.97" r="7.14"/><circle cx="174.89" cy="234.97" r="7.14"/><path class="cls-5" d="M183.22,280.18c7.13,3.57,21.15,6.54,34.07,0"/><line class="cls-6" x1="201.06" y1="296.24" x2="201.06" y2="300.7"/><path class="cls-6" d="M185.82,208.5s-15.31-1.79-25.33-.6"/><path class="cls-6" d="M214,208.5s15.31-1.79,25.33-.6"/><g class="cls-7"><path d="M253.83,264.16c-1.72.83-3.38,1.52-4.91,2.09a10.53,10.53,0,0,0-6.84,10.36c.43,8.47-.39,21.52-8.3,28.55-4.58,4.07-20.93,8.41-29.08,5.79a10.89,10.89,0,0,0-6.42,0c-8,2.35-24.51-1.74-29-5.77-7.91-7-8.74-20.08-8.31-28.55a10.53,10.53,0,0,0-6.84-10.36c-1.52-.57-3.19-1.26-4.91-2.09a10.53,10.53,0,0,0-15.16,9,51.39,51.39,0,0,0,10.53,33.52c10.76,14.23,54.12,14.3,57,14.29s46.19-.06,57-14.29A51.37,51.37,0,0,0,269,273.13,10.53,10.53,0,0,0,253.83,264.16Z"/></g><path d="M186.79,179.65c-10.95.75-13.69,10.11-28.56,9.51-7.16-.28-10.71,9.52-11.3,31.53-.23,8.41,2.55,42.24-4,44.62s-13.26,3-12.67-64.25c.1-10.85-6.62-21.58,7.14-29.15,11.9-6.54,1.19-41.64,49.38-33.31,17.63,3.05,25-15.46,43.59-9.74,23.2,7.13,21.84,25.8,24.22,31.16,5.64,12.68,11.3,6.54,15,13.45,11.16,20.61-7,25.32-4.93,55.55,2.71,40.08-5.23,45.69-10.71,35.1s1.1-63.65-8.92-70.79C232.73,184.53,230.21,176.67,186.79,179.65Z"/><polygon points="254.25 161.78 254.25 58.89 139.35 58.89 139.35 161.78 70.3 161.78 70.3 177.83 329.26 177.83 329.26 161.78 254.25 161.78"/><g class="cls-8"><rect class="cls-9" x="120.52" y="139.76" width="152.57" height="21.58"/></g></g></g></svg>