<svg width="401" height="401" viewBox="0 0 401 401" fill="none" xmlns="http://www.w3.org/2000/svg">
<g clip-path="url(#clip0_3_298)">
<path d="M255.53 299.81C265.223 299.81 273.08 291.953 273.08 282.26C273.08 272.567 265.223 264.71 255.53 264.71C245.837 264.71 237.98 272.567 237.98 282.26C237.98 291.953 245.837 299.81 255.53 299.81Z" fill="#7C5E3A"/>
<path d="M141.32 299.81C151.013 299.81 158.87 291.953 158.87 282.26C158.87 272.567 151.013 264.71 141.32 264.71C131.627 264.71 123.77 272.567 123.77 282.26C123.77 291.953 131.627 299.81 141.32 299.81Z" fill="#7C5E3A"/>
<path d="M237.55 337.18L211.06 348.1C202.927 351.46 193.793 351.46 185.66 348.1L159.18 337.18C152.557 334.446 146.993 329.65 143.311 323.504C139.629 317.358 138.026 310.189 138.74 303.06L148.16 209.39H248.56L258 303.06C258.713 310.19 257.109 317.36 253.425 323.507C249.741 329.653 244.174 334.448 237.55 337.18Z" fill="#96774B"/>
<path d="M211.61 290.31L201.78 296.06C200.763 296.654 199.607 296.967 198.43 296.967C197.253 296.967 196.097 296.654 195.08 296.06L185.25 290.31C183.742 289.431 182.641 287.995 182.184 286.31C181.728 284.626 181.952 282.83 182.81 281.31L192.64 263.72C193.216 262.692 194.055 261.835 195.072 261.239C196.089 260.643 197.246 260.329 198.425 260.329C199.604 260.329 200.761 260.643 201.778 261.239C202.795 261.835 203.634 262.692 204.21 263.72L214 281.35C214.849 282.86 215.075 284.642 214.628 286.316C214.182 287.99 213.099 289.424 211.61 290.31Z" fill="#9B3937"/>
<path d="M186.4 305.16C192.3 308.73 199.95 311.7 210.62 305.16" stroke="black" stroke-width="10" stroke-linecap="round" stroke-linejoin="round"/>
<path d="M179.09 273.64C183.033 273.64 186.23 270.443 186.23 266.5C186.23 262.557 183.033 259.36 179.09 259.36C175.147 259.36 171.95 262.557 171.95 266.5C171.95 270.443 175.147 273.64 179.09 273.64Z" fill="black"/>
<path d="M184.75 249.54C177.444 249.128 170.192 251.001 164 254.9" stroke="black" stroke-width="15" stroke-linecap="round" stroke-linejoin="round"/>
<path d="M216.57 273.64C220.513 273.64 223.71 270.443 223.71 266.5C223.71 262.557 220.513 259.36 216.57 259.36C212.627 259.36 209.43 262.557 209.43 266.5C209.43 270.443 212.627 273.64 216.57 273.64Z" fill="black"/>
<path d="M210.92 249.54C218.219 249.133 225.463 251.006 231.65 254.9" stroke="black" stroke-width="15" stroke-linecap="round" stroke-linejoin="round"/>
<path d="M187.42 212.36C176.52 213.59 177.9 221.29 163.03 220.69C155.88 220.41 145.78 231.39 148.76 252.22C149.95 260.55 149.95 268.28 143.4 270.66C136.85 273.04 118.05 267.52 123.77 233.18C125.56 222.48 115.37 200.3 129.13 192.73C141.02 186.19 138.64 156.45 186.83 164.78C204.46 167.78 212.28 156.09 230.83 161.78C254.03 168.92 253.43 185.58 255.83 190.93C261.47 203.61 266.2 197.61 270.11 206.4C279.63 227.81 267.64 221.32 277.93 249.82C285.67 271.23 253.66 275.29 248.19 264.69C242.72 254.09 255.24 239.11 245.19 231.97C232.86 223.19 245.72 205.82 187.42 212.36Z" fill="black"/>
<path fill-rule="evenodd" clip-rule="evenodd" d="M200 260C202.477 281.393 220.655 298 242.712 298C264.769 298 282.948 281.393 285.425 260H279.377C276.936 278.07 261.451 292 242.712 292C223.974 292 208.488 278.07 206.047 260H200Z" fill="black"/>
<path fill-rule="evenodd" clip-rule="evenodd" d="M111 260C113.477 281.393 131.655 298 153.712 298C175.769 298 193.948 281.393 196.425 260H190.377C187.936 278.07 172.451 292 153.712 292C134.974 292 119.488 278.07 117.047 260H111Z" fill="black"/>
<rect x="191" y="260" width="15" height="7" fill="#0F0D0D"/>
<path fill-rule="evenodd" clip-rule="evenodd" d="M117.214 259C119.208 277.553 134.917 292 154 292C173.083 292 188.792 277.553 190.786 259H117.214Z" fill="#D9D9D9" fill-opacity="0.17"/>
<path fill-rule="evenodd" clip-rule="evenodd" d="M206 260C207.994 278.553 223.703 293 242.786 293C261.869 293 277.578 278.553 279.573 260H206Z" fill="#D9D9D9" fill-opacity="0.17"/>
</g>
<defs>
<clipPath id="clip0_3_298">
<rect width="400.93" height="400.93" fill="white"/>
</clipPath>
</defs>
</svg>
