<svg width="401" height="401" viewBox="0 0 401 401" fill="none" xmlns="http://www.w3.org/2000/svg">
<g clip-path="url(#clip0_1_53)">
<path d="M255.53 299.81C265.223 299.81 273.08 291.953 273.08 282.26C273.08 272.567 265.223 264.71 255.53 264.71C245.837 264.71 237.98 272.567 237.98 282.26C237.98 291.953 245.837 299.81 255.53 299.81Z" fill="#7C5E3A"/>
<path d="M141.32 299.81C151.013 299.81 158.87 291.953 158.87 282.26C158.87 272.567 151.013 264.71 141.32 264.71C131.627 264.71 123.77 272.567 123.77 282.26C123.77 291.953 131.627 299.81 141.32 299.81Z" fill="#7C5E3A"/>
<path d="M237.55 337.18L211.06 348.1C202.927 351.46 193.793 351.46 185.66 348.1L159.18 337.18C152.558 334.446 146.993 329.65 143.311 323.504C139.629 317.358 138.026 310.189 138.74 303.06L148.16 209.39H248.56L258 303.06C258.713 310.19 257.109 317.36 253.425 323.507C249.742 329.653 244.174 334.448 237.55 337.18Z" fill="#96774B"/>
<path d="M211.61 290.31L201.78 296.06C200.764 296.654 199.607 296.967 198.43 296.967C197.253 296.967 196.097 296.654 195.08 296.06L185.25 290.31C183.742 289.431 182.641 287.995 182.184 286.31C181.728 284.626 181.953 282.83 182.81 281.31L192.64 263.72C193.216 262.692 194.055 261.835 195.072 261.239C196.089 260.643 197.246 260.329 198.425 260.329C199.604 260.329 200.761 260.643 201.778 261.239C202.795 261.835 203.634 262.692 204.21 263.72L214 281.35C214.849 282.86 215.075 284.642 214.628 286.316C214.182 287.99 213.099 289.424 211.61 290.31Z" fill="#9B3937"/>
<path d="M186.4 305.16C192.3 308.73 199.95 311.7 210.62 305.16" stroke="black" stroke-width="10" stroke-linecap="round" stroke-linejoin="round"/>
<path d="M179.09 273.64C183.033 273.64 186.23 270.443 186.23 266.5C186.23 262.557 183.033 259.36 179.09 259.36C175.147 259.36 171.95 262.557 171.95 266.5C171.95 270.443 175.147 273.64 179.09 273.64Z" fill="black"/>
<path d="M184.75 249.54C177.444 249.128 170.192 251.001 164 254.9" stroke="black" stroke-width="15" stroke-linecap="round" stroke-linejoin="round"/>
<path d="M216.57 273.64C220.513 273.64 223.71 270.443 223.71 266.5C223.71 262.557 220.513 259.36 216.57 259.36C212.627 259.36 209.43 262.557 209.43 266.5C209.43 270.443 212.627 273.64 216.57 273.64Z" fill="black"/>
<path d="M210.92 249.54C218.219 249.133 225.463 251.006 231.65 254.9" stroke="black" stroke-width="15" stroke-linecap="round" stroke-linejoin="round"/>
<path d="M305.61 221.06H274.93C271.774 221.06 268.747 219.806 266.515 217.575C264.284 215.343 263.03 212.316 263.03 209.16V207.89C263.025 195.452 258.08 183.526 249.283 174.733C240.487 165.94 228.558 161 216.12 161H174.91C162.469 161 150.537 165.942 141.74 174.74C132.942 183.537 128 195.469 128 207.91V220.91C127.999 223.282 128.465 225.631 129.372 227.823C130.279 230.015 131.609 232.006 133.287 233.683C134.964 235.361 136.955 236.691 139.147 237.598C141.339 238.505 143.688 238.971 146.06 238.97H305.84C307.048 238.97 308.243 238.725 309.353 238.249C310.463 237.774 311.465 237.078 312.298 236.204C313.131 235.329 313.778 234.295 314.199 233.163C314.621 232.032 314.808 230.826 314.75 229.62C314.617 227.293 313.593 225.106 311.892 223.512C310.19 221.919 307.941 221.041 305.61 221.06ZM160.42 221.06H139.6C138.258 221.06 136.971 220.527 136.022 219.578C135.073 218.629 134.54 217.342 134.54 216C134.54 214.658 135.073 213.371 136.022 212.422C136.971 211.473 138.258 210.94 139.6 210.94H160.42C161.762 210.94 163.049 211.473 163.998 212.422C164.947 213.371 165.48 214.658 165.48 216C165.48 217.342 164.947 218.629 163.998 219.578C163.049 220.527 161.762 221.06 160.42 221.06Z" fill="black"/>
</g>
<defs>
<clipPath id="clip0_1_53">
<rect width="400.93" height="400.93" fill="white"/>
</clipPath>
</defs>
</svg>
