<svg width="401" height="401" viewBox="0 0 401 401" fill="none" xmlns="http://www.w3.org/2000/svg">
<mask id="mask0_13_695" style="mask-type:luminance" maskUnits="userSpaceOnUse" x="0" y="0" width="401" height="401">
<path d="M400.93 0H0V400.93H400.93V0Z" fill="white"/>
</mask>
<g mask="url(#mask0_13_695)">
<path d="M248.11 271.2C257.803 271.2 265.66 263.343 265.66 253.65C265.66 243.957 257.803 236.1 248.11 236.1C238.417 236.1 230.56 243.957 230.56 253.65C230.56 263.343 238.417 271.2 248.11 271.2Z" fill="#D8BC93"/>
<path d="M147.58 271.2C157.273 271.2 165.13 263.343 165.13 253.65C165.13 243.957 157.273 236.1 147.58 236.1C137.887 236.1 130.03 243.957 130.03 253.65C130.03 263.343 137.887 271.2 147.58 271.2Z" fill="#D8BC93"/>
<path d="M242.61 304.94L212.43 336C210.566 337.922 208.334 339.45 205.869 340.493C203.403 341.536 200.752 342.074 198.075 342.074C195.398 342.074 192.747 341.536 190.281 340.493C187.816 339.45 185.584 337.922 183.72 336L153.54 304.94C149.911 301.207 147.88 296.206 147.88 291V194.85C147.88 189.546 149.987 184.459 153.738 180.708C157.489 176.957 162.576 174.85 167.88 174.85H228.25C233.554 174.85 238.641 176.957 242.392 180.708C246.143 184.459 248.25 189.546 248.25 194.85V291C248.255 296.203 246.232 301.204 242.61 304.94Z" fill="#F2D5A5"/>
<path d="M208.35 266L201.86 271.57C200.823 272.455 199.504 272.942 198.14 272.942C196.776 272.942 195.457 272.455 194.42 271.57L187.93 266C187.139 265.323 186.548 264.442 186.222 263.453C185.895 262.464 185.846 261.405 186.08 260.39L192.57 231.92C192.855 230.656 193.562 229.526 194.574 228.717C195.587 227.908 196.844 227.467 198.14 227.467C199.436 227.467 200.693 227.908 201.706 228.717C202.718 229.526 203.425 230.656 203.71 231.92L210.21 260.39C210.442 261.406 210.392 262.466 210.064 263.455C209.736 264.444 209.143 265.324 208.35 266Z" fill="#ED8C85"/>
<path d="M222.23 239.08C226.173 239.08 229.37 235.883 229.37 231.94C229.37 227.997 226.173 224.8 222.23 224.8C218.287 224.8 215.09 227.997 215.09 231.94C215.09 235.883 218.287 239.08 222.23 239.08Z" fill="black"/>
<path d="M172.86 239.08C176.803 239.08 180 235.883 180 231.94C180 227.997 176.803 224.8 172.86 224.8C168.917 224.8 165.72 227.997 165.72 231.94C165.72 235.883 168.917 239.08 172.86 239.08Z" fill="black"/>
<path d="M181.19 287.26C188.33 290.83 202.34 293.81 215.26 287.26" stroke="black" stroke-width="10" stroke-linecap="round" stroke-linejoin="round"/>
<path d="M199.03 301.54V310.3" stroke="black" stroke-width="10" stroke-linecap="round" stroke-linejoin="round"/>
<path d="M206.47 212C206.47 212 238.47 205.46 236.47 217.36" stroke="black" stroke-width="10" stroke-linecap="round" stroke-linejoin="round"/>
<path d="M189.56 212C189.56 212 157.56 205.46 159.56 217.36" stroke="black" stroke-width="10" stroke-linecap="round" stroke-linejoin="round"/>
<path d="M199 179.59C209.76 181.75 214.47 192.09 229.34 191.49C236.5 191.21 245.5 199.82 242.43 220.64C239.36 241.46 251.95 246.22 258.49 248.64C265.03 251.06 311.64 257.27 312.55 213.24C313.22 180.82 304.89 172.88 292.99 167.33C281.09 161.78 288.83 146.92 277.52 137.99C266.21 129.06 235.88 128.48 218.63 133.24C201.38 138 196.06 145.9 180 135C163.94 124.1 147.88 135.6 147.88 149.28C147.88 158.53 131.77 152.28 126.46 159.39C117.54 171.29 133.38 179.51 125.27 189.73C111.59 206.98 133.18 203.47 122.89 231.96C115.16 253.38 147.16 257.43 152.63 246.83C158.1 236.23 142.93 202.95 154.42 197.46C168.1 190.92 155.61 182.06 166.91 179.02C178.21 175.98 187.14 177.22 199 179.59Z" fill="black"/>
<path d="M207.967 132.514L187.902 57.6297L104.268 80.0393L124.333 154.924L74.0653 168.393L77.1976 180.083L265.698 129.575L262.566 117.885L207.967 132.514Z" fill="black"/>
</g>
<path fill-rule="evenodd" clip-rule="evenodd" d="M167 278.655C167 304.422 181.775 325.31 200 325.31C218.225 325.31 233 304.422 233 278.655L167 278.655Z" fill="#160101"/>
<mask id="mask1_13_695" style="mask-type:alpha" maskUnits="userSpaceOnUse" x="167" y="232" width="66" height="94">
<ellipse cx="200" cy="278.655" rx="33" ry="46.6552" fill="#EE6A6A"/>
</mask>
<g mask="url(#mask1_13_695)">
<ellipse cx="200" cy="333.845" rx="33" ry="46.6552" fill="#D86D6D"/>
</g>
</svg>
