<svg width="401" height="401" viewBox="0 0 401 401" fill="none" xmlns="http://www.w3.org/2000/svg">
<mask id="mask0_13_710" style="mask-type:luminance" maskUnits="userSpaceOnUse" x="0" y="0" width="401" height="401">
<path d="M400.93 0H0V400.93H400.93V0Z" fill="white"/>
</mask>
<g mask="url(#mask0_13_710)">
<path d="M238.52 321.23L218.52 332.14C212.347 335.502 205.429 337.263 198.4 337.263C191.371 337.263 184.453 335.502 178.28 332.14L158.28 321.23C151.638 317.614 146.095 312.275 142.232 305.775C138.369 299.274 136.33 291.852 136.33 284.29V227.07C136.33 215.921 140.755 205.228 148.634 197.34C156.513 189.451 167.201 185.013 178.35 185H218.4C229.557 185.003 240.256 189.436 248.145 197.325C256.034 205.214 260.467 215.913 260.47 227.07V284.29C260.47 291.852 258.431 299.274 254.568 305.775C250.705 312.275 245.161 317.614 238.52 321.23Z" fill="#F2D5A5"/>
<path d="M206.51 277.59L200.93 282.19C200.395 282.626 199.725 282.864 199.035 282.864C198.345 282.864 197.675 282.626 197.14 282.19L191.56 277.59C191.06 277.176 190.708 276.611 190.557 275.98C190.405 275.349 190.463 274.686 190.72 274.09L196.3 261.4C196.539 260.876 196.923 260.432 197.407 260.121C197.891 259.809 198.454 259.644 199.03 259.644C199.606 259.644 200.169 259.809 200.653 260.121C201.137 260.432 201.521 260.876 201.76 261.4L207.34 274.09C207.599 274.685 207.657 275.347 207.508 275.978C207.358 276.609 207.008 277.175 206.51 277.59Z" fill="#ED8C85"/>
<path d="M222.6 264.04C225.842 264.04 228.47 261.412 228.47 258.17C228.47 254.928 225.842 252.3 222.6 252.3C219.358 252.3 216.73 254.928 216.73 258.17C216.73 261.412 219.358 264.04 222.6 264.04Z" fill="black"/>
<path d="M181.49 294.45C188.62 298.02 202.64 301 215.56 294.45" stroke="black" stroke-width="5" stroke-linecap="round" stroke-linejoin="round"/>
<path d="M207 238.24C207 238.24 228.58 232.79 238.23 240.02" stroke="black" stroke-width="5" stroke-linecap="round" stroke-linejoin="round"/>
<path d="M189.14 238.24C189.14 238.24 167.56 232.79 157.91 240.02" stroke="black" stroke-width="5" stroke-linecap="round" stroke-linejoin="round"/>
<path d="M199.93 187.38C229.64 186.03 217.81 218.06 229.07 217.12C236.21 216.53 248.7 217.72 247.51 231.4C245.69 252.4 250.27 266.26 253.51 272.4C283.26 330.11 244.23 327.53 252.32 337.24C270.17 358.66 324.32 312.85 268.38 217.68C261.74 206.36 272.55 175.44 247.56 162.36C234.81 155.67 218.87 175.24 205.33 163.55C166.07 129.64 128.59 165.33 126.21 175.44C124.21 184.05 112.05 232.96 107.21 239.69C86.9799 267.69 86.2899 278.96 89.3599 302.69C91.7399 321.13 132.9 356.15 141.12 345.52C151.23 332.43 127.19 328.23 131.6 302.69C134.6 285.44 142.6 279.03 142.3 268.19C142 256.27 134.49 232.84 145.87 227.19C157.77 221.19 160.6 229.74 171.45 225.4C189.22 218.31 173.75 188.57 199.93 187.38Z" fill="url(#paint0_linear_13_710)"/>
<path d="M222.6 249.76V253.93" stroke="black" stroke-width="3" stroke-miterlimit="10" stroke-linecap="round"/>
<path d="M227.14 250.83L224.42 254" stroke="black" stroke-width="3" stroke-miterlimit="10" stroke-linecap="round"/>
<path d="M228.56 253.87L224.39 254.07" stroke="black" stroke-width="3" stroke-miterlimit="10" stroke-linecap="round"/>
<path d="M173.83 264.04C177.072 264.04 179.7 261.412 179.7 258.17C179.7 254.928 177.072 252.3 173.83 252.3C170.588 252.3 167.96 254.928 167.96 258.17C167.96 261.412 170.588 264.04 173.83 264.04Z" fill="black"/>
<path d="M173.83 249.76V253.93" stroke="black" stroke-width="3" stroke-miterlimit="10" stroke-linecap="round"/>
<path d="M169.3 250.83L172.01 254" stroke="black" stroke-width="3" stroke-miterlimit="10" stroke-linecap="round"/>
<path d="M167.87 253.87L172.04 254.07" stroke="black" stroke-width="3" stroke-miterlimit="10" stroke-linecap="round"/>
<path d="M292.494 195.66H261.814C260.252 195.661 258.705 195.355 257.261 194.758C255.817 194.161 254.505 193.285 253.4 192.181C252.295 191.077 250.82 188.322 250.82 188.322C250.82 188.322 249.914 185.332 249.914 183.77V182.5C249.914 176.34 248.701 170.24 246.343 164.548C243.986 158.857 240.531 153.686 236.175 149.33C231.819 144.974 226.647 141.518 220.956 139.161C215.264 136.803 209.164 135.59 203.004 135.59H161.794C149.353 135.59 137.421 140.532 128.624 149.33C119.826 158.127 114.884 170.059 114.884 182.5V195.5C114.903 200.279 116.813 204.855 120.198 208.229C123.582 211.602 128.166 213.497 132.944 213.5C195.35 213.5 230.338 213.5 292.744 213.5C293.952 213.5 295.148 213.255 296.258 212.779C297.369 212.304 298.371 211.608 299.205 210.734C300.039 209.86 300.687 208.826 301.11 207.694C301.532 206.562 301.721 205.357 301.664 204.15C301.509 201.832 300.472 199.661 298.767 198.082C297.062 196.503 294.818 195.637 292.494 195.66ZM147.304 195.66H126.484C125.801 195.69 125.12 195.582 124.48 195.342C123.84 195.101 123.256 194.734 122.762 194.262C122.268 193.789 121.875 193.222 121.606 192.593C121.338 191.965 121.199 191.288 121.199 190.605C121.199 189.922 121.338 189.245 121.606 188.617C121.875 187.988 122.268 187.421 122.762 186.948C123.256 186.476 123.84 186.109 124.48 185.868C125.12 185.628 125.801 185.52 126.484 185.55H147.304C147.987 185.52 148.669 185.628 149.308 185.868C149.948 186.109 150.533 186.476 151.027 186.948C151.52 187.421 151.914 187.988 152.182 188.617C152.451 189.245 152.589 189.922 152.589 190.605C152.589 191.288 152.451 191.965 152.182 192.593C151.914 193.222 151.52 193.789 151.027 194.262C150.533 194.734 149.948 195.101 149.308 195.342C148.669 195.582 147.987 195.69 147.304 195.66Z" fill="#96774B"/>
</g>
<path fill-rule="evenodd" clip-rule="evenodd" d="M167 281.655C167 307.422 181.775 328.31 200 328.31C218.225 328.31 233 307.422 233 281.655L167 281.655Z" fill="#160101"/>
<mask id="mask1_13_710" style="mask-type:alpha" maskUnits="userSpaceOnUse" x="167" y="235" width="66" height="94">
<ellipse cx="200" cy="281.655" rx="33" ry="46.6552" fill="#EE6A6A"/>
</mask>
<g mask="url(#mask1_13_710)">
<ellipse cx="200" cy="336.845" rx="33" ry="46.6552" fill="#D86D6D"/>
</g>
<defs>
<linearGradient id="paint0_linear_13_710" x1="190.47" y1="347.58" x2="190.47" y2="149.28" gradientUnits="userSpaceOnUse">
<stop stop-color="#93278F"/>
<stop offset="0.35"/>
</linearGradient>
</defs>
</svg>
