<svg width="401" height="401" viewBox="0 0 401 401" fill="none" xmlns="http://www.w3.org/2000/svg">
<mask id="mask0_13_709" style="mask-type:luminance" maskUnits="userSpaceOnUse" x="0" y="0" width="401" height="401">
<path d="M400.93 0H0V400.93H400.93V0Z" fill="white"/>
</mask>
<g mask="url(#mask0_13_709)">
<path d="M238.52 321.23L218.52 332.14C212.347 335.502 205.429 337.263 198.4 337.263C191.371 337.263 184.453 335.502 178.28 332.14L158.28 321.23C151.639 317.614 146.095 312.275 142.232 305.775C138.369 299.274 136.33 291.852 136.33 284.29V227.07C136.33 215.921 140.756 205.228 148.634 197.34C156.513 189.451 167.201 185.013 178.35 185H218.4C229.557 185.003 240.256 189.436 248.145 197.325C256.034 205.214 260.467 215.913 260.47 227.07V284.29C260.47 291.852 258.431 299.274 254.568 305.775C250.705 312.275 245.162 317.614 238.52 321.23Z" fill="#F2D5A5"/>
<path d="M206.51 277.59L200.93 282.19C200.395 282.626 199.725 282.864 199.035 282.864C198.345 282.864 197.675 282.626 197.14 282.19L191.56 277.59C191.06 277.176 190.708 276.611 190.557 275.98C190.405 275.349 190.463 274.686 190.72 274.09L196.3 261.4C196.539 260.876 196.923 260.432 197.407 260.121C197.891 259.809 198.454 259.644 199.03 259.644C199.606 259.644 200.169 259.809 200.653 260.121C201.137 260.432 201.521 260.876 201.76 261.4L207.34 274.09C207.599 274.685 207.657 275.347 207.508 275.978C207.358 276.609 207.008 277.175 206.51 277.59Z" fill="#ED8C85"/>
<path d="M222.6 264.04C225.842 264.04 228.47 261.412 228.47 258.17C228.47 254.928 225.842 252.3 222.6 252.3C219.358 252.3 216.73 254.928 216.73 258.17C216.73 261.412 219.358 264.04 222.6 264.04Z" fill="black"/>
<path d="M181.49 294.45C188.62 298.02 202.64 301 215.56 294.45" stroke="black" stroke-width="5" stroke-linecap="round" stroke-linejoin="round"/>
<path d="M207 238.24C207 238.24 228.58 232.79 238.23 240.02" stroke="black" stroke-width="5" stroke-linecap="round" stroke-linejoin="round"/>
<path d="M189.14 238.24C189.14 238.24 167.56 232.79 157.91 240.02" stroke="black" stroke-width="5" stroke-linecap="round" stroke-linejoin="round"/>
<path d="M199.93 187.38C229.64 186.03 217.81 218.06 229.07 217.12C236.21 216.53 248.7 217.72 247.51 231.4C245.69 252.4 250.27 266.26 253.51 272.4C283.26 330.11 244.23 327.53 252.32 337.24C270.17 358.66 324.32 312.85 268.38 217.68C261.74 206.36 272.55 175.44 247.56 162.36C234.81 155.67 218.87 175.24 205.33 163.55C166.07 129.64 128.59 165.33 126.21 175.44C124.21 184.05 112.05 232.96 107.21 239.69C86.98 267.69 86.29 278.96 89.36 302.69C91.74 321.13 132.9 356.15 141.12 345.52C151.23 332.43 127.19 328.23 131.6 302.69C134.6 285.44 142.6 279.03 142.3 268.19C142 256.27 134.49 232.84 145.87 227.19C157.77 221.19 160.6 229.74 171.45 225.4C189.22 218.31 173.75 188.57 199.93 187.38Z" fill="url(#paint0_linear_13_709)"/>
<path d="M222.6 249.76V253.93" stroke="black" stroke-width="3" stroke-miterlimit="10" stroke-linecap="round"/>
<path d="M227.14 250.83L224.42 254" stroke="black" stroke-width="3" stroke-miterlimit="10" stroke-linecap="round"/>
<path d="M228.56 253.87L224.39 254.07" stroke="black" stroke-width="3" stroke-miterlimit="10" stroke-linecap="round"/>
<path d="M173.83 264.04C177.072 264.04 179.7 261.412 179.7 258.17C179.7 254.928 177.072 252.3 173.83 252.3C170.588 252.3 167.96 254.928 167.96 258.17C167.96 261.412 170.588 264.04 173.83 264.04Z" fill="black"/>
<path d="M173.83 249.76V253.93" stroke="black" stroke-width="3" stroke-miterlimit="10" stroke-linecap="round"/>
<path d="M169.3 250.83L172.01 254" stroke="black" stroke-width="3" stroke-miterlimit="10" stroke-linecap="round"/>
<path d="M167.87 253.87L172.04 254.07" stroke="black" stroke-width="3" stroke-miterlimit="10" stroke-linecap="round"/>
<path d="M201.986 162.266L192.622 127.319L116.37 147.751L125.734 182.698L79.9032 194.978L81.365 200.434L253.227 154.383L251.765 148.928L201.986 162.266Z" fill="black"/>
</g>
<path fill-rule="evenodd" clip-rule="evenodd" d="M167 286.655C167 312.422 181.775 333.31 200 333.31C218.225 333.31 233 312.422 233 286.655L167 286.655Z" fill="#160101"/>
<mask id="mask1_13_709" style="mask-type:alpha" maskUnits="userSpaceOnUse" x="167" y="240" width="66" height="94">
<ellipse cx="200" cy="286.655" rx="33" ry="46.6552" fill="#EE6A6A"/>
</mask>
<g mask="url(#mask1_13_709)">
<ellipse cx="200" cy="341.845" rx="33" ry="46.6552" fill="#D86D6D"/>
</g>
<defs>
<linearGradient id="paint0_linear_13_709" x1="190.47" y1="347.58" x2="190.47" y2="149.28" gradientUnits="userSpaceOnUse">
<stop stop-color="#93278F"/>
<stop offset="0.35"/>
</linearGradient>
</defs>
</svg>
