<svg width="401" height="401" viewBox="0 0 401 401" fill="none" xmlns="http://www.w3.org/2000/svg">
<path d="M262.63 264.12C272.323 264.12 280.18 256.263 280.18 246.57C280.18 236.877 272.323 229.02 262.63 229.02C252.937 229.02 245.08 236.877 245.08 246.57C245.08 256.263 252.937 264.12 262.63 264.12Z" fill="#7C5E3A"/>
<path d="M138.3 264.12C147.993 264.12 155.85 256.263 155.85 246.57C155.85 236.877 147.993 229.02 138.3 229.02C128.607 229.02 120.75 236.877 120.75 246.57C120.75 256.263 128.607 264.12 138.3 264.12Z" fill="#7C5E3A"/>
<path d="M240.08 307.64L207.73 316.64C202.474 318.105 196.917 318.105 191.66 316.64L159.72 307.71C153.426 305.943 147.882 302.168 143.931 296.961C139.979 291.753 137.837 285.397 137.83 278.86V207.26C137.843 199.321 141.003 191.711 146.617 186.097C152.231 180.483 159.841 177.323 167.78 177.31H232.07C239.999 177.328 247.598 180.485 253.206 186.09C258.815 191.694 261.976 199.291 262 207.22V278.77C261.995 285.314 259.851 291.678 255.893 296.89C251.936 302.102 246.383 305.877 240.08 307.64Z" fill="#96774B"/>
<path d="M209.76 258.81C209.532 258.872 209.308 258.948 209.09 259.04L202.09 262.04C201.478 262.307 200.818 262.445 200.15 262.445C199.482 262.445 198.822 262.307 198.21 262.04L191.21 259.04C190.992 258.948 190.768 258.872 190.54 258.81C189.853 258.625 189.214 258.29 188.671 257.83C188.127 257.37 187.692 256.797 187.395 256.149C187.098 255.502 186.947 254.798 186.953 254.086C186.959 253.374 187.122 252.672 187.43 252.03L195.75 234.62C196.147 233.795 196.768 233.099 197.543 232.612C198.318 232.124 199.215 231.866 200.13 231.866C201.045 231.866 201.942 232.124 202.717 232.612C203.492 233.099 204.113 233.795 204.51 234.62L212.87 252C213.183 252.643 213.351 253.348 213.359 254.064C213.368 254.779 213.219 255.488 212.922 256.139C212.624 256.79 212.187 257.367 211.64 257.828C211.093 258.29 210.451 258.626 209.76 258.81Z" fill="#9B3937"/>
<path d="M205.52 271C205.52 279.92 218.61 265.64 231.7 274.57" stroke="black" stroke-width="10" stroke-linecap="round" stroke-linejoin="round"/>
<path d="M196.6 271C196.6 279.92 183.51 265.64 170.43 274.57" stroke="black" stroke-width="10" stroke-linecap="round" stroke-linejoin="round"/>
<path d="M224.26 242.11C228.203 242.11 231.4 238.913 231.4 234.97C231.4 231.027 228.203 227.83 224.26 227.83C220.317 227.83 217.12 231.027 217.12 234.97C217.12 238.913 220.317 242.11 224.26 242.11Z" fill="black"/>
<path d="M174.89 242.11C178.833 242.11 182.03 238.913 182.03 234.97C182.03 231.027 178.833 227.83 174.89 227.83C170.947 227.83 167.75 231.027 167.75 234.97C167.75 238.913 170.947 242.11 174.89 242.11Z" fill="black"/>
<path d="M183.22 280.18C190.35 283.75 204.37 286.72 217.29 280.18" stroke="black" stroke-width="7" stroke-linecap="round" stroke-linejoin="round"/>
<path d="M201.06 296.24V300.7" stroke="black" stroke-width="15" stroke-linecap="round" stroke-linejoin="round"/>
<path d="M185.82 208.5C185.82 208.5 170.51 206.71 160.49 207.9" stroke="black" stroke-width="15" stroke-linecap="round" stroke-linejoin="round"/>
<path d="M214 208.5C214 208.5 229.31 206.71 239.33 207.9" stroke="black" stroke-width="15" stroke-linecap="round" stroke-linejoin="round"/>
<mask id="mask0_13_703" style="mask-type:luminance" maskUnits="userSpaceOnUse" x="137" y="177" width="125" height="141">
<path d="M240.08 307.64L207.73 316.64C202.474 318.105 196.917 318.105 191.66 316.64L159.72 307.71C153.426 305.943 147.882 302.168 143.931 296.961C139.979 291.753 137.837 285.397 137.83 278.86V207.26C137.843 199.321 141.003 191.711 146.617 186.097C152.231 180.483 159.841 177.323 167.78 177.31H232.07C239.999 177.328 247.598 180.485 253.206 186.09C258.815 191.694 261.976 199.291 262 207.22V278.77C261.995 285.314 259.851 291.678 255.893 296.89C251.936 302.102 246.383 305.877 240.08 307.64Z" fill="white"/>
</mask>
<g mask="url(#mask0_13_703)">
<path d="M253.83 264.16C252.11 264.99 250.45 265.68 248.92 266.25C246.829 267.029 245.04 268.453 243.811 270.315C242.582 272.177 241.975 274.381 242.08 276.61C242.51 285.08 241.69 298.13 233.78 305.16C229.2 309.23 212.85 313.57 204.7 310.95C202.609 310.305 200.371 310.305 198.28 310.95C190.28 313.3 173.77 309.21 169.28 305.18C161.37 298.18 160.54 285.1 160.97 276.63C161.075 274.401 160.468 272.197 159.239 270.335C158.01 268.473 156.221 267.049 154.13 266.27C152.61 265.7 150.94 265.01 149.22 264.18C147.649 263.409 145.911 263.042 144.162 263.111C142.413 263.181 140.71 263.685 139.205 264.578C137.7 265.472 136.442 266.726 135.543 268.228C134.645 269.73 134.135 271.432 134.06 273.18C133.523 285.243 137.251 297.111 144.59 306.7C155.35 320.93 198.71 321 201.59 320.99C204.47 320.98 247.78 320.93 258.59 306.7C265.899 297.082 269.585 285.196 269 273.13C268.921 271.383 268.408 269.683 267.507 268.184C266.606 266.685 265.346 265.433 263.84 264.543C262.335 263.653 260.631 263.152 258.884 263.085C257.136 263.018 255.399 263.388 253.83 264.16Z" fill="black"/>
</g>
<path d="M186.79 179.65C175.84 180.4 173.1 189.76 158.23 189.16C151.07 188.88 147.52 198.68 146.93 220.69C146.7 229.1 149.48 262.93 142.93 265.31C136.38 267.69 129.67 268.31 130.26 201.06C130.36 190.21 123.64 179.48 137.4 171.91C149.3 165.37 138.59 130.27 186.78 138.6C204.41 141.65 211.78 123.14 230.37 128.86C253.57 135.99 252.21 154.66 254.59 160.02C260.23 172.7 265.89 166.56 269.59 173.47C280.75 194.08 262.59 198.79 264.66 229.02C267.37 269.1 259.43 274.71 253.95 264.12C248.47 253.53 255.05 200.47 245.03 193.33C232.73 184.53 230.21 176.67 186.79 179.65Z" fill="black"/>
<path fill-rule="evenodd" clip-rule="evenodd" d="M178 279.5C178 296.897 188.074 311 200.5 311C212.926 311 223 296.897 223 279.5L178 279.5Z" fill="#160101"/>
<mask id="mask1_13_703" style="mask-type:alpha" maskUnits="userSpaceOnUse" x="178" y="248" width="45" height="63">
<ellipse cx="200.5" cy="279.5" rx="22.5" ry="31.5" fill="#EE6A6A"/>
</mask>
<g mask="url(#mask1_13_703)">
<ellipse cx="200.5" cy="316.762" rx="22.5" ry="31.5" fill="#D86D6D"/>
</g>
</svg>
