<svg xmlns="http://www.w3.org/2000/svg" viewBox="0 0 400.93 400.93"><defs><style>.cls-1{fill:none;}.cls-2{fill:#ff9cb1;}.cls-2,.cls-3{stroke:#000;stroke-miterlimit:10;stroke-width:3px;}.cls-3{fill:#fff;}</style></defs><g id="Layer_2" data-name="Layer 2"><g id="Layer_1-2" data-name="Layer 1"><rect class="cls-1" width="400.93" height="400.93"/><path class="cls-2" d="M325.18,191.27c-6.57-.66-12,2.53-17.49,5.6L294,201.58c-2.62.52-5.25,1-7.82,1.64-1.42.37-2.88.77-4.37,1.22-.5-8.35-12.63-5.71-21.14-3.1a58.13,58.13,0,0,0-8.61-8.28,60.39,60.39,0,0,1,7.53-13.58c7.21-10.21,12.82-21.25,7-33.55-1.71-3.57-7.06-4.71-10.27-2.69-10.18,6.41-16.51,15.58-20.76,25.91-.22-.45-.44-.91-.65-1.39-1.73-4-4.09-6.89-8.09-8.74a29.57,29.57,0,0,0-11.83-2.4,159.18,159.18,0,0,1-1-24.15c.29-8.48-12.59-10.15-14.73-2-2.93,11.16-2.77,22.49-2.61,33.88a5.83,5.83,0,0,1-1.72,2.17,3.22,3.22,0,0,1-1.54.61c-.6-1.82-1.17-3.64-1.73-5.46-2.35-7.7-15.67-6.76-14.73,2,.07.68.17,1.34.28,2h0l0,.12a29.51,29.51,0,0,0,1.27,4.85,11,11,0,0,0-5.66,2.5c-3.35,1.5-6.44,3.42-7.46,7-3.78-3.37-10.73-3.6-12.22,2.07l-.25,0a9.53,9.53,0,0,0-3.88,2,14,14,0,0,1-2.59-1.13l-1.61-.86c-.22-.27-.45-.54-.66-.81l-23.93-30.22c-5.28-6.67-16.43,2-11.78,9.09a396.84,396.84,0,0,0,36.48,47.41c.26.28.51.57.77.86-.62,1.06-1.18,2.14-1.73,3.24-4.15,1.16-8.58,2.76-10.16,6.64a9.19,9.19,0,0,0,.54,7.36,35,35,0,0,0,2.78,4.21c-1,2.46-2.32,4.6-4.36,4.79-.43,0-.88-.08-1.4-.16a3.17,3.17,0,0,0-2.64.73l-.83-.2c-2.64-.59-5.46,3-2.92,5a27.07,27.07,0,0,0,3.73,2.44c-5.49-.48-11.23-.32-16.31-.68-4.39-.31-8.79-.66-13.19-.85-3-.13-7.29-1-9.88,1-3.41,2.62-2.2,6.44.37,8.82,2.25,3.12,7.47,4,10.86,4.22a110.15,110.15,0,0,0,16.74-.1,97.61,97.61,0,0,0,19.12-2.26q.08,1.11.18,2.22h0a19.37,19.37,0,0,0-1.6,1.27,25.41,25.41,0,0,1-4.49.57,33.32,33.32,0,0,0-6.24-.06c-5.71.48-5.87,8.8,0,9,1.65,0,3.35.06,5,0l.66.06a10.65,10.65,0,0,0,.2,2.69c-5.16,1.06-5.05,9.43.53,8.89,1.69-.16,3.38-.26,5.08-.28a7.22,7.22,0,0,0-.07,1.67c-.35.21-.71.41-1.05.63-6.7,2.77-13.15,6.51-19.54,10.1-5.33.34-10.22,1.82-13.17,7.15-2,3.62,1.28,7.34,5.08,6.61a80.71,80.71,0,0,0,14.85-4.82c.44,0,.87,0,1.27,0a49.58,49.58,0,0,0,11.3-1.58,66.14,66.14,0,0,0,7.38-2.34,23.87,23.87,0,0,1,7.75-.49,25,25,0,0,1,5.92,1.4,15.66,15.66,0,0,1,2.47,1.11c-.94,2.31-2.28,4.55-3.25,6.75-1.7,3.9-3.32,7.84-4.8,11.83A194.44,194.44,0,0,0,144,334.09a45.71,45.71,0,0,0-3.54,14.59,18.24,18.24,0,0,0-1.59,7.93c.16,4.23,6.24,6.43,8.39,2.27q2.83-5.5,5.92-10.87a8,8,0,0,0,3.2-2.78l11-16a5,5,0,0,0,4.62-2.16l8.15-12.54c.17.33.32.67.51,1a11.56,11.56,0,0,0,6.66,5.28,10.31,10.31,0,0,0,9.31-2.22l0,0,.15.26a15.09,15.09,0,0,0,5.13,5.57,11.2,11.2,0,0,0,14.61-3.14c1-1.34,1.82-4.3,3.11-5.25a8,8,0,0,1,2.15.6,5.14,5.14,0,0,1,1.43,1.28,40.8,40.8,0,0,0,.77,6.29,139.87,139.87,0,0,0,.62,19.2c1.29,11.11,4.51,24,14,31,3.34,2.47,7.48-1.59,6.61-5.08a168.69,168.69,0,0,1-4-21.74c-.16-1.43-1.11-10.15-.76-15.54a7.77,7.77,0,0,0,.28-1.45,44.88,44.88,0,0,0,5.83,6l.25.29,0-.05c.49.41,1,.83,1.48,1.22,7.14,5.49,14.27-5.75,9.09-11.78l-8.47-9.87c-.81-1.44-1.55-2.91-2.24-4.35-1.66-3.43-4.46-8.4-4.53-12.74l2-.91a50.63,50.63,0,0,0,5.84-3.12l1.29.56c5.3,2.21,10.25,4.45,16.11,4.42,6.05,0,8.87-6.26,6.48-11.28-1.88-4-5-6.85-8-9.83a57.71,57.71,0,0,0,3.93-7.82,51.67,51.67,0,0,0,2-5.85c3-.94,6.2-1.56,8.91-2.27,6.52-1.69,13.1-3.09,19.73-4.25a6.2,6.2,0,0,0,4.81-4.06,118.36,118.36,0,0,0,15.95-5.13l.1,0v0l1.08-.43c5-2.15,1.15-9-3.47-8.23a174.87,174.87,0,0,0-17.07,3.89,6.38,6.38,0,0,0-1.4-.46,40.54,40.54,0,0,0-16.16.32c-3.06.59-6.58,1.71-9.95,1.84,0-1.58.05-3.15,0-4.72,2.85-1.14,5.7-2.29,8.54-3.48,4.5-1.89,11.08-7.54,4.82-12-1.89-1.35-4.35-1.43-6.73-1.33a24.77,24.77,0,0,1,7.66-5.35c3.45-1.33,6.94-2.58,10.36-3.88a55.81,55.81,0,0,0,12.81-4.11c.67-.32,1.33-.69,2-1.07L327.18,206C335.43,203.16,333.57,192.11,325.18,191.27Z"/><path class="cls-2" d="M271.91,307.33c-5.56-1.67-7.94,7-2.39,8.68a39.48,39.48,0,0,1,18.13,11.53c3.9,4.3,10.25-2.08,6.36-6.36A48.33,48.33,0,0,0,271.91,307.33Z"/><path class="cls-2" d="M178.12,329.8c-.11.59-.2,1.19-.3,1.79-4.93,4.51-10.52,10-13.24,16-2.18,4.82-1,11.17,4.63,12.82,12.72,3.73,15.59-15.2,17.1-25.09a4.7,4.7,0,0,0,.27-1.75c.07-.48.14-.93.22-1.33C187.8,326.53,179.13,324.1,178.12,329.8Z"/><circle class="cls-3" cx="205.75" cy="240.78" r="75"/><circle class="cls-3" cx="205.75" cy="240.78" r="44.77"/></g></g></svg>