<svg width="401" height="401" viewBox="0 0 401 401" fill="none" xmlns="http://www.w3.org/2000/svg">
<g clip-path="url(#clip0_4_366)">
<path d="M325.18 191.27C318.61 190.61 313.18 193.8 307.69 196.87L294 201.58C291.38 202.1 288.75 202.58 286.18 203.22C284.76 203.59 283.3 203.99 281.81 204.44C281.31 196.09 269.18 198.73 260.67 201.34C258.092 198.292 255.207 195.517 252.06 193.06C253.975 188.228 256.506 183.664 259.59 179.48C266.8 169.27 272.41 158.23 266.59 145.93C264.88 142.36 259.53 141.22 256.32 143.24C246.14 149.65 239.81 158.82 235.56 169.15C235.34 168.7 235.12 168.24 234.91 167.76C233.18 163.76 230.82 160.87 226.82 159.02C223.084 157.415 219.056 156.598 214.99 156.62C214.045 148.607 213.711 140.534 213.99 132.47C214.28 123.99 201.4 122.32 199.26 130.47C196.33 141.63 196.49 152.96 196.65 164.35C196.259 165.201 195.669 165.945 194.93 166.52C194.479 166.854 193.948 167.064 193.39 167.13C192.79 165.31 192.22 163.49 191.66 161.67C189.31 153.97 175.99 154.91 176.93 163.67C177 164.35 177.1 165.01 177.21 165.67V165.79C177.495 167.44 177.92 169.062 178.48 170.64C176.393 170.915 174.429 171.782 172.82 173.14C169.47 174.64 166.38 176.56 165.36 180.14C161.58 176.77 154.63 176.54 153.14 182.21H152.89C151.459 182.568 150.131 183.252 149.01 184.21C148.111 183.922 147.243 183.543 146.42 183.08L144.81 182.22C144.59 181.95 144.36 181.68 144.15 181.41L120.22 151.19C114.94 144.52 103.79 153.19 108.44 160.28C119.39 176.979 131.584 192.827 144.92 207.69C145.18 207.97 145.43 208.26 145.69 208.55C145.07 209.61 144.51 210.69 143.96 211.79C139.81 212.95 135.38 214.55 133.8 218.43C133.376 219.628 133.206 220.9 133.299 222.167C133.392 223.433 133.746 224.667 134.34 225.79C135.164 227.258 136.093 228.665 137.12 230C136.12 232.46 134.8 234.6 132.76 234.79C132.33 234.79 131.88 234.71 131.36 234.63C130.893 234.547 130.414 234.569 129.957 234.695C129.5 234.821 129.077 235.049 128.72 235.36L127.89 235.16C125.25 234.57 122.43 238.16 124.97 240.16C126.144 241.074 127.392 241.891 128.7 242.6C123.21 242.12 117.47 242.28 112.39 241.92C108 241.61 103.6 241.26 99.2 241.07C96.2 240.94 91.91 240.07 89.32 242.07C85.91 244.69 87.12 248.51 89.69 250.89C91.94 254.01 97.16 254.89 100.55 255.11C106.124 255.501 111.721 255.468 117.29 255.01C123.722 254.889 130.127 254.132 136.41 252.75C136.463 253.49 136.523 254.23 136.59 254.97C136.035 255.365 135.501 255.789 134.99 256.24C133.513 256.563 132.011 256.754 130.5 256.81C128.426 256.595 126.337 256.575 124.26 256.75C118.55 257.23 118.39 265.55 124.26 265.75C125.91 265.75 127.61 265.81 129.26 265.75L129.92 265.81C129.872 266.712 129.94 267.615 130.12 268.5C124.96 269.56 125.07 277.93 130.65 277.39C132.34 277.23 134.03 277.13 135.73 277.11C135.642 277.662 135.619 278.222 135.66 278.78C135.31 278.99 134.95 279.19 134.61 279.41C127.91 282.18 121.46 285.92 115.07 289.51C109.74 289.85 104.85 291.33 101.9 296.66C99.9 300.28 103.18 304 106.98 303.27C112.074 302.147 117.047 300.533 121.83 298.45C122.27 298.45 122.7 298.45 123.1 298.45C126.915 298.36 130.707 297.83 134.4 296.87C136.904 296.235 139.368 295.453 141.78 294.53C144.319 293.945 146.937 293.779 149.53 294.04C151.553 294.264 153.541 294.734 155.45 295.44C156.304 295.738 157.13 296.109 157.92 296.55C156.98 298.86 155.64 301.1 154.67 303.3C152.97 307.2 151.35 311.14 149.87 315.13C147.592 321.346 145.633 327.674 144 334.09C142.024 338.725 140.828 343.655 140.46 348.68C139.343 351.171 138.8 353.881 138.87 356.61C139.03 360.84 145.11 363.04 147.26 358.88C149.147 355.213 151.12 351.59 153.18 348.01C154.477 347.388 155.583 346.428 156.38 345.23L167.38 329.23C168.273 329.318 169.173 329.163 169.986 328.783C170.799 328.403 171.495 327.811 172 327.07L180.15 314.53C180.32 314.86 180.47 315.2 180.66 315.53C182.129 318.072 184.51 319.96 187.32 320.81C188.936 321.22 190.627 321.232 192.248 320.846C193.87 320.459 195.373 319.685 196.63 318.59L196.78 318.85C197.989 321.113 199.754 323.03 201.91 324.42C204.305 325.787 207.119 326.222 209.815 325.643C212.511 325.063 214.898 323.51 216.52 321.28C217.52 319.94 218.34 316.98 219.63 316.03C220.371 316.129 221.095 316.331 221.78 316.63C222.333 316.963 222.818 317.397 223.21 317.91C223.303 320.023 223.561 322.126 223.98 324.2C223.746 330.607 223.954 337.022 224.6 343.4C225.89 354.51 229.11 367.4 238.6 374.4C241.94 376.87 246.08 372.81 245.21 369.32C243.403 362.169 242.067 354.906 241.21 347.58C241.05 346.15 240.1 337.43 240.45 332.04C240.589 331.567 240.683 331.081 240.73 330.59C242.482 332.767 244.434 334.776 246.56 336.59L246.81 336.88V336.83C247.3 337.24 247.81 337.66 248.29 338.05C255.43 343.54 262.56 332.3 257.38 326.27L248.91 316.4C248.1 314.96 247.36 313.49 246.67 312.05C245.01 308.62 242.21 303.65 242.14 299.31L244.14 298.4C246.153 297.489 248.103 296.446 249.98 295.28L251.27 295.84C256.57 298.05 261.52 300.29 267.38 300.26C273.43 300.26 276.25 294 273.86 288.98C271.98 284.98 268.86 282.13 265.86 279.15C267.366 276.647 268.68 274.032 269.79 271.33C270.573 269.422 271.241 267.468 271.79 265.48C274.79 264.54 277.99 263.92 280.7 263.21C287.22 261.52 293.8 260.12 300.43 258.96C301.521 258.774 302.543 258.3 303.389 257.586C304.234 256.872 304.874 255.944 305.24 254.9C310.671 253.569 316.001 251.855 321.19 249.77H321.29L322.37 249.34C327.37 247.19 323.52 240.34 318.9 241.11C313.149 242.121 307.451 243.419 301.83 245C301.383 244.793 300.913 244.639 300.43 244.54C295.076 243.561 289.581 243.67 284.27 244.86C281.21 245.45 277.69 246.57 274.32 246.7C274.32 245.12 274.37 243.55 274.32 241.98C277.17 240.84 280.02 239.69 282.86 238.5C287.36 236.61 293.94 230.96 287.68 226.5C285.79 225.15 283.33 225.07 280.95 225.17C283.141 222.917 285.74 221.101 288.61 219.82C292.06 218.49 295.55 217.24 298.97 215.94C303.39 215.092 307.691 213.712 311.78 211.83C312.45 211.51 313.11 211.14 313.78 210.76L327.18 206C335.43 203.16 333.57 192.11 325.18 191.27Z" fill="#FF9CB1"/>
<path d="M271.91 307.33C266.35 305.66 263.97 314.33 269.52 316.01C276.513 318.103 282.789 322.094 287.65 327.54C291.55 331.84 297.9 325.46 294.01 321.18C288.052 314.625 280.407 309.834 271.91 307.33Z" fill="#FF9CB1"/>
<path d="M178.12 329.8C178.01 330.39 177.92 330.99 177.82 331.59C172.89 336.1 167.3 341.59 164.58 347.59C162.4 352.41 163.58 358.76 169.21 360.41C181.93 364.14 184.8 345.21 186.31 335.32C186.51 334.759 186.602 334.165 186.58 333.57C186.65 333.09 186.72 332.64 186.8 332.24C187.8 326.53 179.13 324.1 178.12 329.8Z" fill="#FF9CB1"/>
</g>
<defs>
<clipPath id="clip0_4_366">
<rect width="400.93" height="400.93" fill="white"/>
</clipPath>
</defs>
</svg>
