<svg width="439" height="111" viewBox="0 0 439 111" fill="none" xmlns="http://www.w3.org/2000/svg">
<g filter="url(#filter0_d_8_385)">
<mask id="path-1-outside-1_8_385" maskUnits="userSpaceOnUse" x="4" y="-0.210205" width="431" height="103" fill="black">
<rect fill="white" x="4" y="-0.210205" width="431" height="103"/>
<path d="M56.4939 37.172C56.4939 40.2156 56.3179 42.986 55.966 45.4833C55.6392 47.9416 55.1113 50.2048 54.3823 52.2728C53.6533 54.3409 52.7107 56.2529 51.5543 58.0088C50.398 59.7647 49.0028 61.4426 47.3689 63.0424L56.3431 87.8592L39.3751 93.0099L33.5682 68.076L28.8926 68.3101L28.2139 92.6587H12C12.1257 83.7621 12.2388 74.9045 12.3394 66.086C12.465 57.2674 12.6033 48.4098 12.7541 39.5132C12.8044 35.0259 12.8547 30.5776 12.905 26.1683C12.9552 21.759 13.0558 17.3107 13.2066 12.8234C14.9663 11.8089 16.7008 10.9699 18.4101 10.3066C20.1195 9.64325 21.8289 9.13599 23.5383 8.78481C25.2728 8.39461 27.0198 8.14098 28.7795 8.02392C30.5643 7.86784 32.3868 7.78979 34.247 7.78979C37.1127 7.78979 39.8778 8.41412 42.5424 9.66276C45.2322 10.8724 47.6077 12.7063 49.669 15.1646C51.7303 17.6229 53.3768 20.686 54.6086 24.3539C55.8655 28.0218 56.4939 32.2945 56.4939 37.172ZM39.6013 39.045C39.6013 37.4061 39.4505 35.9038 39.1488 34.5381C38.8723 33.1724 38.445 32.0018 37.8668 31.0263C37.3138 30.0118 36.6099 29.2314 35.7552 28.6851C34.9257 28.0998 33.9453 27.8072 32.8141 27.8072C32.3113 27.8072 31.8212 27.8657 31.3435 27.9827C30.8659 28.0608 30.4009 28.1974 29.9484 28.3925L29.3451 50.1657H30.25C31.331 50.1657 32.4245 49.9511 33.5305 49.5219C34.6617 49.0927 35.6672 48.4293 36.5471 47.5319C37.452 46.6344 38.181 45.4833 38.7341 44.0786C39.3122 42.6739 39.6013 40.996 39.6013 39.045Z"/>
<path d="M104.08 11.1846C102.949 24.9197 101.981 38.5962 101.176 52.2143C100.372 65.7933 99.6052 79.4699 98.8763 93.244L83.4165 94.9999L84.0952 85.9863C83.5925 86.8837 83.0017 87.6641 82.323 88.3275C81.6694 88.9908 80.9656 89.5371 80.2114 89.9663C79.4573 90.3565 78.678 90.6492 77.8736 90.8443C77.0692 91.0004 76.3025 91.0589 75.5735 91.0199C73.8641 90.9809 72.2553 90.4736 70.747 89.4981C69.2388 88.4836 67.8562 87.1569 66.5993 85.518C65.3424 83.8402 64.2112 81.9087 63.2057 79.7235C62.2002 77.4994 61.3455 75.1777 60.6417 72.7584C59.9629 70.3002 59.435 67.8029 59.058 65.2665C58.706 62.7302 58.5301 60.272 58.5301 57.8917C58.5301 54.3799 58.5678 50.751 58.6432 47.0051C58.7437 43.2201 58.9071 39.4352 59.1334 35.6502C59.3596 31.8653 59.6487 28.1193 60.0006 24.4124C60.3777 20.7055 60.8428 17.1546 61.3958 13.7599C64.4626 13.994 67.542 14.2086 70.6339 14.4037C73.7259 14.5988 76.8053 14.6573 79.8721 14.5793C79.2939 17.9741 78.7157 21.3883 78.1376 24.8221C77.5845 28.2169 77.0818 31.6506 76.6293 35.1234C76.1768 38.5572 75.8123 42.0105 75.5358 45.4833C75.2593 48.9561 75.121 52.4679 75.121 56.0188C75.121 56.8382 75.1462 58.0088 75.1964 59.5306C75.2467 61.0524 75.3724 62.5546 75.5735 64.0374C75.7997 65.5202 76.1265 66.8274 76.5539 67.9589C77.0064 69.0515 77.6348 69.5978 78.4392 69.5978C79.3945 69.5978 80.2491 68.9735 81.0033 67.7248C81.7574 66.4372 82.4236 64.7203 83.0017 62.5742C83.5799 60.428 84.0701 57.9503 84.4723 55.1408C84.8996 52.3314 85.2516 49.4048 85.5281 46.3613C85.8297 43.2787 86.0685 40.1766 86.2445 37.0549C86.4205 33.9333 86.5462 31.0068 86.6216 28.2754C86.7221 25.505 86.785 23.0272 86.8101 20.8421C86.8604 18.6569 86.8855 16.9595 86.8855 15.7499C86.8855 14.9695 86.8729 14.2086 86.8478 13.4672C86.8227 12.7258 86.785 11.965 86.7347 11.1846C88.3686 11.2626 89.99 11.3211 91.5989 11.3601C93.2077 11.3992 94.8291 11.4187 96.463 11.4187C97.7199 11.4187 98.9768 11.4187 100.234 11.4187C101.516 11.3797 102.798 11.3016 104.08 11.1846Z"/>
<path d="M172.254 53.9117C172.254 59.4916 172.14 65.0519 171.914 70.5928C171.688 76.1337 171.424 81.6941 171.122 87.2739L151.741 88.6787C152.319 81.8892 152.835 75.0996 153.287 68.3101C153.765 61.4816 154.003 54.6531 154.003 47.8245C154.003 47.3953 153.991 46.6539 153.966 45.6004C153.941 44.5078 153.89 43.2787 153.815 41.913C153.765 40.5473 153.677 39.1425 153.551 37.6988C153.45 36.216 153.3 34.8698 153.098 33.6602C152.923 32.4115 152.696 31.397 152.42 30.6166C152.143 29.8362 151.816 29.446 151.439 29.446C150.56 29.446 149.868 29.9728 149.366 31.0263C148.863 32.0408 148.486 33.27 148.234 34.7137C148.008 36.1575 147.87 37.6402 147.82 39.162C147.769 40.6448 147.744 41.8544 147.744 42.7909C147.744 44.4298 147.769 46.0686 147.82 47.7075C147.87 49.3463 147.895 51.0242 147.895 52.7411C147.895 58.7892 147.794 64.8178 147.593 70.8269C147.417 76.836 147.191 82.8647 146.915 88.9128L129.042 89.9663C129.62 83.1768 130.123 76.4068 130.55 69.6563C131.002 62.8668 131.229 56.0578 131.229 49.2292C131.229 48.8 131.216 48.0196 131.191 46.888C131.166 45.7564 131.115 44.4883 131.04 43.0836C130.99 41.6788 130.902 40.2156 130.776 38.6938C130.65 37.172 130.487 35.7868 130.286 34.5381C130.11 33.2505 129.884 32.1969 129.607 31.3775C129.331 30.5581 128.991 30.1484 128.589 30.1484C127.961 30.1484 127.433 30.5386 127.005 31.319C126.578 32.0604 126.226 33.0359 125.95 34.2455C125.698 35.4551 125.497 36.8013 125.346 38.2841C125.221 39.7278 125.12 41.1521 125.045 42.5568C124.994 43.9615 124.957 45.2687 124.932 46.4783C124.932 47.6489 124.919 48.5269 124.894 49.1122L124.064 91.8393H105.06C105.462 85.2449 105.865 78.631 106.267 71.9975C106.694 65.3641 107.059 58.7502 107.36 52.1558C107.687 45.5223 107.951 38.8889 108.152 32.2555C108.353 25.622 108.454 18.9886 108.454 12.3552L126.402 11.1846L126.327 17.9741C126.88 16.8815 127.508 15.7889 128.212 14.6964C128.916 13.5648 129.657 12.5698 130.437 11.7113C131.241 10.8139 132.083 10.092 132.963 9.5457C133.868 8.99942 134.798 8.72628 135.753 8.72628C136.985 8.72628 138.091 8.88236 139.072 9.19452C140.052 9.46766 140.932 9.95542 141.711 10.6578C142.515 11.3601 143.219 12.3356 143.823 13.5843C144.426 14.7939 144.954 16.3352 145.406 18.2082C146.211 16.8425 147.015 15.5743 147.82 14.4037C148.649 13.2331 149.516 12.2381 150.421 11.4187C151.326 10.5602 152.307 9.89689 153.362 9.42864C154.418 8.9604 155.587 8.72628 156.869 8.72628C159.308 8.72628 161.381 9.46766 163.091 10.9504C164.8 12.3942 166.22 14.3257 167.352 16.7449C168.508 19.1642 169.4 21.9346 170.029 25.0562C170.682 28.1778 171.173 31.4165 171.499 34.7723C171.826 38.128 172.027 41.4642 172.103 44.7809C172.203 48.0977 172.254 51.1412 172.254 53.9117Z"/>
<path d="M219.613 72.7584C219.613 75.9971 219.223 78.787 218.444 81.1283C217.69 83.4695 216.672 85.4595 215.39 87.0983C214.108 88.7372 212.625 90.0834 210.941 91.1369C209.281 92.1515 207.547 92.9514 205.737 93.5367C203.927 94.122 202.105 94.5122 200.27 94.7073C198.46 94.9024 196.763 94.9999 195.179 94.9999C193.621 94.9999 191.999 94.9024 190.315 94.7073C188.656 94.5512 186.997 94.2586 185.338 93.8293C183.679 93.4001 182.045 92.8343 180.436 92.132C178.827 91.3906 177.306 90.4736 175.873 89.381L175.798 13.994C177.206 13.0965 178.701 12.2966 180.285 11.5943C181.869 10.8529 183.478 10.2481 185.111 9.77983C186.771 9.27256 188.417 8.90187 190.051 8.66775C191.685 8.39461 193.269 8.25804 194.802 8.25804C196.587 8.25804 198.384 8.43363 200.194 8.78481C202.029 9.13599 203.789 9.72129 205.473 10.5407C207.157 11.3601 208.728 12.4332 210.186 13.7599C211.644 15.0476 212.914 16.6474 213.995 18.5594C215.101 20.4714 215.956 22.6955 216.559 25.2318C217.187 27.7681 217.502 30.6947 217.502 34.0114C217.502 36.1965 217.3 38.2451 216.898 40.157C216.496 42.069 215.918 43.7859 215.164 45.3077C214.41 46.8295 213.492 48.1367 212.411 49.2292C211.33 50.2828 210.111 51.0632 208.754 51.5705C210.388 52.2338 211.871 53.2093 213.203 54.497C214.56 55.7846 215.704 57.3454 216.634 59.1794C217.59 61.0133 218.319 63.0814 218.821 65.3836C219.349 67.6858 219.613 70.1441 219.613 72.7584ZM200.458 39.3962C200.458 38.2646 200.307 37.3086 200.006 36.5282C199.704 35.7087 199.327 35.0454 198.874 34.5381C198.447 34.0309 197.969 33.6602 197.442 33.4261C196.939 33.1919 196.486 33.0749 196.084 33.0749C195.581 33.0749 195.091 33.1919 194.614 33.4261C194.136 33.6602 193.671 33.9333 193.218 34.2455L192.992 47.2392C193.57 47.2392 194.287 47.1612 195.141 47.0051C195.996 46.849 196.813 46.5173 197.592 46.0101C198.397 45.4638 199.076 44.6834 199.629 43.6689C200.182 42.6153 200.458 41.1911 200.458 39.3962ZM195.104 58.477C194.375 58.477 193.671 58.5941 192.992 58.8282L192.841 72.1731C193.218 72.2902 193.583 72.4072 193.935 72.5243C194.312 72.6023 194.676 72.6414 195.028 72.6414C195.556 72.6414 196.134 72.5633 196.763 72.4072C197.391 72.2121 197.982 71.861 198.535 71.3537C199.088 70.8074 199.541 70.0855 199.893 69.1881C200.27 68.2906 200.458 67.1005 200.458 65.6177C200.458 64.135 200.27 62.9253 199.893 61.9889C199.541 61.0524 199.101 60.3305 198.573 59.8232C198.045 59.2769 197.467 58.9258 196.838 58.7697C196.21 58.5746 195.632 58.477 195.104 58.477Z"/>
<path d="M254.718 62.5742L253.134 88.5616L221.385 92.4246L222.592 8.84334H242.199L239.409 62.5742H254.718Z"/>
<path d="M298.571 46.3027C298.571 49.6975 298.42 53.0922 298.118 56.487C293.82 56.9162 289.546 57.6186 285.298 58.5941C281.05 59.5306 276.802 60.4671 272.553 61.4035C273.207 64.213 274.225 66.4567 275.608 68.1345C277.015 69.8124 278.687 70.6513 280.623 70.6513C281.628 70.6513 282.722 70.3587 283.903 69.7734C285.11 69.1881 286.304 68.4662 287.485 67.6078C288.667 66.7103 289.798 65.7543 290.879 64.7398C291.96 63.7252 292.89 62.8083 293.669 61.9889L291.859 88.5616C290.879 89.7322 289.81 90.7272 288.654 91.5467C287.523 92.3661 286.341 93.0294 285.11 93.5367C283.878 94.0439 282.634 94.4146 281.377 94.6488C280.12 94.8829 278.888 94.9999 277.681 94.9999C275.193 94.9999 272.918 94.4732 270.857 93.4196C268.795 92.3661 266.922 90.9028 265.238 89.0298C263.579 87.1179 262.121 84.8742 260.864 82.2989C259.607 79.7235 258.564 76.9141 257.735 73.8705C256.905 70.8269 256.277 67.6078 255.849 64.213C255.422 60.8182 255.208 57.3845 255.208 53.9117C255.208 50.2828 255.422 46.6539 255.849 43.025C256.277 39.3962 256.918 35.9038 257.772 32.5481C258.652 29.1924 259.746 26.0903 261.053 23.2418C262.385 20.3543 263.931 17.8375 265.691 15.6914C267.45 13.5453 269.436 11.8674 271.648 10.6578C273.886 9.44815 276.349 8.84334 279.039 8.84334C281.276 8.84334 283.312 9.33109 285.147 10.3066C287.008 11.2431 288.654 12.5698 290.087 14.2867C291.545 15.9645 292.802 17.9741 293.858 20.3153C294.939 22.6565 295.818 25.2318 296.497 28.0413C297.201 30.8117 297.716 33.7577 298.043 36.8794C298.395 39.9619 298.571 43.1031 298.571 46.3027ZM283.488 43.2592C283.488 42.1666 283.413 41.0545 283.262 39.9229C283.111 38.7523 282.86 37.6988 282.508 36.7623C282.181 35.8258 281.741 35.0649 281.188 34.4796C280.635 33.8553 279.944 33.5431 279.114 33.5431C278.109 33.5431 277.216 33.9723 276.437 34.8308C275.683 35.6502 275.029 36.7038 274.476 37.9914C273.923 39.2401 273.471 40.6058 273.119 42.0885C272.767 43.5713 272.503 44.937 272.327 46.1857L283.488 44.5468V43.2592Z"/>
<path d="M360.071 37.2891C360.071 41.074 359.706 44.4298 358.977 47.3563C358.248 50.2828 357.243 52.8386 355.961 55.0237C354.704 57.2089 353.221 59.0623 351.511 60.5841C349.802 62.1059 347.967 63.3546 346.006 64.3301C344.07 65.2665 342.059 65.9689 339.973 66.4372C337.886 66.8664 335.838 67.1005 333.827 67.1395V94.4146H316.255C316.255 85.479 316.268 76.5824 316.293 67.7248C316.318 58.8672 316.356 49.9316 316.406 40.9179C316.457 36.1575 316.469 31.397 316.444 26.6366C316.419 21.8761 316.482 17.0766 316.632 12.2381C319.85 10.7553 323.068 9.64325 326.285 8.90187C329.503 8.16049 332.821 7.78979 336.24 7.78979C338.176 7.78979 340.111 8.04343 342.047 8.55069C343.982 9.01893 345.83 9.77983 347.59 10.8334C349.374 11.8869 351.021 13.2136 352.529 14.8134C354.063 16.3742 355.382 18.2472 356.488 20.4323C357.595 22.6175 358.462 25.1148 359.09 27.9242C359.744 30.6947 360.071 33.8163 360.071 37.2891ZM343.329 39.2791C343.329 36.7428 342.826 34.7723 341.821 33.3675C340.84 31.9238 339.558 31.2019 337.974 31.2019C337.447 31.2019 336.894 31.28 336.315 31.436C335.762 31.5531 335.234 31.7092 334.732 31.9043L334.279 48.9951C334.631 49.0732 334.971 49.1122 335.297 49.1122C335.624 49.1122 335.963 49.1122 336.315 49.1122C337.22 49.1122 338.088 48.8781 338.917 48.4098C339.772 47.9416 340.526 47.2782 341.18 46.4198C341.833 45.5223 342.348 44.4883 342.726 43.3177C343.128 42.1081 343.329 40.7619 343.329 39.2791Z"/>
<path d="M381.827 11.1846L379.188 90.9028L363.276 92.1905L361.767 12.8234L381.827 11.1846Z"/>
<path d="M427 46.3027C427 49.6975 426.849 53.0922 426.548 56.487C422.249 56.9162 417.976 57.6186 413.727 58.5941C409.479 59.5306 405.231 60.4671 400.982 61.4035C401.636 64.213 402.654 66.4567 404.037 68.1345C405.444 69.8124 407.116 70.6513 409.052 70.6513C410.057 70.6513 411.151 70.3587 412.332 69.7734C413.539 69.1881 414.733 68.4662 415.914 67.6078C417.096 66.7103 418.227 65.7543 419.308 64.7398C420.389 63.7252 421.319 62.8083 422.098 61.9889L420.288 88.5616C419.308 89.7322 418.239 90.7272 417.083 91.5467C415.952 92.3661 414.77 93.0294 413.539 93.5367C412.307 94.0439 411.063 94.4146 409.806 94.6488C408.549 94.8829 407.317 94.9999 406.11 94.9999C403.622 94.9999 401.347 94.4732 399.286 93.4196C397.224 92.3661 395.352 90.9028 393.667 89.0298C392.008 87.1179 390.55 84.8742 389.293 82.2989C388.036 79.7235 386.993 76.9141 386.164 73.8705C385.334 70.8269 384.706 67.6078 384.278 64.213C383.851 60.8182 383.637 57.3845 383.637 53.9117C383.637 50.2828 383.851 46.6539 384.278 43.025C384.706 39.3962 385.347 35.9038 386.201 32.5481C387.081 29.1924 388.175 26.0903 389.482 23.2418C390.814 20.3543 392.36 17.8375 394.12 15.6914C395.879 13.5453 397.865 11.8674 400.077 10.6578C402.315 9.44815 404.778 8.84334 407.468 8.84334C409.705 8.84334 411.741 9.33109 413.576 10.3066C415.437 11.2431 417.083 12.5698 418.516 14.2867C419.974 15.9645 421.231 17.9741 422.287 20.3153C423.368 22.6565 424.247 25.2318 424.926 28.0413C425.63 30.8117 426.145 33.7577 426.472 36.8794C426.824 39.9619 427 43.1031 427 46.3027ZM411.917 43.2592C411.917 42.1666 411.842 41.0545 411.691 39.9229C411.54 38.7523 411.289 37.6988 410.937 36.7623C410.61 35.8258 410.17 35.0649 409.617 34.4796C409.064 33.8553 408.373 33.5431 407.543 33.5431C406.538 33.5431 405.645 33.9723 404.866 34.8308C404.112 35.6502 403.458 36.7038 402.905 37.9914C402.352 39.2401 401.9 40.6058 401.548 42.0885C401.196 43.5713 400.932 44.937 400.756 46.1857L411.917 44.5468V43.2592Z"/>
</mask>
<path d="M56.4939 37.172C56.4939 40.2156 56.3179 42.986 55.966 45.4833C55.6392 47.9416 55.1113 50.2048 54.3823 52.2728C53.6533 54.3409 52.7107 56.2529 51.5543 58.0088C50.398 59.7647 49.0028 61.4426 47.3689 63.0424L56.3431 87.8592L39.3751 93.0099L33.5682 68.076L28.8926 68.3101L28.2139 92.6587H12C12.1257 83.7621 12.2388 74.9045 12.3394 66.086C12.465 57.2674 12.6033 48.4098 12.7541 39.5132C12.8044 35.0259 12.8547 30.5776 12.905 26.1683C12.9552 21.759 13.0558 17.3107 13.2066 12.8234C14.9663 11.8089 16.7008 10.9699 18.4101 10.3066C20.1195 9.64325 21.8289 9.13599 23.5383 8.78481C25.2728 8.39461 27.0198 8.14098 28.7795 8.02392C30.5643 7.86784 32.3868 7.78979 34.247 7.78979C37.1127 7.78979 39.8778 8.41412 42.5424 9.66276C45.2322 10.8724 47.6077 12.7063 49.669 15.1646C51.7303 17.6229 53.3768 20.686 54.6086 24.3539C55.8655 28.0218 56.4939 32.2945 56.4939 37.172ZM39.6013 39.045C39.6013 37.4061 39.4505 35.9038 39.1488 34.5381C38.8723 33.1724 38.445 32.0018 37.8668 31.0263C37.3138 30.0118 36.6099 29.2314 35.7552 28.6851C34.9257 28.0998 33.9453 27.8072 32.8141 27.8072C32.3113 27.8072 31.8212 27.8657 31.3435 27.9827C30.8659 28.0608 30.4009 28.1974 29.9484 28.3925L29.3451 50.1657H30.25C31.331 50.1657 32.4245 49.9511 33.5305 49.5219C34.6617 49.0927 35.6672 48.4293 36.5471 47.5319C37.452 46.6344 38.181 45.4833 38.7341 44.0786C39.3122 42.6739 39.6013 40.996 39.6013 39.045Z" fill="white"/>
<path d="M104.08 11.1846C102.949 24.9197 101.981 38.5962 101.176 52.2143C100.372 65.7933 99.6052 79.4699 98.8763 93.244L83.4165 94.9999L84.0952 85.9863C83.5925 86.8837 83.0017 87.6641 82.323 88.3275C81.6694 88.9908 80.9656 89.5371 80.2114 89.9663C79.4573 90.3565 78.678 90.6492 77.8736 90.8443C77.0692 91.0004 76.3025 91.0589 75.5735 91.0199C73.8641 90.9809 72.2553 90.4736 70.747 89.4981C69.2388 88.4836 67.8562 87.1569 66.5993 85.518C65.3424 83.8402 64.2112 81.9087 63.2057 79.7235C62.2002 77.4994 61.3455 75.1777 60.6417 72.7584C59.9629 70.3002 59.435 67.8029 59.058 65.2665C58.706 62.7302 58.5301 60.272 58.5301 57.8917C58.5301 54.3799 58.5678 50.751 58.6432 47.0051C58.7437 43.2201 58.9071 39.4352 59.1334 35.6502C59.3596 31.8653 59.6487 28.1193 60.0006 24.4124C60.3777 20.7055 60.8428 17.1546 61.3958 13.7599C64.4626 13.994 67.542 14.2086 70.6339 14.4037C73.7259 14.5988 76.8053 14.6573 79.8721 14.5793C79.2939 17.9741 78.7157 21.3883 78.1376 24.8221C77.5845 28.2169 77.0818 31.6506 76.6293 35.1234C76.1768 38.5572 75.8123 42.0105 75.5358 45.4833C75.2593 48.9561 75.121 52.4679 75.121 56.0188C75.121 56.8382 75.1462 58.0088 75.1964 59.5306C75.2467 61.0524 75.3724 62.5546 75.5735 64.0374C75.7997 65.5202 76.1265 66.8274 76.5539 67.9589C77.0064 69.0515 77.6348 69.5978 78.4392 69.5978C79.3945 69.5978 80.2491 68.9735 81.0033 67.7248C81.7574 66.4372 82.4236 64.7203 83.0017 62.5742C83.5799 60.428 84.0701 57.9503 84.4723 55.1408C84.8996 52.3314 85.2516 49.4048 85.5281 46.3613C85.8297 43.2787 86.0685 40.1766 86.2445 37.0549C86.4205 33.9333 86.5462 31.0068 86.6216 28.2754C86.7221 25.505 86.785 23.0272 86.8101 20.8421C86.8604 18.6569 86.8855 16.9595 86.8855 15.7499C86.8855 14.9695 86.8729 14.2086 86.8478 13.4672C86.8227 12.7258 86.785 11.965 86.7347 11.1846C88.3686 11.2626 89.99 11.3211 91.5989 11.3601C93.2077 11.3992 94.8291 11.4187 96.463 11.4187C97.7199 11.4187 98.9768 11.4187 100.234 11.4187C101.516 11.3797 102.798 11.3016 104.08 11.1846Z" fill="white"/>
<path d="M172.254 53.9117C172.254 59.4916 172.14 65.0519 171.914 70.5928C171.688 76.1337 171.424 81.6941 171.122 87.2739L151.741 88.6787C152.319 81.8892 152.835 75.0996 153.287 68.3101C153.765 61.4816 154.003 54.6531 154.003 47.8245C154.003 47.3953 153.991 46.6539 153.966 45.6004C153.941 44.5078 153.89 43.2787 153.815 41.913C153.765 40.5473 153.677 39.1425 153.551 37.6988C153.45 36.216 153.3 34.8698 153.098 33.6602C152.923 32.4115 152.696 31.397 152.42 30.6166C152.143 29.8362 151.816 29.446 151.439 29.446C150.56 29.446 149.868 29.9728 149.366 31.0263C148.863 32.0408 148.486 33.27 148.234 34.7137C148.008 36.1575 147.87 37.6402 147.82 39.162C147.769 40.6448 147.744 41.8544 147.744 42.7909C147.744 44.4298 147.769 46.0686 147.82 47.7075C147.87 49.3463 147.895 51.0242 147.895 52.7411C147.895 58.7892 147.794 64.8178 147.593 70.8269C147.417 76.836 147.191 82.8647 146.915 88.9128L129.042 89.9663C129.62 83.1768 130.123 76.4068 130.55 69.6563C131.002 62.8668 131.229 56.0578 131.229 49.2292C131.229 48.8 131.216 48.0196 131.191 46.888C131.166 45.7564 131.115 44.4883 131.04 43.0836C130.99 41.6788 130.902 40.2156 130.776 38.6938C130.65 37.172 130.487 35.7868 130.286 34.5381C130.11 33.2505 129.884 32.1969 129.607 31.3775C129.331 30.5581 128.991 30.1484 128.589 30.1484C127.961 30.1484 127.433 30.5386 127.005 31.319C126.578 32.0604 126.226 33.0359 125.95 34.2455C125.698 35.4551 125.497 36.8013 125.346 38.2841C125.221 39.7278 125.12 41.1521 125.045 42.5568C124.994 43.9615 124.957 45.2687 124.932 46.4783C124.932 47.6489 124.919 48.5269 124.894 49.1122L124.064 91.8393H105.06C105.462 85.2449 105.865 78.631 106.267 71.9975C106.694 65.3641 107.059 58.7502 107.36 52.1558C107.687 45.5223 107.951 38.8889 108.152 32.2555C108.353 25.622 108.454 18.9886 108.454 12.3552L126.402 11.1846L126.327 17.9741C126.88 16.8815 127.508 15.7889 128.212 14.6964C128.916 13.5648 129.657 12.5698 130.437 11.7113C131.241 10.8139 132.083 10.092 132.963 9.5457C133.868 8.99942 134.798 8.72628 135.753 8.72628C136.985 8.72628 138.091 8.88236 139.072 9.19452C140.052 9.46766 140.932 9.95542 141.711 10.6578C142.515 11.3601 143.219 12.3356 143.823 13.5843C144.426 14.7939 144.954 16.3352 145.406 18.2082C146.211 16.8425 147.015 15.5743 147.82 14.4037C148.649 13.2331 149.516 12.2381 150.421 11.4187C151.326 10.5602 152.307 9.89689 153.362 9.42864C154.418 8.9604 155.587 8.72628 156.869 8.72628C159.308 8.72628 161.381 9.46766 163.091 10.9504C164.8 12.3942 166.22 14.3257 167.352 16.7449C168.508 19.1642 169.4 21.9346 170.029 25.0562C170.682 28.1778 171.173 31.4165 171.499 34.7723C171.826 38.128 172.027 41.4642 172.103 44.7809C172.203 48.0977 172.254 51.1412 172.254 53.9117Z" fill="white"/>
<path d="M219.613 72.7584C219.613 75.9971 219.223 78.787 218.444 81.1283C217.69 83.4695 216.672 85.4595 215.39 87.0983C214.108 88.7372 212.625 90.0834 210.941 91.1369C209.281 92.1515 207.547 92.9514 205.737 93.5367C203.927 94.122 202.105 94.5122 200.27 94.7073C198.46 94.9024 196.763 94.9999 195.179 94.9999C193.621 94.9999 191.999 94.9024 190.315 94.7073C188.656 94.5512 186.997 94.2586 185.338 93.8293C183.679 93.4001 182.045 92.8343 180.436 92.132C178.827 91.3906 177.306 90.4736 175.873 89.381L175.798 13.994C177.206 13.0965 178.701 12.2966 180.285 11.5943C181.869 10.8529 183.478 10.2481 185.111 9.77983C186.771 9.27256 188.417 8.90187 190.051 8.66775C191.685 8.39461 193.269 8.25804 194.802 8.25804C196.587 8.25804 198.384 8.43363 200.194 8.78481C202.029 9.13599 203.789 9.72129 205.473 10.5407C207.157 11.3601 208.728 12.4332 210.186 13.7599C211.644 15.0476 212.914 16.6474 213.995 18.5594C215.101 20.4714 215.956 22.6955 216.559 25.2318C217.187 27.7681 217.502 30.6947 217.502 34.0114C217.502 36.1965 217.3 38.2451 216.898 40.157C216.496 42.069 215.918 43.7859 215.164 45.3077C214.41 46.8295 213.492 48.1367 212.411 49.2292C211.33 50.2828 210.111 51.0632 208.754 51.5705C210.388 52.2338 211.871 53.2093 213.203 54.497C214.56 55.7846 215.704 57.3454 216.634 59.1794C217.59 61.0133 218.319 63.0814 218.821 65.3836C219.349 67.6858 219.613 70.1441 219.613 72.7584ZM200.458 39.3962C200.458 38.2646 200.307 37.3086 200.006 36.5282C199.704 35.7087 199.327 35.0454 198.874 34.5381C198.447 34.0309 197.969 33.6602 197.442 33.4261C196.939 33.1919 196.486 33.0749 196.084 33.0749C195.581 33.0749 195.091 33.1919 194.614 33.4261C194.136 33.6602 193.671 33.9333 193.218 34.2455L192.992 47.2392C193.57 47.2392 194.287 47.1612 195.141 47.0051C195.996 46.849 196.813 46.5173 197.592 46.0101C198.397 45.4638 199.076 44.6834 199.629 43.6689C200.182 42.6153 200.458 41.1911 200.458 39.3962ZM195.104 58.477C194.375 58.477 193.671 58.5941 192.992 58.8282L192.841 72.1731C193.218 72.2902 193.583 72.4072 193.935 72.5243C194.312 72.6023 194.676 72.6414 195.028 72.6414C195.556 72.6414 196.134 72.5633 196.763 72.4072C197.391 72.2121 197.982 71.861 198.535 71.3537C199.088 70.8074 199.541 70.0855 199.893 69.1881C200.27 68.2906 200.458 67.1005 200.458 65.6177C200.458 64.135 200.27 62.9253 199.893 61.9889C199.541 61.0524 199.101 60.3305 198.573 59.8232C198.045 59.2769 197.467 58.9258 196.838 58.7697C196.21 58.5746 195.632 58.477 195.104 58.477Z" fill="white"/>
<path d="M254.718 62.5742L253.134 88.5616L221.385 92.4246L222.592 8.84334H242.199L239.409 62.5742H254.718Z" fill="white"/>
<path d="M298.571 46.3027C298.571 49.6975 298.42 53.0922 298.118 56.487C293.82 56.9162 289.546 57.6186 285.298 58.5941C281.05 59.5306 276.802 60.4671 272.553 61.4035C273.207 64.213 274.225 66.4567 275.608 68.1345C277.015 69.8124 278.687 70.6513 280.623 70.6513C281.628 70.6513 282.722 70.3587 283.903 69.7734C285.11 69.1881 286.304 68.4662 287.485 67.6078C288.667 66.7103 289.798 65.7543 290.879 64.7398C291.96 63.7252 292.89 62.8083 293.669 61.9889L291.859 88.5616C290.879 89.7322 289.81 90.7272 288.654 91.5467C287.523 92.3661 286.341 93.0294 285.11 93.5367C283.878 94.0439 282.634 94.4146 281.377 94.6488C280.12 94.8829 278.888 94.9999 277.681 94.9999C275.193 94.9999 272.918 94.4732 270.857 93.4196C268.795 92.3661 266.922 90.9028 265.238 89.0298C263.579 87.1179 262.121 84.8742 260.864 82.2989C259.607 79.7235 258.564 76.9141 257.735 73.8705C256.905 70.8269 256.277 67.6078 255.849 64.213C255.422 60.8182 255.208 57.3845 255.208 53.9117C255.208 50.2828 255.422 46.6539 255.849 43.025C256.277 39.3962 256.918 35.9038 257.772 32.5481C258.652 29.1924 259.746 26.0903 261.053 23.2418C262.385 20.3543 263.931 17.8375 265.691 15.6914C267.45 13.5453 269.436 11.8674 271.648 10.6578C273.886 9.44815 276.349 8.84334 279.039 8.84334C281.276 8.84334 283.312 9.33109 285.147 10.3066C287.008 11.2431 288.654 12.5698 290.087 14.2867C291.545 15.9645 292.802 17.9741 293.858 20.3153C294.939 22.6565 295.818 25.2318 296.497 28.0413C297.201 30.8117 297.716 33.7577 298.043 36.8794C298.395 39.9619 298.571 43.1031 298.571 46.3027ZM283.488 43.2592C283.488 42.1666 283.413 41.0545 283.262 39.9229C283.111 38.7523 282.86 37.6988 282.508 36.7623C282.181 35.8258 281.741 35.0649 281.188 34.4796C280.635 33.8553 279.944 33.5431 279.114 33.5431C278.109 33.5431 277.216 33.9723 276.437 34.8308C275.683 35.6502 275.029 36.7038 274.476 37.9914C273.923 39.2401 273.471 40.6058 273.119 42.0885C272.767 43.5713 272.503 44.937 272.327 46.1857L283.488 44.5468V43.2592Z" fill="white"/>
<path d="M360.071 37.2891C360.071 41.074 359.706 44.4298 358.977 47.3563C358.248 50.2828 357.243 52.8386 355.961 55.0237C354.704 57.2089 353.221 59.0623 351.511 60.5841C349.802 62.1059 347.967 63.3546 346.006 64.3301C344.07 65.2665 342.059 65.9689 339.973 66.4372C337.886 66.8664 335.838 67.1005 333.827 67.1395V94.4146H316.255C316.255 85.479 316.268 76.5824 316.293 67.7248C316.318 58.8672 316.356 49.9316 316.406 40.9179C316.457 36.1575 316.469 31.397 316.444 26.6366C316.419 21.8761 316.482 17.0766 316.632 12.2381C319.85 10.7553 323.068 9.64325 326.285 8.90187C329.503 8.16049 332.821 7.78979 336.24 7.78979C338.176 7.78979 340.111 8.04343 342.047 8.55069C343.982 9.01893 345.83 9.77983 347.59 10.8334C349.374 11.8869 351.021 13.2136 352.529 14.8134C354.063 16.3742 355.382 18.2472 356.488 20.4323C357.595 22.6175 358.462 25.1148 359.09 27.9242C359.744 30.6947 360.071 33.8163 360.071 37.2891ZM343.329 39.2791C343.329 36.7428 342.826 34.7723 341.821 33.3675C340.84 31.9238 339.558 31.2019 337.974 31.2019C337.447 31.2019 336.894 31.28 336.315 31.436C335.762 31.5531 335.234 31.7092 334.732 31.9043L334.279 48.9951C334.631 49.0732 334.971 49.1122 335.297 49.1122C335.624 49.1122 335.963 49.1122 336.315 49.1122C337.22 49.1122 338.088 48.8781 338.917 48.4098C339.772 47.9416 340.526 47.2782 341.18 46.4198C341.833 45.5223 342.348 44.4883 342.726 43.3177C343.128 42.1081 343.329 40.7619 343.329 39.2791Z" fill="white"/>
<path d="M381.827 11.1846L379.188 90.9028L363.276 92.1905L361.767 12.8234L381.827 11.1846Z" fill="white"/>
<path d="M427 46.3027C427 49.6975 426.849 53.0922 426.548 56.487C422.249 56.9162 417.976 57.6186 413.727 58.5941C409.479 59.5306 405.231 60.4671 400.982 61.4035C401.636 64.213 402.654 66.4567 404.037 68.1345C405.444 69.8124 407.116 70.6513 409.052 70.6513C410.057 70.6513 411.151 70.3587 412.332 69.7734C413.539 69.1881 414.733 68.4662 415.914 67.6078C417.096 66.7103 418.227 65.7543 419.308 64.7398C420.389 63.7252 421.319 62.8083 422.098 61.9889L420.288 88.5616C419.308 89.7322 418.239 90.7272 417.083 91.5467C415.952 92.3661 414.77 93.0294 413.539 93.5367C412.307 94.0439 411.063 94.4146 409.806 94.6488C408.549 94.8829 407.317 94.9999 406.11 94.9999C403.622 94.9999 401.347 94.4732 399.286 93.4196C397.224 92.3661 395.352 90.9028 393.667 89.0298C392.008 87.1179 390.55 84.8742 389.293 82.2989C388.036 79.7235 386.993 76.9141 386.164 73.8705C385.334 70.8269 384.706 67.6078 384.278 64.213C383.851 60.8182 383.637 57.3845 383.637 53.9117C383.637 50.2828 383.851 46.6539 384.278 43.025C384.706 39.3962 385.347 35.9038 386.201 32.5481C387.081 29.1924 388.175 26.0903 389.482 23.2418C390.814 20.3543 392.36 17.8375 394.12 15.6914C395.879 13.5453 397.865 11.8674 400.077 10.6578C402.315 9.44815 404.778 8.84334 407.468 8.84334C409.705 8.84334 411.741 9.33109 413.576 10.3066C415.437 11.2431 417.083 12.5698 418.516 14.2867C419.974 15.9645 421.231 17.9741 422.287 20.3153C423.368 22.6565 424.247 25.2318 424.926 28.0413C425.63 30.8117 426.145 33.7577 426.472 36.8794C426.824 39.9619 427 43.1031 427 46.3027ZM411.917 43.2592C411.917 42.1666 411.842 41.0545 411.691 39.9229C411.54 38.7523 411.289 37.6988 410.937 36.7623C410.61 35.8258 410.17 35.0649 409.617 34.4796C409.064 33.8553 408.373 33.5431 407.543 33.5431C406.538 33.5431 405.645 33.9723 404.866 34.8308C404.112 35.6502 403.458 36.7038 402.905 37.9914C402.352 39.2401 401.9 40.6058 401.548 42.0885C401.196 43.5713 400.932 44.937 400.756 46.1857L411.917 44.5468V43.2592Z" fill="white"/>
<path d="M56.4939 37.172C56.4939 40.2156 56.3179 42.986 55.966 45.4833C55.6392 47.9416 55.1113 50.2048 54.3823 52.2728C53.6533 54.3409 52.7107 56.2529 51.5543 58.0088C50.398 59.7647 49.0028 61.4426 47.3689 63.0424L56.3431 87.8592L39.3751 93.0099L33.5682 68.076L28.8926 68.3101L28.2139 92.6587H12C12.1257 83.7621 12.2388 74.9045 12.3394 66.086C12.465 57.2674 12.6033 48.4098 12.7541 39.5132C12.8044 35.0259 12.8547 30.5776 12.905 26.1683C12.9552 21.759 13.0558 17.3107 13.2066 12.8234C14.9663 11.8089 16.7008 10.9699 18.4101 10.3066C20.1195 9.64325 21.8289 9.13599 23.5383 8.78481C25.2728 8.39461 27.0198 8.14098 28.7795 8.02392C30.5643 7.86784 32.3868 7.78979 34.247 7.78979C37.1127 7.78979 39.8778 8.41412 42.5424 9.66276C45.2322 10.8724 47.6077 12.7063 49.669 15.1646C51.7303 17.6229 53.3768 20.686 54.6086 24.3539C55.8655 28.0218 56.4939 32.2945 56.4939 37.172ZM39.6013 39.045C39.6013 37.4061 39.4505 35.9038 39.1488 34.5381C38.8723 33.1724 38.445 32.0018 37.8668 31.0263C37.3138 30.0118 36.6099 29.2314 35.7552 28.6851C34.9257 28.0998 33.9453 27.8072 32.8141 27.8072C32.3113 27.8072 31.8212 27.8657 31.3435 27.9827C30.8659 28.0608 30.4009 28.1974 29.9484 28.3925L29.3451 50.1657H30.25C31.331 50.1657 32.4245 49.9511 33.5305 49.5219C34.6617 49.0927 35.6672 48.4293 36.5471 47.5319C37.452 46.6344 38.181 45.4833 38.7341 44.0786C39.3122 42.6739 39.6013 40.996 39.6013 39.045Z" stroke="black" stroke-width="14.0338" stroke-linejoin="round" mask="url(#path-1-outside-1_8_385)"/>
<path d="M104.08 11.1846C102.949 24.9197 101.981 38.5962 101.176 52.2143C100.372 65.7933 99.6052 79.4699 98.8763 93.244L83.4165 94.9999L84.0952 85.9863C83.5925 86.8837 83.0017 87.6641 82.323 88.3275C81.6694 88.9908 80.9656 89.5371 80.2114 89.9663C79.4573 90.3565 78.678 90.6492 77.8736 90.8443C77.0692 91.0004 76.3025 91.0589 75.5735 91.0199C73.8641 90.9809 72.2553 90.4736 70.747 89.4981C69.2388 88.4836 67.8562 87.1569 66.5993 85.518C65.3424 83.8402 64.2112 81.9087 63.2057 79.7235C62.2002 77.4994 61.3455 75.1777 60.6417 72.7584C59.9629 70.3002 59.435 67.8029 59.058 65.2665C58.706 62.7302 58.5301 60.272 58.5301 57.8917C58.5301 54.3799 58.5678 50.751 58.6432 47.0051C58.7437 43.2201 58.9071 39.4352 59.1334 35.6502C59.3596 31.8653 59.6487 28.1193 60.0006 24.4124C60.3777 20.7055 60.8428 17.1546 61.3958 13.7599C64.4626 13.994 67.542 14.2086 70.6339 14.4037C73.7259 14.5988 76.8053 14.6573 79.8721 14.5793C79.2939 17.9741 78.7157 21.3883 78.1376 24.8221C77.5845 28.2169 77.0818 31.6506 76.6293 35.1234C76.1768 38.5572 75.8123 42.0105 75.5358 45.4833C75.2593 48.9561 75.121 52.4679 75.121 56.0188C75.121 56.8382 75.1462 58.0088 75.1964 59.5306C75.2467 61.0524 75.3724 62.5546 75.5735 64.0374C75.7997 65.5202 76.1265 66.8274 76.5539 67.9589C77.0064 69.0515 77.6348 69.5978 78.4392 69.5978C79.3945 69.5978 80.2491 68.9735 81.0033 67.7248C81.7574 66.4372 82.4236 64.7203 83.0017 62.5742C83.5799 60.428 84.0701 57.9503 84.4723 55.1408C84.8996 52.3314 85.2516 49.4048 85.5281 46.3613C85.8297 43.2787 86.0685 40.1766 86.2445 37.0549C86.4205 33.9333 86.5462 31.0068 86.6216 28.2754C86.7221 25.505 86.785 23.0272 86.8101 20.8421C86.8604 18.6569 86.8855 16.9595 86.8855 15.7499C86.8855 14.9695 86.8729 14.2086 86.8478 13.4672C86.8227 12.7258 86.785 11.965 86.7347 11.1846C88.3686 11.2626 89.99 11.3211 91.5989 11.3601C93.2077 11.3992 94.8291 11.4187 96.463 11.4187C97.7199 11.4187 98.9768 11.4187 100.234 11.4187C101.516 11.3797 102.798 11.3016 104.08 11.1846Z" stroke="black" stroke-width="14.0338" stroke-linejoin="round" mask="url(#path-1-outside-1_8_385)"/>
<path d="M172.254 53.9117C172.254 59.4916 172.14 65.0519 171.914 70.5928C171.688 76.1337 171.424 81.6941 171.122 87.2739L151.741 88.6787C152.319 81.8892 152.835 75.0996 153.287 68.3101C153.765 61.4816 154.003 54.6531 154.003 47.8245C154.003 47.3953 153.991 46.6539 153.966 45.6004C153.941 44.5078 153.89 43.2787 153.815 41.913C153.765 40.5473 153.677 39.1425 153.551 37.6988C153.45 36.216 153.3 34.8698 153.098 33.6602C152.923 32.4115 152.696 31.397 152.42 30.6166C152.143 29.8362 151.816 29.446 151.439 29.446C150.56 29.446 149.868 29.9728 149.366 31.0263C148.863 32.0408 148.486 33.27 148.234 34.7137C148.008 36.1575 147.87 37.6402 147.82 39.162C147.769 40.6448 147.744 41.8544 147.744 42.7909C147.744 44.4298 147.769 46.0686 147.82 47.7075C147.87 49.3463 147.895 51.0242 147.895 52.7411C147.895 58.7892 147.794 64.8178 147.593 70.8269C147.417 76.836 147.191 82.8647 146.915 88.9128L129.042 89.9663C129.62 83.1768 130.123 76.4068 130.55 69.6563C131.002 62.8668 131.229 56.0578 131.229 49.2292C131.229 48.8 131.216 48.0196 131.191 46.888C131.166 45.7564 131.115 44.4883 131.04 43.0836C130.99 41.6788 130.902 40.2156 130.776 38.6938C130.65 37.172 130.487 35.7868 130.286 34.5381C130.11 33.2505 129.884 32.1969 129.607 31.3775C129.331 30.5581 128.991 30.1484 128.589 30.1484C127.961 30.1484 127.433 30.5386 127.005 31.319C126.578 32.0604 126.226 33.0359 125.95 34.2455C125.698 35.4551 125.497 36.8013 125.346 38.2841C125.221 39.7278 125.12 41.1521 125.045 42.5568C124.994 43.9615 124.957 45.2687 124.932 46.4783C124.932 47.6489 124.919 48.5269 124.894 49.1122L124.064 91.8393H105.06C105.462 85.2449 105.865 78.631 106.267 71.9975C106.694 65.3641 107.059 58.7502 107.36 52.1558C107.687 45.5223 107.951 38.8889 108.152 32.2555C108.353 25.622 108.454 18.9886 108.454 12.3552L126.402 11.1846L126.327 17.9741C126.88 16.8815 127.508 15.7889 128.212 14.6964C128.916 13.5648 129.657 12.5698 130.437 11.7113C131.241 10.8139 132.083 10.092 132.963 9.5457C133.868 8.99942 134.798 8.72628 135.753 8.72628C136.985 8.72628 138.091 8.88236 139.072 9.19452C140.052 9.46766 140.932 9.95542 141.711 10.6578C142.515 11.3601 143.219 12.3356 143.823 13.5843C144.426 14.7939 144.954 16.3352 145.406 18.2082C146.211 16.8425 147.015 15.5743 147.82 14.4037C148.649 13.2331 149.516 12.2381 150.421 11.4187C151.326 10.5602 152.307 9.89689 153.362 9.42864C154.418 8.9604 155.587 8.72628 156.869 8.72628C159.308 8.72628 161.381 9.46766 163.091 10.9504C164.8 12.3942 166.22 14.3257 167.352 16.7449C168.508 19.1642 169.4 21.9346 170.029 25.0562C170.682 28.1778 171.173 31.4165 171.499 34.7723C171.826 38.128 172.027 41.4642 172.103 44.7809C172.203 48.0977 172.254 51.1412 172.254 53.9117Z" stroke="black" stroke-width="14.0338" stroke-linejoin="round" mask="url(#path-1-outside-1_8_385)"/>
<path d="M219.613 72.7584C219.613 75.9971 219.223 78.787 218.444 81.1283C217.69 83.4695 216.672 85.4595 215.39 87.0983C214.108 88.7372 212.625 90.0834 210.941 91.1369C209.281 92.1515 207.547 92.9514 205.737 93.5367C203.927 94.122 202.105 94.5122 200.27 94.7073C198.46 94.9024 196.763 94.9999 195.179 94.9999C193.621 94.9999 191.999 94.9024 190.315 94.7073C188.656 94.5512 186.997 94.2586 185.338 93.8293C183.679 93.4001 182.045 92.8343 180.436 92.132C178.827 91.3906 177.306 90.4736 175.873 89.381L175.798 13.994C177.206 13.0965 178.701 12.2966 180.285 11.5943C181.869 10.8529 183.478 10.2481 185.111 9.77983C186.771 9.27256 188.417 8.90187 190.051 8.66775C191.685 8.39461 193.269 8.25804 194.802 8.25804C196.587 8.25804 198.384 8.43363 200.194 8.78481C202.029 9.13599 203.789 9.72129 205.473 10.5407C207.157 11.3601 208.728 12.4332 210.186 13.7599C211.644 15.0476 212.914 16.6474 213.995 18.5594C215.101 20.4714 215.956 22.6955 216.559 25.2318C217.187 27.7681 217.502 30.6947 217.502 34.0114C217.502 36.1965 217.3 38.2451 216.898 40.157C216.496 42.069 215.918 43.7859 215.164 45.3077C214.41 46.8295 213.492 48.1367 212.411 49.2292C211.33 50.2828 210.111 51.0632 208.754 51.5705C210.388 52.2338 211.871 53.2093 213.203 54.497C214.56 55.7846 215.704 57.3454 216.634 59.1794C217.59 61.0133 218.319 63.0814 218.821 65.3836C219.349 67.6858 219.613 70.1441 219.613 72.7584ZM200.458 39.3962C200.458 38.2646 200.307 37.3086 200.006 36.5282C199.704 35.7087 199.327 35.0454 198.874 34.5381C198.447 34.0309 197.969 33.6602 197.442 33.4261C196.939 33.1919 196.486 33.0749 196.084 33.0749C195.581 33.0749 195.091 33.1919 194.614 33.4261C194.136 33.6602 193.671 33.9333 193.218 34.2455L192.992 47.2392C193.57 47.2392 194.287 47.1612 195.141 47.0051C195.996 46.849 196.813 46.5173 197.592 46.0101C198.397 45.4638 199.076 44.6834 199.629 43.6689C200.182 42.6153 200.458 41.1911 200.458 39.3962ZM195.104 58.477C194.375 58.477 193.671 58.5941 192.992 58.8282L192.841 72.1731C193.218 72.2902 193.583 72.4072 193.935 72.5243C194.312 72.6023 194.676 72.6414 195.028 72.6414C195.556 72.6414 196.134 72.5633 196.763 72.4072C197.391 72.2121 197.982 71.861 198.535 71.3537C199.088 70.8074 199.541 70.0855 199.893 69.1881C200.27 68.2906 200.458 67.1005 200.458 65.6177C200.458 64.135 200.27 62.9253 199.893 61.9889C199.541 61.0524 199.101 60.3305 198.573 59.8232C198.045 59.2769 197.467 58.9258 196.838 58.7697C196.21 58.5746 195.632 58.477 195.104 58.477Z" stroke="black" stroke-width="14.0338" stroke-linejoin="round" mask="url(#path-1-outside-1_8_385)"/>
<path d="M254.718 62.5742L253.134 88.5616L221.385 92.4246L222.592 8.84334H242.199L239.409 62.5742H254.718Z" stroke="black" stroke-width="14.0338" stroke-linejoin="round" mask="url(#path-1-outside-1_8_385)"/>
<path d="M298.571 46.3027C298.571 49.6975 298.42 53.0922 298.118 56.487C293.82 56.9162 289.546 57.6186 285.298 58.5941C281.05 59.5306 276.802 60.4671 272.553 61.4035C273.207 64.213 274.225 66.4567 275.608 68.1345C277.015 69.8124 278.687 70.6513 280.623 70.6513C281.628 70.6513 282.722 70.3587 283.903 69.7734C285.11 69.1881 286.304 68.4662 287.485 67.6078C288.667 66.7103 289.798 65.7543 290.879 64.7398C291.96 63.7252 292.89 62.8083 293.669 61.9889L291.859 88.5616C290.879 89.7322 289.81 90.7272 288.654 91.5467C287.523 92.3661 286.341 93.0294 285.11 93.5367C283.878 94.0439 282.634 94.4146 281.377 94.6488C280.12 94.8829 278.888 94.9999 277.681 94.9999C275.193 94.9999 272.918 94.4732 270.857 93.4196C268.795 92.3661 266.922 90.9028 265.238 89.0298C263.579 87.1179 262.121 84.8742 260.864 82.2989C259.607 79.7235 258.564 76.9141 257.735 73.8705C256.905 70.8269 256.277 67.6078 255.849 64.213C255.422 60.8182 255.208 57.3845 255.208 53.9117C255.208 50.2828 255.422 46.6539 255.849 43.025C256.277 39.3962 256.918 35.9038 257.772 32.5481C258.652 29.1924 259.746 26.0903 261.053 23.2418C262.385 20.3543 263.931 17.8375 265.691 15.6914C267.45 13.5453 269.436 11.8674 271.648 10.6578C273.886 9.44815 276.349 8.84334 279.039 8.84334C281.276 8.84334 283.312 9.33109 285.147 10.3066C287.008 11.2431 288.654 12.5698 290.087 14.2867C291.545 15.9645 292.802 17.9741 293.858 20.3153C294.939 22.6565 295.818 25.2318 296.497 28.0413C297.201 30.8117 297.716 33.7577 298.043 36.8794C298.395 39.9619 298.571 43.1031 298.571 46.3027ZM283.488 43.2592C283.488 42.1666 283.413 41.0545 283.262 39.9229C283.111 38.7523 282.86 37.6988 282.508 36.7623C282.181 35.8258 281.741 35.0649 281.188 34.4796C280.635 33.8553 279.944 33.5431 279.114 33.5431C278.109 33.5431 277.216 33.9723 276.437 34.8308C275.683 35.6502 275.029 36.7038 274.476 37.9914C273.923 39.2401 273.471 40.6058 273.119 42.0885C272.767 43.5713 272.503 44.937 272.327 46.1857L283.488 44.5468V43.2592Z" stroke="black" stroke-width="14.0338" stroke-linejoin="round" mask="url(#path-1-outside-1_8_385)"/>
<path d="M360.071 37.2891C360.071 41.074 359.706 44.4298 358.977 47.3563C358.248 50.2828 357.243 52.8386 355.961 55.0237C354.704 57.2089 353.221 59.0623 351.511 60.5841C349.802 62.1059 347.967 63.3546 346.006 64.3301C344.07 65.2665 342.059 65.9689 339.973 66.4372C337.886 66.8664 335.838 67.1005 333.827 67.1395V94.4146H316.255C316.255 85.479 316.268 76.5824 316.293 67.7248C316.318 58.8672 316.356 49.9316 316.406 40.9179C316.457 36.1575 316.469 31.397 316.444 26.6366C316.419 21.8761 316.482 17.0766 316.632 12.2381C319.85 10.7553 323.068 9.64325 326.285 8.90187C329.503 8.16049 332.821 7.78979 336.24 7.78979C338.176 7.78979 340.111 8.04343 342.047 8.55069C343.982 9.01893 345.83 9.77983 347.59 10.8334C349.374 11.8869 351.021 13.2136 352.529 14.8134C354.063 16.3742 355.382 18.2472 356.488 20.4323C357.595 22.6175 358.462 25.1148 359.09 27.9242C359.744 30.6947 360.071 33.8163 360.071 37.2891ZM343.329 39.2791C343.329 36.7428 342.826 34.7723 341.821 33.3675C340.84 31.9238 339.558 31.2019 337.974 31.2019C337.447 31.2019 336.894 31.28 336.315 31.436C335.762 31.5531 335.234 31.7092 334.732 31.9043L334.279 48.9951C334.631 49.0732 334.971 49.1122 335.297 49.1122C335.624 49.1122 335.963 49.1122 336.315 49.1122C337.22 49.1122 338.088 48.8781 338.917 48.4098C339.772 47.9416 340.526 47.2782 341.18 46.4198C341.833 45.5223 342.348 44.4883 342.726 43.3177C343.128 42.1081 343.329 40.7619 343.329 39.2791Z" stroke="black" stroke-width="14.0338" stroke-linejoin="round" mask="url(#path-1-outside-1_8_385)"/>
<path d="M381.827 11.1846L379.188 90.9028L363.276 92.1905L361.767 12.8234L381.827 11.1846Z" stroke="black" stroke-width="14.0338" stroke-linejoin="round" mask="url(#path-1-outside-1_8_385)"/>
<path d="M427 46.3027C427 49.6975 426.849 53.0922 426.548 56.487C422.249 56.9162 417.976 57.6186 413.727 58.5941C409.479 59.5306 405.231 60.4671 400.982 61.4035C401.636 64.213 402.654 66.4567 404.037 68.1345C405.444 69.8124 407.116 70.6513 409.052 70.6513C410.057 70.6513 411.151 70.3587 412.332 69.7734C413.539 69.1881 414.733 68.4662 415.914 67.6078C417.096 66.7103 418.227 65.7543 419.308 64.7398C420.389 63.7252 421.319 62.8083 422.098 61.9889L420.288 88.5616C419.308 89.7322 418.239 90.7272 417.083 91.5467C415.952 92.3661 414.77 93.0294 413.539 93.5367C412.307 94.0439 411.063 94.4146 409.806 94.6488C408.549 94.8829 407.317 94.9999 406.11 94.9999C403.622 94.9999 401.347 94.4732 399.286 93.4196C397.224 92.3661 395.352 90.9028 393.667 89.0298C392.008 87.1179 390.55 84.8742 389.293 82.2989C388.036 79.7235 386.993 76.9141 386.164 73.8705C385.334 70.8269 384.706 67.6078 384.278 64.213C383.851 60.8182 383.637 57.3845 383.637 53.9117C383.637 50.2828 383.851 46.6539 384.278 43.025C384.706 39.3962 385.347 35.9038 386.201 32.5481C387.081 29.1924 388.175 26.0903 389.482 23.2418C390.814 20.3543 392.36 17.8375 394.12 15.6914C395.879 13.5453 397.865 11.8674 400.077 10.6578C402.315 9.44815 404.778 8.84334 407.468 8.84334C409.705 8.84334 411.741 9.33109 413.576 10.3066C415.437 11.2431 417.083 12.5698 418.516 14.2867C419.974 15.9645 421.231 17.9741 422.287 20.3153C423.368 22.6565 424.247 25.2318 424.926 28.0413C425.63 30.8117 426.145 33.7577 426.472 36.8794C426.824 39.9619 427 43.1031 427 46.3027ZM411.917 43.2592C411.917 42.1666 411.842 41.0545 411.691 39.9229C411.54 38.7523 411.289 37.6988 410.937 36.7623C410.61 35.8258 410.17 35.0649 409.617 34.4796C409.064 33.8553 408.373 33.5431 407.543 33.5431C406.538 33.5431 405.645 33.9723 404.866 34.8308C404.112 35.6502 403.458 36.7038 402.905 37.9914C402.352 39.2401 401.9 40.6058 401.548 42.0885C401.196 43.5713 400.932 44.937 400.756 46.1857L411.917 44.5468V43.2592Z" stroke="black" stroke-width="14.0338" stroke-linejoin="round" mask="url(#path-1-outside-1_8_385)"/>
</g>
<defs>
<filter id="filter0_d_8_385" x="0.983093" y="0.772827" width="437.034" height="109.244" filterUnits="userSpaceOnUse" color-interpolation-filters="sRGB">
<feFlood flood-opacity="0" result="BackgroundImageFix"/>
<feColorMatrix in="SourceAlpha" type="matrix" values="0 0 0 0 0 0 0 0 0 0 0 0 0 0 0 0 0 0 127 0" result="hardAlpha"/>
<feOffset dy="4"/>
<feGaussianBlur stdDeviation="2"/>
<feComposite in2="hardAlpha" operator="out"/>
<feColorMatrix type="matrix" values="0 0 0 0 0 0 0 0 0 0 0 0 0 0 0 0 0 0 0.25 0"/>
<feBlend mode="normal" in2="BackgroundImageFix" result="effect1_dropShadow_8_385"/>
<feBlend mode="normal" in="SourceGraphic" in2="effect1_dropShadow_8_385" result="shape"/>
</filter>
</defs>
</svg>
