<svg width="734" height="408" viewBox="0 0 734 408" fill="none" xmlns="http://www.w3.org/2000/svg">
<g clip-path="url(#clip0_13_16)">
<path d="M658.18 191.27C651.61 190.61 646.18 193.8 640.69 196.87L627 201.58C624.38 202.1 621.75 202.58 619.18 203.22C617.76 203.59 616.3 203.99 614.81 204.44C614.31 196.09 602.18 198.73 593.67 201.34C591.092 198.292 588.207 195.517 585.06 193.06C586.975 188.228 589.506 183.664 592.59 179.48C599.8 169.27 605.41 158.23 599.59 145.93C597.88 142.36 592.53 141.22 589.32 143.24C579.14 149.65 572.81 158.82 568.56 169.15C568.34 168.7 568.12 168.24 567.91 167.76C566.18 163.76 563.82 160.87 559.82 159.02C556.084 157.415 552.056 156.598 547.99 156.62C547.045 148.607 546.711 140.534 546.99 132.47C547.28 123.99 534.4 122.32 532.26 130.47C529.33 141.63 529.49 152.96 529.65 164.35C529.259 165.201 528.669 165.945 527.93 166.52C527.479 166.854 526.948 167.064 526.39 167.13C525.79 165.31 525.22 163.49 524.66 161.67C522.31 153.97 508.99 154.91 509.93 163.67C510 164.35 510.1 165.01 510.21 165.67V165.79C510.495 167.44 510.92 169.062 511.48 170.64C509.393 170.915 507.429 171.782 505.82 173.14C502.47 174.64 499.38 176.56 498.36 180.14C494.58 176.77 487.63 176.54 486.14 182.21H485.89C484.459 182.568 483.131 183.252 482.01 184.21C481.111 183.922 480.243 183.543 479.42 183.08L477.81 182.22C477.59 181.95 477.36 181.68 477.15 181.41L453.22 151.19C447.94 144.52 436.79 153.19 441.44 160.28C452.39 176.979 464.584 192.827 477.92 207.69C478.18 207.97 478.43 208.26 478.69 208.55C478.07 209.61 477.51 210.69 476.96 211.79C472.81 212.95 468.38 214.55 466.8 218.43C466.376 219.628 466.206 220.9 466.299 222.167C466.392 223.433 466.746 224.667 467.34 225.79C468.164 227.258 469.093 228.665 470.12 230C469.12 232.46 467.8 234.6 465.76 234.79C465.33 234.79 464.88 234.71 464.36 234.63C463.893 234.547 463.414 234.569 462.957 234.695C462.5 234.821 462.077 235.049 461.72 235.36L460.89 235.16C458.25 234.57 455.43 238.16 457.97 240.16C459.144 241.074 460.392 241.891 461.7 242.6C456.21 242.12 450.47 242.28 445.39 241.92C441 241.61 436.6 241.26 432.2 241.07C429.2 240.94 424.91 240.07 422.32 242.07C418.91 244.69 420.12 248.51 422.69 250.89C424.94 254.01 430.16 254.89 433.55 255.11C439.124 255.501 444.721 255.468 450.29 255.01C456.722 254.889 463.127 254.132 469.41 252.75C469.463 253.49 469.523 254.23 469.59 254.97C469.035 255.365 468.501 255.789 467.99 256.24C466.513 256.563 465.011 256.754 463.5 256.81C461.426 256.595 459.337 256.575 457.26 256.75C451.55 257.23 451.39 265.55 457.26 265.75C458.91 265.75 460.61 265.81 462.26 265.75L462.92 265.81C462.872 266.712 462.94 267.615 463.12 268.5C457.96 269.56 458.07 277.93 463.65 277.39C465.34 277.23 467.03 277.13 468.73 277.11C468.642 277.662 468.619 278.223 468.66 278.78C468.31 278.99 467.95 279.19 467.61 279.41C460.91 282.18 454.46 285.92 448.07 289.51C442.74 289.85 437.85 291.33 434.9 296.66C432.9 300.28 436.18 304 439.98 303.27C445.074 302.147 450.047 300.533 454.83 298.45C455.27 298.45 455.7 298.45 456.1 298.45C459.915 298.36 463.707 297.83 467.4 296.87C469.904 296.235 472.368 295.453 474.78 294.53C477.319 293.945 479.937 293.779 482.53 294.04C484.553 294.264 486.541 294.734 488.45 295.44C489.304 295.738 490.13 296.109 490.92 296.55C489.98 298.86 488.64 301.1 487.67 303.3C485.97 307.2 484.35 311.14 482.87 315.13C480.592 321.346 478.633 327.674 477 334.09C475.024 338.725 473.828 343.655 473.46 348.68C472.343 351.171 471.8 353.881 471.87 356.61C472.03 360.84 478.11 363.04 480.26 358.88C482.147 355.213 484.12 351.59 486.18 348.01C487.477 347.388 488.583 346.428 489.38 345.23L500.38 329.23C501.273 329.318 502.173 329.163 502.986 328.783C503.799 328.403 504.495 327.811 505 327.07L513.15 314.53C513.32 314.86 513.47 315.2 513.66 315.53C515.129 318.072 517.51 319.96 520.32 320.81C521.936 321.22 523.627 321.232 525.248 320.846C526.87 320.459 528.373 319.685 529.63 318.59L529.78 318.85C530.989 321.113 532.754 323.03 534.91 324.42C537.305 325.787 540.119 326.222 542.815 325.643C545.511 325.063 547.898 323.51 549.52 321.28C550.52 319.94 551.34 316.98 552.63 316.03C553.371 316.129 554.095 316.331 554.78 316.63C555.333 316.963 555.818 317.397 556.21 317.91C556.303 320.023 556.561 322.126 556.98 324.2C556.746 330.607 556.954 337.022 557.6 343.4C558.89 354.51 562.11 367.4 571.6 374.4C574.94 376.87 579.08 372.81 578.21 369.32C576.403 362.169 575.067 354.906 574.21 347.58C574.05 346.15 573.1 337.43 573.45 332.04C573.589 331.567 573.683 331.081 573.73 330.59C575.482 332.767 577.434 334.776 579.56 336.59L579.81 336.88V336.83C580.3 337.24 580.81 337.66 581.29 338.05C588.43 343.54 595.56 332.3 590.38 326.27L581.91 316.4C581.1 314.96 580.36 313.49 579.67 312.05C578.01 308.62 575.21 303.65 575.14 299.31L577.14 298.4C579.153 297.489 581.103 296.446 582.98 295.28L584.27 295.84C589.57 298.05 594.52 300.29 600.38 300.26C606.43 300.26 609.25 294 606.86 288.98C604.98 284.98 601.86 282.13 598.86 279.15C600.366 276.647 601.68 274.032 602.79 271.33C603.573 269.422 604.241 267.468 604.79 265.48C607.79 264.54 610.99 263.92 613.7 263.21C620.22 261.52 626.8 260.12 633.43 258.96C634.521 258.774 635.543 258.3 636.389 257.586C637.234 256.872 637.874 255.944 638.24 254.9C643.671 253.569 649.001 251.855 654.19 249.77H654.29L655.37 249.34C660.37 247.19 656.52 240.34 651.9 241.11C646.149 242.121 640.451 243.419 634.83 245C634.383 244.793 633.913 244.639 633.43 244.54C628.076 243.561 622.581 243.67 617.27 244.86C614.21 245.45 610.69 246.57 607.32 246.7C607.32 245.12 607.37 243.55 607.32 241.98C610.17 240.84 613.02 239.69 615.86 238.5C620.36 236.61 626.94 230.96 620.68 226.5C618.79 225.15 616.33 225.07 613.95 225.17C616.141 222.917 618.74 221.101 621.61 219.82C625.06 218.49 628.55 217.24 631.97 215.94C636.39 215.092 640.691 213.712 644.78 211.83C645.45 211.51 646.11 211.14 646.78 210.76L660.18 206C668.43 203.16 666.57 192.11 658.18 191.27Z" fill="#FF9CB1"/>
<path d="M604.91 307.33C599.35 305.66 596.97 314.33 602.52 316.01C609.513 318.103 615.789 322.094 620.65 327.54C624.55 331.84 630.9 325.46 627.01 321.18C621.052 314.625 613.407 309.834 604.91 307.33Z" fill="#FF9CB1"/>
<path d="M511.12 329.8C511.01 330.39 510.92 330.99 510.82 331.59C505.89 336.1 500.3 341.59 497.58 347.59C495.4 352.41 496.58 358.76 502.21 360.41C514.93 364.14 517.8 345.21 519.31 335.32C519.51 334.759 519.602 334.165 519.58 333.57C519.65 333.09 519.72 332.64 519.8 332.24C520.8 326.53 512.13 324.1 511.12 329.8Z" fill="#FF9CB1"/>
</g>
<g clip-path="url(#clip1_13_16)">
<path d="M432.743 268.9C428.384 268.462 424.782 270.578 421.139 272.615L412.057 275.74C410.318 276.085 408.573 276.403 406.868 276.828C405.926 277.073 404.958 277.339 403.969 277.637C403.637 272.097 395.59 273.849 389.943 275.581C388.233 273.558 386.319 271.717 384.231 270.087C385.502 266.881 387.181 263.853 389.227 261.077C394.01 254.303 397.732 246.979 393.871 238.818C392.737 236.45 389.187 235.693 387.057 237.034C380.303 241.286 376.104 247.37 373.284 254.224C373.138 253.925 372.992 253.62 372.853 253.302C371.705 250.648 370.139 248.73 367.485 247.503C365.007 246.438 362.335 245.896 359.637 245.911C359.01 240.594 358.788 235.238 358.973 229.888C359.166 224.262 350.62 223.154 349.201 228.561C347.257 235.965 347.363 243.482 347.469 251.039C347.21 251.604 346.818 252.098 346.328 252.479C346.028 252.701 345.676 252.84 345.306 252.884C344.908 251.676 344.53 250.469 344.158 249.261C342.599 244.153 333.762 244.776 334.386 250.588C334.432 251.039 334.498 251.477 334.571 251.915V251.995C334.76 253.089 335.042 254.166 335.414 255.212C334.029 255.395 332.726 255.97 331.659 256.871C329.436 257.866 327.386 259.14 326.709 261.515C324.201 259.279 319.59 259.127 318.602 262.889H318.436C317.487 263.126 316.606 263.58 315.862 264.216C315.265 264.024 314.689 263.773 314.143 263.466L313.075 262.895C312.929 262.716 312.777 262.537 312.637 262.358L296.761 242.308C293.258 237.883 285.86 243.635 288.945 248.339C296.21 259.418 304.301 269.933 313.148 279.793C313.321 279.979 313.487 280.172 313.659 280.364C313.248 281.067 312.876 281.784 312.511 282.514C309.758 283.283 306.819 284.345 305.771 286.919C305.49 287.714 305.376 288.558 305.438 289.398C305.5 290.239 305.735 291.057 306.129 291.802C306.676 292.776 307.292 293.71 307.973 294.595C307.31 296.227 306.434 297.647 305.081 297.773C304.795 297.773 304.497 297.72 304.152 297.667C303.842 297.612 303.524 297.626 303.221 297.71C302.918 297.794 302.637 297.945 302.4 298.151L301.85 298.019C300.098 297.627 298.227 300.009 299.912 301.336C300.691 301.943 301.519 302.484 302.387 302.955C298.745 302.636 294.936 302.742 291.566 302.504C288.653 302.298 285.734 302.066 282.815 301.94C280.825 301.853 277.978 301.276 276.26 302.603C273.998 304.341 274.8 306.876 276.506 308.455C277.998 310.525 281.462 311.109 283.711 311.255C287.409 311.514 291.122 311.492 294.817 311.188C299.084 311.108 303.334 310.606 307.502 309.689C307.538 310.18 307.577 310.671 307.622 311.162C307.253 311.424 306.899 311.705 306.56 312.004C305.58 312.219 304.583 312.345 303.581 312.383C302.206 312.24 300.819 312.226 299.441 312.343C295.653 312.661 295.547 318.181 299.441 318.314C300.536 318.314 301.664 318.354 302.759 318.314L303.196 318.354C303.165 318.952 303.209 319.551 303.329 320.138C299.906 320.842 299.979 326.395 303.681 326.036C304.802 325.93 305.923 325.864 307.051 325.851C306.993 326.217 306.977 326.589 307.005 326.959C306.772 327.098 306.534 327.231 306.308 327.377C301.863 329.214 297.584 331.696 293.344 334.078C289.808 334.303 286.564 335.285 284.606 338.821C283.279 341.223 285.456 343.691 287.977 343.207C291.356 342.462 294.656 341.391 297.829 340.009C298.121 340.009 298.406 340.009 298.672 340.009C301.203 339.949 303.718 339.597 306.169 338.961C307.83 338.539 309.465 338.021 311.065 337.408C312.75 337.02 314.487 336.91 316.207 337.083C317.549 337.232 318.868 337.544 320.134 338.012C320.701 338.21 321.249 338.456 321.773 338.748C321.15 340.281 320.261 341.767 319.617 343.227C318.489 345.814 317.414 348.428 316.432 351.075C314.921 355.199 313.621 359.398 312.538 363.655C311.227 366.73 310.433 370 310.189 373.334C309.448 374.987 309.088 376.785 309.134 378.596C309.241 381.402 313.274 382.862 314.701 380.102C315.952 377.669 317.262 375.265 318.628 372.89C319.489 372.477 320.223 371.84 320.751 371.045L328.05 360.43C328.642 360.488 329.239 360.386 329.779 360.134C330.318 359.882 330.779 359.489 331.115 358.997L336.522 350.677C336.635 350.896 336.734 351.122 336.86 351.341C337.835 353.027 339.415 354.28 341.279 354.844C342.351 355.116 343.473 355.124 344.549 354.868C345.624 354.611 346.622 354.097 347.456 353.371L347.555 353.543C348.357 355.045 349.529 356.316 350.959 357.239C352.548 358.146 354.415 358.435 356.204 358.05C357.992 357.666 359.576 356.635 360.652 355.156C361.315 354.267 361.859 352.303 362.715 351.672C363.207 351.738 363.687 351.872 364.142 352.071C364.508 352.292 364.83 352.58 365.09 352.92C365.152 354.322 365.323 355.717 365.601 357.093C365.446 361.343 365.584 365.6 366.013 369.831C366.868 377.202 369.005 385.754 375.301 390.398C377.517 392.037 380.264 389.344 379.686 387.028C378.487 382.283 377.601 377.465 377.033 372.605C376.926 371.656 376.296 365.87 376.528 362.294C376.621 361.98 376.683 361.658 376.714 361.332C377.877 362.777 379.172 364.11 380.582 365.313L380.748 365.506V365.472C381.073 365.744 381.411 366.023 381.73 366.282C386.467 369.924 391.197 362.467 387.761 358.466L382.141 351.918C381.604 350.963 381.113 349.987 380.655 349.032C379.554 346.756 377.696 343.459 377.65 340.579L378.977 339.976C380.312 339.371 381.606 338.68 382.851 337.906L383.707 338.277C387.223 339.744 390.507 341.23 394.395 341.21C398.409 341.21 400.28 337.057 398.694 333.726C397.447 331.072 395.377 329.181 393.387 327.204C394.386 325.543 395.258 323.809 395.994 322.016C396.514 320.75 396.957 319.454 397.321 318.135C399.311 317.511 401.435 317.1 403.233 316.629C407.558 315.507 411.924 314.579 416.323 313.809C417.046 313.686 417.724 313.371 418.285 312.897C418.847 312.424 419.271 311.808 419.514 311.115C423.117 310.232 426.653 309.095 430.096 307.712H430.162L430.879 307.426C434.196 306 431.642 301.455 428.577 301.966C424.761 302.637 420.981 303.498 417.251 304.547C416.955 304.41 416.643 304.307 416.323 304.242C412.771 303.592 409.124 303.665 405.601 304.454C403.571 304.846 401.236 305.589 399 305.675C399 304.627 399.033 303.585 399 302.543C400.891 301.787 402.781 301.024 404.666 300.235C407.651 298.981 412.017 295.232 407.863 292.273C406.61 291.377 404.977 291.324 403.398 291.391C404.852 289.896 406.577 288.691 408.48 287.841C410.769 286.959 413.085 286.13 415.354 285.267C418.286 284.704 421.14 283.789 423.853 282.54C424.297 282.328 424.735 282.082 425.18 281.83L434.07 278.672C439.544 276.788 438.31 269.457 432.743 268.9Z" fill="#9CA6FF"/>
<path d="M397.401 345.9C393.712 344.792 392.133 350.545 395.815 351.659C400.455 353.048 404.618 355.696 407.844 359.309C410.431 362.162 414.644 357.929 412.063 355.089C408.11 350.741 403.038 347.562 397.401 345.9Z" fill="#9CA6FF"/>
<path d="M335.175 360.808C335.102 361.2 335.042 361.598 334.976 361.996C331.705 364.988 327.996 368.63 326.192 372.611C324.745 375.809 325.528 380.022 329.264 381.117C337.703 383.591 339.607 371.032 340.609 364.471C340.741 364.098 340.802 363.704 340.788 363.31C340.834 362.991 340.881 362.693 340.934 362.427C341.597 358.639 335.845 357.027 335.175 360.808Z" fill="#9CA6FF"/>
</g>
<path d="M237.113 284.582C235.357 280.293 231.591 277.978 227.879 275.588L220.448 268.655C219.262 267.202 218.098 265.73 216.854 264.348C216.157 263.59 215.428 262.817 214.658 262.042C219.668 258.98 214.035 252.332 209.612 247.917C210.652 245.315 211.421 242.612 211.907 239.852C215.533 239.447 219.196 239.511 222.805 240.044C231.51 241.148 240.201 240.987 245.907 233.326C247.556 231.09 246.499 227.398 244.189 226.074C236.862 221.877 229.092 220.976 221.289 221.746C221.495 221.461 221.708 221.173 221.936 220.885C223.845 218.494 224.859 216.079 224.687 212.99C224.45 210.145 223.63 207.38 222.276 204.867C226.931 201.641 231.825 198.773 236.915 196.288C242.266 193.673 239.057 185.14 233.3 186.5C225.417 188.361 218.448 192.194 211.441 196.047C210.784 196.085 210.129 195.965 209.529 195.696C209.173 195.527 208.868 195.267 208.643 194.943C209.574 193.971 210.514 193.018 211.457 192.071C215.455 188.077 210.483 180.131 205.363 183.601C204.965 183.868 204.589 184.148 204.216 184.433L204.142 184.473C203.213 185.193 202.347 185.991 201.554 186.858C200.696 185.655 199.511 184.724 198.139 184.174C196.106 182.592 193.897 181.31 191.342 181.857C192.185 178.404 190.037 174.02 186.032 174.965L185.95 174.81C185.257 174.041 184.395 173.444 183.431 173.065C183.314 172.412 183.262 171.75 183.278 171.087L183.281 169.806C183.375 169.58 183.467 169.349 183.565 169.13L194.409 144.339C196.803 138.868 187.755 134.814 184.893 140.033C178.152 152.323 172.348 165.104 167.53 178.268C167.443 178.521 167.345 178.772 167.251 179.028C166.39 178.993 165.536 179.002 164.673 179.024C162.586 176.834 160.135 174.615 157.209 174.915C156.327 175.047 155.482 175.361 154.728 175.836C153.973 176.311 153.326 176.937 152.825 177.675C152.187 178.67 151.621 179.709 151.132 180.786C149.278 180.976 147.516 180.864 146.726 179.662C146.585 179.395 146.486 179.09 146.364 178.741C146.262 178.425 146.09 178.135 145.861 177.893C145.633 177.652 145.352 177.465 145.042 177.346L144.892 176.765C144.388 174.935 141.233 174.37 140.831 176.603C140.651 177.632 140.556 178.675 140.548 179.719C139.036 176.158 137.045 172.653 135.594 169.386C134.339 166.563 133.106 163.721 131.774 160.931C130.866 159.028 129.991 156.083 127.898 155.137C125.151 153.887 123.182 155.895 122.553 158.273C121.361 160.695 122.536 164.221 123.517 166.394C125.111 169.979 126.976 173.436 129.096 176.737C131.291 180.684 133.87 184.404 136.797 187.843C136.356 188.12 135.918 188.401 135.481 188.686C135.053 188.472 134.614 188.281 134.166 188.113C133.479 187.304 132.866 186.436 132.333 185.518C131.783 184.162 131.107 182.86 130.314 181.631C128.135 178.25 122.925 180.892 124.736 184.597C125.28 185.619 125.803 186.693 126.384 187.696L126.564 188.124C125.99 188.392 125.451 188.732 124.963 189.135C122.605 186.286 117.454 189.113 119.627 192.393C120.283 193.388 120.902 194.402 121.475 195.449C121.104 195.577 120.749 195.747 120.417 195.956C120.171 195.809 119.929 195.651 119.68 195.513C115.755 192.273 111.312 189.508 106.981 186.731C105.013 183.539 102.485 180.996 98.2089 180.924C95.3061 180.878 94.0813 184.137 95.7861 186.251C98.1609 189.039 100.8 191.589 103.667 193.867C103.812 194.14 103.954 194.406 104.086 194.654C105.399 196.989 106.977 199.164 108.789 201.137C110.008 202.48 111.304 203.749 112.672 204.94C113.871 206.321 114.837 207.889 115.53 209.582C116.057 210.91 116.421 212.297 116.613 213.713C116.709 214.34 116.752 214.975 116.739 215.609C114.997 215.788 113.167 215.696 111.484 215.82C108.507 216.051 105.531 216.346 102.57 216.743C97.9664 217.38 93.3985 218.251 88.8839 219.353C85.3599 219.656 81.9102 220.539 78.6743 221.967C76.7623 222.096 74.9036 222.653 73.2353 223.595C70.6662 225.089 71.3063 229.582 74.5933 229.544C77.4876 229.505 80.3837 229.534 83.2815 229.631C84.0946 230.23 85.0541 230.598 86.0591 230.698L99.6011 232.243C99.8411 232.825 100.233 233.332 100.737 233.711C101.24 234.089 101.836 234.325 102.462 234.394L112.921 235.313C112.772 235.527 112.611 235.732 112.469 235.959C111.378 237.707 110.992 239.805 111.391 241.827C111.67 242.963 112.219 244.016 112.993 244.893C113.767 245.771 114.742 246.447 115.835 246.866L115.724 247.044C114.72 248.539 114.113 250.265 113.962 252.059C113.904 253.994 114.562 255.882 115.809 257.362C117.057 258.842 118.806 259.81 120.723 260.08C121.883 260.258 123.988 259.791 125.002 260.277C125.185 260.769 125.298 261.284 125.339 261.808C125.314 262.26 125.205 262.704 125.016 263.116C123.737 263.87 122.519 264.723 121.372 265.666C117.324 267.633 113.416 269.875 109.676 272.378C103.215 276.839 96.2867 283.082 95.0756 291.271C94.6453 294.155 98.5261 295.383 100.403 293.694C104.239 290.217 108.3 286.996 112.559 284.05C113.392 283.48 118.484 280.017 121.94 278.458C122.279 278.388 122.611 278.286 122.931 278.154C122.159 279.957 121.557 281.829 121.134 283.744L121.036 283.995L121.067 283.978C120.975 284.417 120.882 284.872 120.799 285.298C119.749 291.532 129.066 292.247 131.096 287.05L134.422 278.547C135.048 277.571 135.715 276.628 136.38 275.725C137.959 273.566 140.116 270.193 142.783 268.719L144.006 269.659C145.235 270.606 146.524 271.471 147.865 272.25L147.943 273.234C148.32 277.248 148.563 281.054 150.513 284.676C152.506 288.426 157.316 288.111 159.639 284.975C161.499 282.491 162.237 279.618 163.096 276.777C165.144 276.885 167.197 276.838 169.238 276.636C170.678 276.492 172.109 276.262 173.523 275.947C175.094 277.497 176.533 279.276 177.866 280.722C181.062 284.206 184.098 287.823 187.002 291.55C187.477 292.165 188.108 292.642 188.829 292.931C189.55 293.22 190.336 293.31 191.104 293.193C193.719 296.121 196.538 298.859 199.54 301.388L199.573 301.45L200.195 301.978C203.176 304.369 206.153 299.725 204.153 297.115C201.631 293.883 198.949 290.78 196.116 287.817C196.097 287.472 196.038 287.129 195.94 286.798C194.782 283.157 192.904 279.786 190.416 276.887C189.042 275.185 187.188 273.372 185.996 271.326C186.976 270.806 187.965 270.319 188.922 269.771C190.568 271.162 192.22 272.549 193.893 273.917C196.548 276.083 202.218 278.3 202.919 272.95C203.133 271.334 202.372 269.783 201.526 268.34C203.644 268.956 205.626 269.969 207.366 271.325C209.327 273.025 211.252 274.776 213.185 276.467C215.168 278.927 217.441 281.139 219.954 283.053C220.373 283.362 220.82 283.65 221.276 283.94L228.643 290.676C233.122 294.854 239.358 290.059 237.113 284.582Z" fill="#FDFF9C"/>
<path d="M147.623 289.814C146.826 285.817 140.668 287.199 141.456 291.193C142.463 296.217 142.057 301.422 140.284 306.23C138.904 310.064 144.951 311.897 146.322 308.076C148.421 302.223 148.871 295.905 147.623 289.814Z" fill="#FDFF9C"/>
<path d="M102.787 239.087C102.385 239.214 101.984 239.356 101.579 239.491C97.1589 237.922 91.914 236.266 87.2987 236.558C83.5929 236.795 80.046 239.619 80.8787 243.653C82.7588 252.766 95.4375 248.306 102.065 245.983C102.479 245.922 102.877 245.783 103.239 245.573C103.559 245.458 103.861 245.354 104.135 245.271C108.004 244.009 106.653 237.835 102.787 239.087Z" fill="#FDFF9C"/>
<g filter="url(#filter0_d_13_16)">
<mask id="path-10-outside-1_13_16" maskUnits="userSpaceOnUse" x="135" y="208.79" width="431" height="103" fill="black">
<rect fill="white" x="135" y="208.79" width="431" height="103"/>
<path d="M187.494 246.172C187.494 249.216 187.318 251.986 186.966 254.483C186.639 256.942 186.111 259.205 185.382 261.273C184.653 263.341 183.711 265.253 182.554 267.009C181.398 268.765 180.003 270.443 178.369 272.042L187.343 296.859L170.375 302.01L164.568 277.076L159.893 277.31L159.214 301.659H143C143.126 292.762 143.239 283.905 143.339 275.086C143.465 266.267 143.603 257.41 143.754 248.513C143.804 244.026 143.855 239.578 143.905 235.168C143.955 230.759 144.056 226.311 144.207 221.823C145.966 220.809 147.701 219.97 149.41 219.307C151.12 218.643 152.829 218.136 154.538 217.785C156.273 217.395 158.02 217.141 159.779 217.024C161.564 216.868 163.387 216.79 165.247 216.79C168.113 216.79 170.878 217.414 173.542 218.663C176.232 219.872 178.608 221.706 180.669 224.165C182.73 226.623 184.377 229.686 185.609 233.354C186.865 237.022 187.494 241.294 187.494 246.172ZM170.601 248.045C170.601 246.406 170.45 244.904 170.149 243.538C169.872 242.172 169.445 241.002 168.867 240.026C168.314 239.012 167.61 238.231 166.755 237.685C165.926 237.1 164.945 236.807 163.814 236.807C163.311 236.807 162.821 236.866 162.344 236.983C161.866 237.061 161.401 237.197 160.948 237.392L160.345 259.166H161.25C162.331 259.166 163.424 258.951 164.531 258.522C165.662 258.093 166.667 257.429 167.547 256.532C168.452 255.634 169.181 254.483 169.734 253.079C170.312 251.674 170.601 249.996 170.601 248.045Z"/>
<path d="M235.08 220.185C233.949 233.92 232.981 247.596 232.176 261.214C231.372 274.793 230.605 288.47 229.876 302.244L214.417 304L215.095 294.986C214.592 295.884 214.002 296.664 213.323 297.327C212.669 297.991 211.966 298.537 211.211 298.966C210.457 299.357 209.678 299.649 208.874 299.844C208.069 300 207.303 300.059 206.574 300.02C204.864 299.981 203.255 299.474 201.747 298.498C200.239 297.484 198.856 296.157 197.599 294.518C196.342 292.84 195.211 290.909 194.206 288.724C193.2 286.499 192.346 284.178 191.642 281.758C190.963 279.3 190.435 276.803 190.058 274.267C189.706 271.73 189.53 269.272 189.53 266.892C189.53 263.38 189.568 259.751 189.643 256.005C189.744 252.22 189.907 248.435 190.133 244.65C190.36 240.865 190.649 237.119 191.001 233.412C191.378 229.705 191.843 226.155 192.396 222.76C195.463 222.994 198.542 223.209 201.634 223.404C204.726 223.599 207.805 223.657 210.872 223.579C210.294 226.974 209.716 230.388 209.138 233.822C208.585 237.217 208.082 240.651 207.629 244.123C207.177 247.557 206.812 251.011 206.536 254.483C206.259 257.956 206.121 261.468 206.121 265.019C206.121 265.838 206.146 267.009 206.196 268.531C206.247 270.052 206.372 271.555 206.574 273.037C206.8 274.52 207.127 275.827 207.554 276.959C208.006 278.052 208.635 278.598 209.439 278.598C210.394 278.598 211.249 277.973 212.003 276.725C212.757 275.437 213.424 273.72 214.002 271.574C214.58 269.428 215.07 266.95 215.472 264.141C215.9 261.331 216.252 258.405 216.528 255.361C216.83 252.279 217.069 249.177 217.245 246.055C217.42 242.933 217.546 240.007 217.622 237.275C217.722 234.505 217.785 232.027 217.81 229.842C217.86 227.657 217.886 225.96 217.886 224.75C217.886 223.97 217.873 223.209 217.848 222.467C217.823 221.726 217.785 220.965 217.735 220.185C219.369 220.263 220.99 220.321 222.599 220.36C224.208 220.399 225.829 220.419 227.463 220.419C228.72 220.419 229.977 220.419 231.234 220.419C232.516 220.38 233.798 220.302 235.08 220.185Z"/>
<path d="M303.253 262.912C303.253 268.492 303.14 274.052 302.914 279.593C302.688 285.134 302.424 290.694 302.122 296.274L282.741 297.679C283.319 290.889 283.835 284.1 284.287 277.31C284.765 270.482 285.003 263.653 285.003 256.825C285.003 256.395 284.991 255.654 284.966 254.6C284.941 253.508 284.89 252.279 284.815 250.913C284.765 249.547 284.677 248.143 284.551 246.699C284.45 245.216 284.3 243.87 284.098 242.66C283.923 241.412 283.696 240.397 283.42 239.617C283.143 238.836 282.816 238.446 282.439 238.446C281.56 238.446 280.868 238.973 280.366 240.026C279.863 241.041 279.486 242.27 279.234 243.714C279.008 245.157 278.87 246.64 278.82 248.162C278.769 249.645 278.744 250.854 278.744 251.791C278.744 253.43 278.769 255.069 278.82 256.707C278.87 258.346 278.895 260.024 278.895 261.741C278.895 267.789 278.794 273.818 278.593 279.827C278.417 285.836 278.191 291.865 277.915 297.913L260.042 298.966C260.62 292.177 261.123 285.407 261.55 278.656C262.002 271.867 262.229 265.058 262.229 258.229C262.229 257.8 262.216 257.02 262.191 255.888C262.166 254.756 262.115 253.488 262.04 252.084C261.99 250.679 261.902 249.216 261.776 247.694C261.65 246.172 261.487 244.787 261.286 243.538C261.11 242.25 260.884 241.197 260.607 240.378C260.331 239.558 259.991 239.148 259.589 239.148C258.961 239.148 258.433 239.539 258.005 240.319C257.578 241.06 257.226 242.036 256.95 243.245C256.698 244.455 256.497 245.801 256.346 247.284C256.221 248.728 256.12 250.152 256.045 251.557C255.994 252.962 255.957 254.269 255.932 255.478C255.932 256.649 255.919 257.527 255.894 258.112L255.064 300.839H236.06C236.462 294.245 236.865 287.631 237.267 280.998C237.694 274.364 238.059 267.75 238.36 261.156C238.687 254.522 238.951 247.889 239.152 241.255C239.353 234.622 239.454 227.989 239.454 221.355L257.402 220.185L257.327 226.974C257.88 225.882 258.508 224.789 259.212 223.696C259.916 222.565 260.657 221.57 261.437 220.711C262.241 219.814 263.083 219.092 263.963 218.546C264.868 217.999 265.798 217.726 266.753 217.726C267.985 217.726 269.091 217.882 270.072 218.195C271.052 218.468 271.932 218.955 272.711 219.658C273.515 220.36 274.219 221.336 274.823 222.584C275.426 223.794 275.954 225.335 276.406 227.208C277.211 225.842 278.015 224.574 278.82 223.404C279.649 222.233 280.516 221.238 281.421 220.419C282.326 219.56 283.307 218.897 284.362 218.429C285.418 217.96 286.587 217.726 287.869 217.726C290.308 217.726 292.381 218.468 294.091 219.95C295.8 221.394 297.22 223.326 298.352 225.745C299.508 228.164 300.4 230.935 301.029 234.056C301.682 237.178 302.173 240.417 302.499 243.772C302.826 247.128 303.027 250.464 303.103 253.781C303.203 257.098 303.253 260.141 303.253 262.912Z"/>
<path d="M350.613 281.758C350.613 284.997 350.223 287.787 349.444 290.128C348.69 292.469 347.672 294.46 346.39 296.098C345.108 297.737 343.625 299.083 341.941 300.137C340.281 301.151 338.547 301.951 336.737 302.537C334.927 303.122 333.105 303.512 331.27 303.707C329.46 303.902 327.763 304 326.179 304C324.621 304 322.999 303.902 321.315 303.707C319.656 303.551 317.997 303.259 316.338 302.829C314.679 302.4 313.045 301.834 311.436 301.132C309.827 300.391 308.306 299.474 306.873 298.381L306.798 222.994C308.206 222.097 309.701 221.297 311.285 220.594C312.869 219.853 314.478 219.248 316.111 218.78C317.771 218.273 319.417 217.902 321.051 217.668C322.685 217.395 324.269 217.258 325.802 217.258C327.587 217.258 329.384 217.434 331.194 217.785C333.029 218.136 334.789 218.721 336.473 219.541C338.157 220.36 339.728 221.433 341.186 222.76C342.644 224.048 343.914 225.647 344.995 227.559C346.101 229.471 346.956 231.696 347.559 234.232C348.187 236.768 348.502 239.695 348.502 243.011C348.502 245.196 348.3 247.245 347.898 249.157C347.496 251.069 346.918 252.786 346.164 254.308C345.41 255.83 344.492 257.137 343.411 258.229C342.33 259.283 341.111 260.063 339.754 260.57C341.388 261.234 342.871 262.209 344.203 263.497C345.56 264.785 346.704 266.345 347.634 268.179C348.59 270.013 349.319 272.081 349.821 274.384C350.349 276.686 350.613 279.144 350.613 281.758ZM331.458 248.396C331.458 247.265 331.307 246.309 331.006 245.528C330.704 244.709 330.327 244.045 329.874 243.538C329.447 243.031 328.969 242.66 328.442 242.426C327.939 242.192 327.486 242.075 327.084 242.075C326.581 242.075 326.091 242.192 325.614 242.426C325.136 242.66 324.671 242.933 324.218 243.245L323.992 256.239C324.57 256.239 325.287 256.161 326.141 256.005C326.996 255.849 327.813 255.517 328.592 255.01C329.397 254.464 330.076 253.683 330.629 252.669C331.182 251.615 331.458 250.191 331.458 248.396ZM326.104 267.477C325.375 267.477 324.671 267.594 323.992 267.828L323.841 281.173C324.218 281.29 324.583 281.407 324.935 281.524C325.312 281.602 325.676 281.641 326.028 281.641C326.556 281.641 327.134 281.563 327.763 281.407C328.391 281.212 328.982 280.861 329.535 280.354C330.088 279.807 330.541 279.086 330.893 278.188C331.27 277.291 331.458 276.1 331.458 274.618C331.458 273.135 331.27 271.925 330.893 270.989C330.541 270.052 330.101 269.33 329.573 268.823C329.045 268.277 328.467 267.926 327.838 267.77C327.21 267.575 326.632 267.477 326.104 267.477Z"/>
<path d="M385.718 271.574L384.134 297.562L352.385 301.425L353.592 217.843H373.199L370.409 271.574H385.718Z"/>
<path d="M429.571 255.303C429.571 258.697 429.42 262.092 429.118 265.487C424.82 265.916 420.547 266.619 416.298 267.594C412.05 268.531 407.802 269.467 403.553 270.404C404.207 273.213 405.225 275.457 406.608 277.135C408.015 278.812 409.687 279.651 411.623 279.651C412.628 279.651 413.722 279.359 414.903 278.773C416.11 278.188 417.304 277.466 418.485 276.608C419.667 275.71 420.798 274.754 421.879 273.74C422.96 272.725 423.89 271.808 424.669 270.989L422.859 297.562C421.879 298.732 420.81 299.727 419.654 300.547C418.523 301.366 417.341 302.029 416.11 302.537C414.878 303.044 413.634 303.415 412.377 303.649C411.12 303.883 409.888 304 408.681 304C406.193 304 403.918 303.473 401.857 302.42C399.795 301.366 397.922 299.903 396.238 298.03C394.579 296.118 393.121 293.874 391.864 291.299C390.607 288.724 389.564 285.914 388.735 282.87C387.905 279.827 387.277 276.608 386.849 273.213C386.422 269.818 386.208 266.384 386.208 262.912C386.208 259.283 386.422 255.654 386.849 252.025C387.277 248.396 387.918 244.904 388.772 241.548C389.652 238.192 390.746 235.09 392.053 232.242C393.385 229.354 394.931 226.837 396.691 224.691C398.45 222.545 400.436 220.867 402.648 219.658C404.886 218.448 407.349 217.843 410.039 217.843C412.276 217.843 414.312 218.331 416.147 219.307C418.008 220.243 419.654 221.57 421.087 223.287C422.545 224.965 423.802 226.974 424.858 229.315C425.939 231.656 426.818 234.232 427.497 237.041C428.201 239.812 428.716 242.758 429.043 245.879C429.395 248.962 429.571 252.103 429.571 255.303ZM414.488 252.259C414.488 251.167 414.413 250.055 414.262 248.923C414.111 247.752 413.86 246.699 413.508 245.762C413.181 244.826 412.741 244.065 412.188 243.48C411.635 242.855 410.944 242.543 410.114 242.543C409.109 242.543 408.216 242.972 407.437 243.831C406.683 244.65 406.029 245.704 405.476 246.991C404.923 248.24 404.471 249.606 404.119 251.089C403.767 252.571 403.503 253.937 403.327 255.186L414.488 253.547V252.259Z"/>
<path d="M491.071 246.289C491.071 250.074 490.706 253.43 489.977 256.356C489.248 259.283 488.243 261.839 486.961 264.024C485.704 266.209 484.221 268.062 482.511 269.584C480.802 271.106 478.967 272.355 477.006 273.33C475.07 274.267 473.059 274.969 470.973 275.437C468.887 275.866 466.838 276.1 464.827 276.14V303.415H447.255C447.255 294.479 447.268 285.582 447.293 276.725C447.318 267.867 447.356 258.932 447.406 249.918C447.457 245.157 447.469 240.397 447.444 235.637C447.419 230.876 447.482 226.077 447.632 221.238C450.85 219.755 454.068 218.643 457.285 217.902C460.503 217.16 463.821 216.79 467.24 216.79C469.176 216.79 471.111 217.043 473.047 217.551C474.982 218.019 476.83 218.78 478.59 219.833C480.374 220.887 482.021 222.214 483.529 223.813C485.063 225.374 486.382 227.247 487.488 229.432C488.595 231.617 489.462 234.115 490.09 236.924C490.744 239.695 491.071 242.816 491.071 246.289ZM474.329 248.279C474.329 245.743 473.826 243.772 472.821 242.368C471.84 240.924 470.558 240.202 468.974 240.202C468.447 240.202 467.894 240.28 467.315 240.436C466.762 240.553 466.234 240.709 465.732 240.904L465.279 257.995C465.631 258.073 465.971 258.112 466.297 258.112C466.624 258.112 466.963 258.112 467.315 258.112C468.22 258.112 469.088 257.878 469.917 257.41C470.772 256.942 471.526 256.278 472.18 255.42C472.833 254.522 473.348 253.488 473.726 252.318C474.128 251.108 474.329 249.762 474.329 248.279Z"/>
<path d="M512.827 220.185L510.188 299.903L494.276 301.19L492.767 221.823L512.827 220.185Z"/>
<path d="M558 255.303C558 258.697 557.849 262.092 557.548 265.487C553.249 265.916 548.976 266.619 544.727 267.594C540.479 268.531 536.231 269.467 531.982 270.404C532.636 273.213 533.654 275.457 535.037 277.135C536.444 278.812 538.116 279.651 540.052 279.651C541.057 279.651 542.151 279.359 543.332 278.773C544.539 278.188 545.733 277.466 546.914 276.608C548.096 275.71 549.227 274.754 550.308 273.74C551.389 272.725 552.319 271.808 553.098 270.989L551.288 297.562C550.308 298.732 549.239 299.727 548.083 300.547C546.952 301.366 545.77 302.029 544.539 302.537C543.307 303.044 542.063 303.415 540.806 303.649C539.549 303.883 538.317 304 537.111 304C534.622 304 532.347 303.473 530.286 302.42C528.224 301.366 526.352 299.903 524.667 298.03C523.008 296.118 521.55 293.874 520.293 291.299C519.036 288.724 517.993 285.914 517.164 282.87C516.334 279.827 515.706 276.608 515.278 273.213C514.851 269.818 514.637 266.384 514.637 262.912C514.637 259.283 514.851 255.654 515.278 252.025C515.706 248.396 516.347 244.904 517.201 241.548C518.081 238.192 519.175 235.09 520.482 232.242C521.814 229.354 523.36 226.837 525.12 224.691C526.879 222.545 528.865 220.867 531.077 219.658C533.315 218.448 535.778 217.843 538.468 217.843C540.705 217.843 542.741 218.331 544.576 219.307C546.437 220.243 548.083 221.57 549.516 223.287C550.974 224.965 552.231 226.974 553.287 229.315C554.368 231.656 555.247 234.232 555.926 237.041C556.63 239.812 557.145 242.758 557.472 245.879C557.824 248.962 558 252.103 558 255.303ZM542.917 252.259C542.917 251.167 542.842 250.055 542.691 248.923C542.54 247.752 542.289 246.699 541.937 245.762C541.61 244.826 541.17 244.065 540.617 243.48C540.064 242.855 539.373 242.543 538.543 242.543C537.538 242.543 536.645 242.972 535.866 243.831C535.112 244.65 534.458 245.704 533.905 246.991C533.352 248.24 532.9 249.606 532.548 251.089C532.196 252.571 531.932 253.937 531.756 255.186L542.917 253.547V252.259Z"/>
</mask>
<path d="M187.494 246.172C187.494 249.216 187.318 251.986 186.966 254.483C186.639 256.942 186.111 259.205 185.382 261.273C184.653 263.341 183.711 265.253 182.554 267.009C181.398 268.765 180.003 270.443 178.369 272.042L187.343 296.859L170.375 302.01L164.568 277.076L159.893 277.31L159.214 301.659H143C143.126 292.762 143.239 283.905 143.339 275.086C143.465 266.267 143.603 257.41 143.754 248.513C143.804 244.026 143.855 239.578 143.905 235.168C143.955 230.759 144.056 226.311 144.207 221.823C145.966 220.809 147.701 219.97 149.41 219.307C151.12 218.643 152.829 218.136 154.538 217.785C156.273 217.395 158.02 217.141 159.779 217.024C161.564 216.868 163.387 216.79 165.247 216.79C168.113 216.79 170.878 217.414 173.542 218.663C176.232 219.872 178.608 221.706 180.669 224.165C182.73 226.623 184.377 229.686 185.609 233.354C186.865 237.022 187.494 241.294 187.494 246.172ZM170.601 248.045C170.601 246.406 170.45 244.904 170.149 243.538C169.872 242.172 169.445 241.002 168.867 240.026C168.314 239.012 167.61 238.231 166.755 237.685C165.926 237.1 164.945 236.807 163.814 236.807C163.311 236.807 162.821 236.866 162.344 236.983C161.866 237.061 161.401 237.197 160.948 237.392L160.345 259.166H161.25C162.331 259.166 163.424 258.951 164.531 258.522C165.662 258.093 166.667 257.429 167.547 256.532C168.452 255.634 169.181 254.483 169.734 253.079C170.312 251.674 170.601 249.996 170.601 248.045Z" fill="white"/>
<path d="M235.08 220.185C233.949 233.92 232.981 247.596 232.176 261.214C231.372 274.793 230.605 288.47 229.876 302.244L214.417 304L215.095 294.986C214.592 295.884 214.002 296.664 213.323 297.327C212.669 297.991 211.966 298.537 211.211 298.966C210.457 299.357 209.678 299.649 208.874 299.844C208.069 300 207.303 300.059 206.574 300.02C204.864 299.981 203.255 299.474 201.747 298.498C200.239 297.484 198.856 296.157 197.599 294.518C196.342 292.84 195.211 290.909 194.206 288.724C193.2 286.499 192.346 284.178 191.642 281.758C190.963 279.3 190.435 276.803 190.058 274.267C189.706 271.73 189.53 269.272 189.53 266.892C189.53 263.38 189.568 259.751 189.643 256.005C189.744 252.22 189.907 248.435 190.133 244.65C190.36 240.865 190.649 237.119 191.001 233.412C191.378 229.705 191.843 226.155 192.396 222.76C195.463 222.994 198.542 223.209 201.634 223.404C204.726 223.599 207.805 223.657 210.872 223.579C210.294 226.974 209.716 230.388 209.138 233.822C208.585 237.217 208.082 240.651 207.629 244.123C207.177 247.557 206.812 251.011 206.536 254.483C206.259 257.956 206.121 261.468 206.121 265.019C206.121 265.838 206.146 267.009 206.196 268.531C206.247 270.052 206.372 271.555 206.574 273.037C206.8 274.52 207.127 275.827 207.554 276.959C208.006 278.052 208.635 278.598 209.439 278.598C210.394 278.598 211.249 277.973 212.003 276.725C212.757 275.437 213.424 273.72 214.002 271.574C214.58 269.428 215.07 266.95 215.472 264.141C215.9 261.331 216.252 258.405 216.528 255.361C216.83 252.279 217.069 249.177 217.245 246.055C217.42 242.933 217.546 240.007 217.622 237.275C217.722 234.505 217.785 232.027 217.81 229.842C217.86 227.657 217.886 225.96 217.886 224.75C217.886 223.97 217.873 223.209 217.848 222.467C217.823 221.726 217.785 220.965 217.735 220.185C219.369 220.263 220.99 220.321 222.599 220.36C224.208 220.399 225.829 220.419 227.463 220.419C228.72 220.419 229.977 220.419 231.234 220.419C232.516 220.38 233.798 220.302 235.08 220.185Z" fill="white"/>
<path d="M303.253 262.912C303.253 268.492 303.14 274.052 302.914 279.593C302.688 285.134 302.424 290.694 302.122 296.274L282.741 297.679C283.319 290.889 283.835 284.1 284.287 277.31C284.765 270.482 285.003 263.653 285.003 256.825C285.003 256.395 284.991 255.654 284.966 254.6C284.941 253.508 284.89 252.279 284.815 250.913C284.765 249.547 284.677 248.143 284.551 246.699C284.45 245.216 284.3 243.87 284.098 242.66C283.923 241.412 283.696 240.397 283.42 239.617C283.143 238.836 282.816 238.446 282.439 238.446C281.56 238.446 280.868 238.973 280.366 240.026C279.863 241.041 279.486 242.27 279.234 243.714C279.008 245.157 278.87 246.64 278.82 248.162C278.769 249.645 278.744 250.854 278.744 251.791C278.744 253.43 278.769 255.069 278.82 256.707C278.87 258.346 278.895 260.024 278.895 261.741C278.895 267.789 278.794 273.818 278.593 279.827C278.417 285.836 278.191 291.865 277.915 297.913L260.042 298.966C260.62 292.177 261.123 285.407 261.55 278.656C262.002 271.867 262.229 265.058 262.229 258.229C262.229 257.8 262.216 257.02 262.191 255.888C262.166 254.756 262.115 253.488 262.04 252.084C261.99 250.679 261.902 249.216 261.776 247.694C261.65 246.172 261.487 244.787 261.286 243.538C261.11 242.25 260.884 241.197 260.607 240.378C260.331 239.558 259.991 239.148 259.589 239.148C258.961 239.148 258.433 239.539 258.005 240.319C257.578 241.06 257.226 242.036 256.95 243.245C256.698 244.455 256.497 245.801 256.346 247.284C256.221 248.728 256.12 250.152 256.045 251.557C255.994 252.962 255.957 254.269 255.932 255.478C255.932 256.649 255.919 257.527 255.894 258.112L255.064 300.839H236.06C236.462 294.245 236.865 287.631 237.267 280.998C237.694 274.364 238.059 267.75 238.36 261.156C238.687 254.522 238.951 247.889 239.152 241.255C239.353 234.622 239.454 227.989 239.454 221.355L257.402 220.185L257.327 226.974C257.88 225.882 258.508 224.789 259.212 223.696C259.916 222.565 260.657 221.57 261.437 220.711C262.241 219.814 263.083 219.092 263.963 218.546C264.868 217.999 265.798 217.726 266.753 217.726C267.985 217.726 269.091 217.882 270.072 218.195C271.052 218.468 271.932 218.955 272.711 219.658C273.515 220.36 274.219 221.336 274.823 222.584C275.426 223.794 275.954 225.335 276.406 227.208C277.211 225.842 278.015 224.574 278.82 223.404C279.649 222.233 280.516 221.238 281.421 220.419C282.326 219.56 283.307 218.897 284.362 218.429C285.418 217.96 286.587 217.726 287.869 217.726C290.308 217.726 292.381 218.468 294.091 219.95C295.8 221.394 297.22 223.326 298.352 225.745C299.508 228.164 300.4 230.935 301.029 234.056C301.682 237.178 302.173 240.417 302.499 243.772C302.826 247.128 303.027 250.464 303.103 253.781C303.203 257.098 303.253 260.141 303.253 262.912Z" fill="white"/>
<path d="M350.613 281.758C350.613 284.997 350.223 287.787 349.444 290.128C348.69 292.469 347.672 294.46 346.39 296.098C345.108 297.737 343.625 299.083 341.941 300.137C340.281 301.151 338.547 301.951 336.737 302.537C334.927 303.122 333.105 303.512 331.27 303.707C329.46 303.902 327.763 304 326.179 304C324.621 304 322.999 303.902 321.315 303.707C319.656 303.551 317.997 303.259 316.338 302.829C314.679 302.4 313.045 301.834 311.436 301.132C309.827 300.391 308.306 299.474 306.873 298.381L306.798 222.994C308.206 222.097 309.701 221.297 311.285 220.594C312.869 219.853 314.478 219.248 316.111 218.78C317.771 218.273 319.417 217.902 321.051 217.668C322.685 217.395 324.269 217.258 325.802 217.258C327.587 217.258 329.384 217.434 331.194 217.785C333.029 218.136 334.789 218.721 336.473 219.541C338.157 220.36 339.728 221.433 341.186 222.76C342.644 224.048 343.914 225.647 344.995 227.559C346.101 229.471 346.956 231.696 347.559 234.232C348.187 236.768 348.502 239.695 348.502 243.011C348.502 245.196 348.3 247.245 347.898 249.157C347.496 251.069 346.918 252.786 346.164 254.308C345.41 255.83 344.492 257.137 343.411 258.229C342.33 259.283 341.111 260.063 339.754 260.57C341.388 261.234 342.871 262.209 344.203 263.497C345.56 264.785 346.704 266.345 347.634 268.179C348.59 270.013 349.319 272.081 349.821 274.384C350.349 276.686 350.613 279.144 350.613 281.758ZM331.458 248.396C331.458 247.265 331.307 246.309 331.006 245.528C330.704 244.709 330.327 244.045 329.874 243.538C329.447 243.031 328.969 242.66 328.442 242.426C327.939 242.192 327.486 242.075 327.084 242.075C326.581 242.075 326.091 242.192 325.614 242.426C325.136 242.66 324.671 242.933 324.218 243.245L323.992 256.239C324.57 256.239 325.287 256.161 326.141 256.005C326.996 255.849 327.813 255.517 328.592 255.01C329.397 254.464 330.076 253.683 330.629 252.669C331.182 251.615 331.458 250.191 331.458 248.396ZM326.104 267.477C325.375 267.477 324.671 267.594 323.992 267.828L323.841 281.173C324.218 281.29 324.583 281.407 324.935 281.524C325.312 281.602 325.676 281.641 326.028 281.641C326.556 281.641 327.134 281.563 327.763 281.407C328.391 281.212 328.982 280.861 329.535 280.354C330.088 279.807 330.541 279.086 330.893 278.188C331.27 277.291 331.458 276.1 331.458 274.618C331.458 273.135 331.27 271.925 330.893 270.989C330.541 270.052 330.101 269.33 329.573 268.823C329.045 268.277 328.467 267.926 327.838 267.77C327.21 267.575 326.632 267.477 326.104 267.477Z" fill="white"/>
<path d="M385.718 271.574L384.134 297.562L352.385 301.425L353.592 217.843H373.199L370.409 271.574H385.718Z" fill="white"/>
<path d="M429.571 255.303C429.571 258.697 429.42 262.092 429.118 265.487C424.82 265.916 420.547 266.619 416.298 267.594C412.05 268.531 407.802 269.467 403.553 270.404C404.207 273.213 405.225 275.457 406.608 277.135C408.015 278.812 409.687 279.651 411.623 279.651C412.628 279.651 413.722 279.359 414.903 278.773C416.11 278.188 417.304 277.466 418.485 276.608C419.667 275.71 420.798 274.754 421.879 273.74C422.96 272.725 423.89 271.808 424.669 270.989L422.859 297.562C421.879 298.732 420.81 299.727 419.654 300.547C418.523 301.366 417.341 302.029 416.11 302.537C414.878 303.044 413.634 303.415 412.377 303.649C411.12 303.883 409.888 304 408.681 304C406.193 304 403.918 303.473 401.857 302.42C399.795 301.366 397.922 299.903 396.238 298.03C394.579 296.118 393.121 293.874 391.864 291.299C390.607 288.724 389.564 285.914 388.735 282.87C387.905 279.827 387.277 276.608 386.849 273.213C386.422 269.818 386.208 266.384 386.208 262.912C386.208 259.283 386.422 255.654 386.849 252.025C387.277 248.396 387.918 244.904 388.772 241.548C389.652 238.192 390.746 235.09 392.053 232.242C393.385 229.354 394.931 226.837 396.691 224.691C398.45 222.545 400.436 220.867 402.648 219.658C404.886 218.448 407.349 217.843 410.039 217.843C412.276 217.843 414.312 218.331 416.147 219.307C418.008 220.243 419.654 221.57 421.087 223.287C422.545 224.965 423.802 226.974 424.858 229.315C425.939 231.656 426.818 234.232 427.497 237.041C428.201 239.812 428.716 242.758 429.043 245.879C429.395 248.962 429.571 252.103 429.571 255.303ZM414.488 252.259C414.488 251.167 414.413 250.055 414.262 248.923C414.111 247.752 413.86 246.699 413.508 245.762C413.181 244.826 412.741 244.065 412.188 243.48C411.635 242.855 410.944 242.543 410.114 242.543C409.109 242.543 408.216 242.972 407.437 243.831C406.683 244.65 406.029 245.704 405.476 246.991C404.923 248.24 404.471 249.606 404.119 251.089C403.767 252.571 403.503 253.937 403.327 255.186L414.488 253.547V252.259Z" fill="white"/>
<path d="M491.071 246.289C491.071 250.074 490.706 253.43 489.977 256.356C489.248 259.283 488.243 261.839 486.961 264.024C485.704 266.209 484.221 268.062 482.511 269.584C480.802 271.106 478.967 272.355 477.006 273.33C475.07 274.267 473.059 274.969 470.973 275.437C468.887 275.866 466.838 276.1 464.827 276.14V303.415H447.255C447.255 294.479 447.268 285.582 447.293 276.725C447.318 267.867 447.356 258.932 447.406 249.918C447.457 245.157 447.469 240.397 447.444 235.637C447.419 230.876 447.482 226.077 447.632 221.238C450.85 219.755 454.068 218.643 457.285 217.902C460.503 217.16 463.821 216.79 467.24 216.79C469.176 216.79 471.111 217.043 473.047 217.551C474.982 218.019 476.83 218.78 478.59 219.833C480.374 220.887 482.021 222.214 483.529 223.813C485.063 225.374 486.382 227.247 487.488 229.432C488.595 231.617 489.462 234.115 490.09 236.924C490.744 239.695 491.071 242.816 491.071 246.289ZM474.329 248.279C474.329 245.743 473.826 243.772 472.821 242.368C471.84 240.924 470.558 240.202 468.974 240.202C468.447 240.202 467.894 240.28 467.315 240.436C466.762 240.553 466.234 240.709 465.732 240.904L465.279 257.995C465.631 258.073 465.971 258.112 466.297 258.112C466.624 258.112 466.963 258.112 467.315 258.112C468.22 258.112 469.088 257.878 469.917 257.41C470.772 256.942 471.526 256.278 472.18 255.42C472.833 254.522 473.348 253.488 473.726 252.318C474.128 251.108 474.329 249.762 474.329 248.279Z" fill="white"/>
<path d="M512.827 220.185L510.188 299.903L494.276 301.19L492.767 221.823L512.827 220.185Z" fill="white"/>
<path d="M558 255.303C558 258.697 557.849 262.092 557.548 265.487C553.249 265.916 548.976 266.619 544.727 267.594C540.479 268.531 536.231 269.467 531.982 270.404C532.636 273.213 533.654 275.457 535.037 277.135C536.444 278.812 538.116 279.651 540.052 279.651C541.057 279.651 542.151 279.359 543.332 278.773C544.539 278.188 545.733 277.466 546.914 276.608C548.096 275.71 549.227 274.754 550.308 273.74C551.389 272.725 552.319 271.808 553.098 270.989L551.288 297.562C550.308 298.732 549.239 299.727 548.083 300.547C546.952 301.366 545.77 302.029 544.539 302.537C543.307 303.044 542.063 303.415 540.806 303.649C539.549 303.883 538.317 304 537.111 304C534.622 304 532.347 303.473 530.286 302.42C528.224 301.366 526.352 299.903 524.667 298.03C523.008 296.118 521.55 293.874 520.293 291.299C519.036 288.724 517.993 285.914 517.164 282.87C516.334 279.827 515.706 276.608 515.278 273.213C514.851 269.818 514.637 266.384 514.637 262.912C514.637 259.283 514.851 255.654 515.278 252.025C515.706 248.396 516.347 244.904 517.201 241.548C518.081 238.192 519.175 235.09 520.482 232.242C521.814 229.354 523.36 226.837 525.12 224.691C526.879 222.545 528.865 220.867 531.077 219.658C533.315 218.448 535.778 217.843 538.468 217.843C540.705 217.843 542.741 218.331 544.576 219.307C546.437 220.243 548.083 221.57 549.516 223.287C550.974 224.965 552.231 226.974 553.287 229.315C554.368 231.656 555.247 234.232 555.926 237.041C556.63 239.812 557.145 242.758 557.472 245.879C557.824 248.962 558 252.103 558 255.303ZM542.917 252.259C542.917 251.167 542.842 250.055 542.691 248.923C542.54 247.752 542.289 246.699 541.937 245.762C541.61 244.826 541.17 244.065 540.617 243.48C540.064 242.855 539.373 242.543 538.543 242.543C537.538 242.543 536.645 242.972 535.866 243.831C535.112 244.65 534.458 245.704 533.905 246.991C533.352 248.24 532.9 249.606 532.548 251.089C532.196 252.571 531.932 253.937 531.756 255.186L542.917 253.547V252.259Z" fill="white"/>
<path d="M187.494 246.172C187.494 249.216 187.318 251.986 186.966 254.483C186.639 256.942 186.111 259.205 185.382 261.273C184.653 263.341 183.711 265.253 182.554 267.009C181.398 268.765 180.003 270.443 178.369 272.042L187.343 296.859L170.375 302.01L164.568 277.076L159.893 277.31L159.214 301.659H143C143.126 292.762 143.239 283.905 143.339 275.086C143.465 266.267 143.603 257.41 143.754 248.513C143.804 244.026 143.855 239.578 143.905 235.168C143.955 230.759 144.056 226.311 144.207 221.823C145.966 220.809 147.701 219.97 149.41 219.307C151.12 218.643 152.829 218.136 154.538 217.785C156.273 217.395 158.02 217.141 159.779 217.024C161.564 216.868 163.387 216.79 165.247 216.79C168.113 216.79 170.878 217.414 173.542 218.663C176.232 219.872 178.608 221.706 180.669 224.165C182.73 226.623 184.377 229.686 185.609 233.354C186.865 237.022 187.494 241.294 187.494 246.172ZM170.601 248.045C170.601 246.406 170.45 244.904 170.149 243.538C169.872 242.172 169.445 241.002 168.867 240.026C168.314 239.012 167.61 238.231 166.755 237.685C165.926 237.1 164.945 236.807 163.814 236.807C163.311 236.807 162.821 236.866 162.344 236.983C161.866 237.061 161.401 237.197 160.948 237.392L160.345 259.166H161.25C162.331 259.166 163.424 258.951 164.531 258.522C165.662 258.093 166.667 257.429 167.547 256.532C168.452 255.634 169.181 254.483 169.734 253.079C170.312 251.674 170.601 249.996 170.601 248.045Z" stroke="black" stroke-width="14.0338" stroke-linejoin="round" mask="url(#path-10-outside-1_13_16)"/>
<path d="M235.08 220.185C233.949 233.92 232.981 247.596 232.176 261.214C231.372 274.793 230.605 288.47 229.876 302.244L214.417 304L215.095 294.986C214.592 295.884 214.002 296.664 213.323 297.327C212.669 297.991 211.966 298.537 211.211 298.966C210.457 299.357 209.678 299.649 208.874 299.844C208.069 300 207.303 300.059 206.574 300.02C204.864 299.981 203.255 299.474 201.747 298.498C200.239 297.484 198.856 296.157 197.599 294.518C196.342 292.84 195.211 290.909 194.206 288.724C193.2 286.499 192.346 284.178 191.642 281.758C190.963 279.3 190.435 276.803 190.058 274.267C189.706 271.73 189.53 269.272 189.53 266.892C189.53 263.38 189.568 259.751 189.643 256.005C189.744 252.22 189.907 248.435 190.133 244.65C190.36 240.865 190.649 237.119 191.001 233.412C191.378 229.705 191.843 226.155 192.396 222.76C195.463 222.994 198.542 223.209 201.634 223.404C204.726 223.599 207.805 223.657 210.872 223.579C210.294 226.974 209.716 230.388 209.138 233.822C208.585 237.217 208.082 240.651 207.629 244.123C207.177 247.557 206.812 251.011 206.536 254.483C206.259 257.956 206.121 261.468 206.121 265.019C206.121 265.838 206.146 267.009 206.196 268.531C206.247 270.052 206.372 271.555 206.574 273.037C206.8 274.52 207.127 275.827 207.554 276.959C208.006 278.052 208.635 278.598 209.439 278.598C210.394 278.598 211.249 277.973 212.003 276.725C212.757 275.437 213.424 273.72 214.002 271.574C214.58 269.428 215.07 266.95 215.472 264.141C215.9 261.331 216.252 258.405 216.528 255.361C216.83 252.279 217.069 249.177 217.245 246.055C217.42 242.933 217.546 240.007 217.622 237.275C217.722 234.505 217.785 232.027 217.81 229.842C217.86 227.657 217.886 225.96 217.886 224.75C217.886 223.97 217.873 223.209 217.848 222.467C217.823 221.726 217.785 220.965 217.735 220.185C219.369 220.263 220.99 220.321 222.599 220.36C224.208 220.399 225.829 220.419 227.463 220.419C228.72 220.419 229.977 220.419 231.234 220.419C232.516 220.38 233.798 220.302 235.08 220.185Z" stroke="black" stroke-width="14.0338" stroke-linejoin="round" mask="url(#path-10-outside-1_13_16)"/>
<path d="M303.253 262.912C303.253 268.492 303.14 274.052 302.914 279.593C302.688 285.134 302.424 290.694 302.122 296.274L282.741 297.679C283.319 290.889 283.835 284.1 284.287 277.31C284.765 270.482 285.003 263.653 285.003 256.825C285.003 256.395 284.991 255.654 284.966 254.6C284.941 253.508 284.89 252.279 284.815 250.913C284.765 249.547 284.677 248.143 284.551 246.699C284.45 245.216 284.3 243.87 284.098 242.66C283.923 241.412 283.696 240.397 283.42 239.617C283.143 238.836 282.816 238.446 282.439 238.446C281.56 238.446 280.868 238.973 280.366 240.026C279.863 241.041 279.486 242.27 279.234 243.714C279.008 245.157 278.87 246.64 278.82 248.162C278.769 249.645 278.744 250.854 278.744 251.791C278.744 253.43 278.769 255.069 278.82 256.707C278.87 258.346 278.895 260.024 278.895 261.741C278.895 267.789 278.794 273.818 278.593 279.827C278.417 285.836 278.191 291.865 277.915 297.913L260.042 298.966C260.62 292.177 261.123 285.407 261.55 278.656C262.002 271.867 262.229 265.058 262.229 258.229C262.229 257.8 262.216 257.02 262.191 255.888C262.166 254.756 262.115 253.488 262.04 252.084C261.99 250.679 261.902 249.216 261.776 247.694C261.65 246.172 261.487 244.787 261.286 243.538C261.11 242.25 260.884 241.197 260.607 240.378C260.331 239.558 259.991 239.148 259.589 239.148C258.961 239.148 258.433 239.539 258.005 240.319C257.578 241.06 257.226 242.036 256.95 243.245C256.698 244.455 256.497 245.801 256.346 247.284C256.221 248.728 256.12 250.152 256.045 251.557C255.994 252.962 255.957 254.269 255.932 255.478C255.932 256.649 255.919 257.527 255.894 258.112L255.064 300.839H236.06C236.462 294.245 236.865 287.631 237.267 280.998C237.694 274.364 238.059 267.75 238.36 261.156C238.687 254.522 238.951 247.889 239.152 241.255C239.353 234.622 239.454 227.989 239.454 221.355L257.402 220.185L257.327 226.974C257.88 225.882 258.508 224.789 259.212 223.696C259.916 222.565 260.657 221.57 261.437 220.711C262.241 219.814 263.083 219.092 263.963 218.546C264.868 217.999 265.798 217.726 266.753 217.726C267.985 217.726 269.091 217.882 270.072 218.195C271.052 218.468 271.932 218.955 272.711 219.658C273.515 220.36 274.219 221.336 274.823 222.584C275.426 223.794 275.954 225.335 276.406 227.208C277.211 225.842 278.015 224.574 278.82 223.404C279.649 222.233 280.516 221.238 281.421 220.419C282.326 219.56 283.307 218.897 284.362 218.429C285.418 217.96 286.587 217.726 287.869 217.726C290.308 217.726 292.381 218.468 294.091 219.95C295.8 221.394 297.22 223.326 298.352 225.745C299.508 228.164 300.4 230.935 301.029 234.056C301.682 237.178 302.173 240.417 302.499 243.772C302.826 247.128 303.027 250.464 303.103 253.781C303.203 257.098 303.253 260.141 303.253 262.912Z" stroke="black" stroke-width="14.0338" stroke-linejoin="round" mask="url(#path-10-outside-1_13_16)"/>
<path d="M350.613 281.758C350.613 284.997 350.223 287.787 349.444 290.128C348.69 292.469 347.672 294.46 346.39 296.098C345.108 297.737 343.625 299.083 341.941 300.137C340.281 301.151 338.547 301.951 336.737 302.537C334.927 303.122 333.105 303.512 331.27 303.707C329.46 303.902 327.763 304 326.179 304C324.621 304 322.999 303.902 321.315 303.707C319.656 303.551 317.997 303.259 316.338 302.829C314.679 302.4 313.045 301.834 311.436 301.132C309.827 300.391 308.306 299.474 306.873 298.381L306.798 222.994C308.206 222.097 309.701 221.297 311.285 220.594C312.869 219.853 314.478 219.248 316.111 218.78C317.771 218.273 319.417 217.902 321.051 217.668C322.685 217.395 324.269 217.258 325.802 217.258C327.587 217.258 329.384 217.434 331.194 217.785C333.029 218.136 334.789 218.721 336.473 219.541C338.157 220.36 339.728 221.433 341.186 222.76C342.644 224.048 343.914 225.647 344.995 227.559C346.101 229.471 346.956 231.696 347.559 234.232C348.187 236.768 348.502 239.695 348.502 243.011C348.502 245.196 348.3 247.245 347.898 249.157C347.496 251.069 346.918 252.786 346.164 254.308C345.41 255.83 344.492 257.137 343.411 258.229C342.33 259.283 341.111 260.063 339.754 260.57C341.388 261.234 342.871 262.209 344.203 263.497C345.56 264.785 346.704 266.345 347.634 268.179C348.59 270.013 349.319 272.081 349.821 274.384C350.349 276.686 350.613 279.144 350.613 281.758ZM331.458 248.396C331.458 247.265 331.307 246.309 331.006 245.528C330.704 244.709 330.327 244.045 329.874 243.538C329.447 243.031 328.969 242.66 328.442 242.426C327.939 242.192 327.486 242.075 327.084 242.075C326.581 242.075 326.091 242.192 325.614 242.426C325.136 242.66 324.671 242.933 324.218 243.245L323.992 256.239C324.57 256.239 325.287 256.161 326.141 256.005C326.996 255.849 327.813 255.517 328.592 255.01C329.397 254.464 330.076 253.683 330.629 252.669C331.182 251.615 331.458 250.191 331.458 248.396ZM326.104 267.477C325.375 267.477 324.671 267.594 323.992 267.828L323.841 281.173C324.218 281.29 324.583 281.407 324.935 281.524C325.312 281.602 325.676 281.641 326.028 281.641C326.556 281.641 327.134 281.563 327.763 281.407C328.391 281.212 328.982 280.861 329.535 280.354C330.088 279.807 330.541 279.086 330.893 278.188C331.27 277.291 331.458 276.1 331.458 274.618C331.458 273.135 331.27 271.925 330.893 270.989C330.541 270.052 330.101 269.33 329.573 268.823C329.045 268.277 328.467 267.926 327.838 267.77C327.21 267.575 326.632 267.477 326.104 267.477Z" stroke="black" stroke-width="14.0338" stroke-linejoin="round" mask="url(#path-10-outside-1_13_16)"/>
<path d="M385.718 271.574L384.134 297.562L352.385 301.425L353.592 217.843H373.199L370.409 271.574H385.718Z" stroke="black" stroke-width="14.0338" stroke-linejoin="round" mask="url(#path-10-outside-1_13_16)"/>
<path d="M429.571 255.303C429.571 258.697 429.42 262.092 429.118 265.487C424.82 265.916 420.547 266.619 416.298 267.594C412.05 268.531 407.802 269.467 403.553 270.404C404.207 273.213 405.225 275.457 406.608 277.135C408.015 278.812 409.687 279.651 411.623 279.651C412.628 279.651 413.722 279.359 414.903 278.773C416.11 278.188 417.304 277.466 418.485 276.608C419.667 275.71 420.798 274.754 421.879 273.74C422.96 272.725 423.89 271.808 424.669 270.989L422.859 297.562C421.879 298.732 420.81 299.727 419.654 300.547C418.523 301.366 417.341 302.029 416.11 302.537C414.878 303.044 413.634 303.415 412.377 303.649C411.12 303.883 409.888 304 408.681 304C406.193 304 403.918 303.473 401.857 302.42C399.795 301.366 397.922 299.903 396.238 298.03C394.579 296.118 393.121 293.874 391.864 291.299C390.607 288.724 389.564 285.914 388.735 282.87C387.905 279.827 387.277 276.608 386.849 273.213C386.422 269.818 386.208 266.384 386.208 262.912C386.208 259.283 386.422 255.654 386.849 252.025C387.277 248.396 387.918 244.904 388.772 241.548C389.652 238.192 390.746 235.09 392.053 232.242C393.385 229.354 394.931 226.837 396.691 224.691C398.45 222.545 400.436 220.867 402.648 219.658C404.886 218.448 407.349 217.843 410.039 217.843C412.276 217.843 414.312 218.331 416.147 219.307C418.008 220.243 419.654 221.57 421.087 223.287C422.545 224.965 423.802 226.974 424.858 229.315C425.939 231.656 426.818 234.232 427.497 237.041C428.201 239.812 428.716 242.758 429.043 245.879C429.395 248.962 429.571 252.103 429.571 255.303ZM414.488 252.259C414.488 251.167 414.413 250.055 414.262 248.923C414.111 247.752 413.86 246.699 413.508 245.762C413.181 244.826 412.741 244.065 412.188 243.48C411.635 242.855 410.944 242.543 410.114 242.543C409.109 242.543 408.216 242.972 407.437 243.831C406.683 244.65 406.029 245.704 405.476 246.991C404.923 248.24 404.471 249.606 404.119 251.089C403.767 252.571 403.503 253.937 403.327 255.186L414.488 253.547V252.259Z" stroke="black" stroke-width="14.0338" stroke-linejoin="round" mask="url(#path-10-outside-1_13_16)"/>
<path d="M491.071 246.289C491.071 250.074 490.706 253.43 489.977 256.356C489.248 259.283 488.243 261.839 486.961 264.024C485.704 266.209 484.221 268.062 482.511 269.584C480.802 271.106 478.967 272.355 477.006 273.33C475.07 274.267 473.059 274.969 470.973 275.437C468.887 275.866 466.838 276.1 464.827 276.14V303.415H447.255C447.255 294.479 447.268 285.582 447.293 276.725C447.318 267.867 447.356 258.932 447.406 249.918C447.457 245.157 447.469 240.397 447.444 235.637C447.419 230.876 447.482 226.077 447.632 221.238C450.85 219.755 454.068 218.643 457.285 217.902C460.503 217.16 463.821 216.79 467.24 216.79C469.176 216.79 471.111 217.043 473.047 217.551C474.982 218.019 476.83 218.78 478.59 219.833C480.374 220.887 482.021 222.214 483.529 223.813C485.063 225.374 486.382 227.247 487.488 229.432C488.595 231.617 489.462 234.115 490.09 236.924C490.744 239.695 491.071 242.816 491.071 246.289ZM474.329 248.279C474.329 245.743 473.826 243.772 472.821 242.368C471.84 240.924 470.558 240.202 468.974 240.202C468.447 240.202 467.894 240.28 467.315 240.436C466.762 240.553 466.234 240.709 465.732 240.904L465.279 257.995C465.631 258.073 465.971 258.112 466.297 258.112C466.624 258.112 466.963 258.112 467.315 258.112C468.22 258.112 469.088 257.878 469.917 257.41C470.772 256.942 471.526 256.278 472.18 255.42C472.833 254.522 473.348 253.488 473.726 252.318C474.128 251.108 474.329 249.762 474.329 248.279Z" stroke="black" stroke-width="14.0338" stroke-linejoin="round" mask="url(#path-10-outside-1_13_16)"/>
<path d="M512.827 220.185L510.188 299.903L494.276 301.19L492.767 221.823L512.827 220.185Z" stroke="black" stroke-width="14.0338" stroke-linejoin="round" mask="url(#path-10-outside-1_13_16)"/>
<path d="M558 255.303C558 258.697 557.849 262.092 557.548 265.487C553.249 265.916 548.976 266.619 544.727 267.594C540.479 268.531 536.231 269.467 531.982 270.404C532.636 273.213 533.654 275.457 535.037 277.135C536.444 278.812 538.116 279.651 540.052 279.651C541.057 279.651 542.151 279.359 543.332 278.773C544.539 278.188 545.733 277.466 546.914 276.608C548.096 275.71 549.227 274.754 550.308 273.74C551.389 272.725 552.319 271.808 553.098 270.989L551.288 297.562C550.308 298.732 549.239 299.727 548.083 300.547C546.952 301.366 545.77 302.029 544.539 302.537C543.307 303.044 542.063 303.415 540.806 303.649C539.549 303.883 538.317 304 537.111 304C534.622 304 532.347 303.473 530.286 302.42C528.224 301.366 526.352 299.903 524.667 298.03C523.008 296.118 521.55 293.874 520.293 291.299C519.036 288.724 517.993 285.914 517.164 282.87C516.334 279.827 515.706 276.608 515.278 273.213C514.851 269.818 514.637 266.384 514.637 262.912C514.637 259.283 514.851 255.654 515.278 252.025C515.706 248.396 516.347 244.904 517.201 241.548C518.081 238.192 519.175 235.09 520.482 232.242C521.814 229.354 523.36 226.837 525.12 224.691C526.879 222.545 528.865 220.867 531.077 219.658C533.315 218.448 535.778 217.843 538.468 217.843C540.705 217.843 542.741 218.331 544.576 219.307C546.437 220.243 548.083 221.57 549.516 223.287C550.974 224.965 552.231 226.974 553.287 229.315C554.368 231.656 555.247 234.232 555.926 237.041C556.63 239.812 557.145 242.758 557.472 245.879C557.824 248.962 558 252.103 558 255.303ZM542.917 252.259C542.917 251.167 542.842 250.055 542.691 248.923C542.54 247.752 542.289 246.699 541.937 245.762C541.61 244.826 541.17 244.065 540.617 243.48C540.064 242.855 539.373 242.543 538.543 242.543C537.538 242.543 536.645 242.972 535.866 243.831C535.112 244.65 534.458 245.704 533.905 246.991C533.352 248.24 532.9 249.606 532.548 251.089C532.196 252.571 531.932 253.937 531.756 255.186L542.917 253.547V252.259Z" stroke="black" stroke-width="14.0338" stroke-linejoin="round" mask="url(#path-10-outside-1_13_16)"/>
</g>
<defs>
<filter id="filter0_d_13_16" x="131.983" y="209.773" width="437.034" height="109.244" filterUnits="userSpaceOnUse" color-interpolation-filters="sRGB">
<feFlood flood-opacity="0" result="BackgroundImageFix"/>
<feColorMatrix in="SourceAlpha" type="matrix" values="0 0 0 0 0 0 0 0 0 0 0 0 0 0 0 0 0 0 127 0" result="hardAlpha"/>
<feOffset dy="4"/>
<feGaussianBlur stdDeviation="2"/>
<feComposite in2="hardAlpha" operator="out"/>
<feColorMatrix type="matrix" values="0 0 0 0 0 0 0 0 0 0 0 0 0 0 0 0 0 0 0.25 0"/>
<feBlend mode="normal" in2="BackgroundImageFix" result="effect1_dropShadow_13_16"/>
<feBlend mode="normal" in="SourceGraphic" in2="effect1_dropShadow_13_16" result="shape"/>
</filter>
<clipPath id="clip0_13_16">
<rect width="400.93" height="400.93" fill="white" transform="translate(333)"/>
</clipPath>
<clipPath id="clip1_13_16">
<rect width="266" height="266" fill="white" transform="translate(217 142)"/>
</clipPath>
</defs>
</svg>
