<svg xmlns="http://www.w3.org/2000/svg" xmlns:xlink="http://www.w3.org/1999/xlink" viewBox="0 0 400.93 400.93"><defs><style>.cls-1,.cls-4{fill:none;}.cls-2{fill:#f2d5a5;}.cls-3{fill:#ed8c85;}.cls-4,.cls-6{stroke:#000;stroke-linecap:round;}.cls-4{stroke-linejoin:round;stroke-width:5px;}.cls-5{fill:url(#linear-gradient);}.cls-6{stroke-miterlimit:10;stroke-width:3px;}.cls-7{clip-path:url(#clip-path);}.cls-8{fill:#fff;}</style><linearGradient id="linear-gradient" x1="190.47" y1="347.58" x2="190.47" y2="149.28" gradientUnits="userSpaceOnUse"><stop offset="0" stop-color="#93278f"/><stop offset="0.35"/></linearGradient><clipPath id="clip-path"><polygon class="cls-1" points="249.9 163.26 249.9 60.38 135 60.38 135 163.26 65.94 163.26 65.94 179.32 324.91 179.32 324.91 163.26 249.9 163.26"/></clipPath></defs><g id="Layer_2" data-name="Layer 2"><g id="Layer_1-2" data-name="Layer 1"><rect class="cls-1" width="400.93" height="400.93"/><path class="cls-2" d="M238.52,321.23l-20,10.91a42.07,42.07,0,0,1-40.24,0l-20-10.91a42.06,42.06,0,0,1-21.95-36.94V227.07A42.07,42.07,0,0,1,178.35,185H218.4a42.08,42.08,0,0,1,42.07,42.07v57.22A42.06,42.06,0,0,1,238.52,321.23Z"/><path class="cls-3" d="M206.51,277.59l-5.58,4.6a3,3,0,0,1-3.79,0l-5.58-4.6a3,3,0,0,1-.84-3.5l5.58-12.69a3,3,0,0,1,5.46,0l5.58,12.69A3,3,0,0,1,206.51,277.59Z"/><circle cx="222.6" cy="258.17" r="5.87"/><path class="cls-4" d="M181.49,294.45c7.13,3.57,21.15,6.55,34.07,0"/><path class="cls-4" d="M207,238.24s21.58-5.45,31.23,1.78"/><path class="cls-4" d="M189.14,238.24s-21.58-5.45-31.23,1.78"/><path class="cls-5" d="M199.93,187.38c29.71-1.35,17.88,30.68,29.14,29.74,7.14-.59,19.63.6,18.44,14.28-1.82,21,2.76,34.86,6,41,29.75,57.71-9.28,55.13-1.19,64.84,17.85,21.42,72-24.39,16.06-119.56-6.64-11.32,4.17-42.24-20.82-55.32-12.75-6.69-28.69,12.88-42.23,1.19-39.26-33.91-76.74,1.78-79.12,11.89-2,8.61-14.16,57.52-19,64.25-20.23,28-20.92,39.27-17.85,63,2.38,18.44,43.54,53.46,51.76,42.83,10.11-13.09-13.93-17.29-9.52-42.83,3-17.25,11-23.66,10.7-34.5-.3-11.92-7.81-35.35,3.57-41,11.9-6,14.73,2.55,25.58-1.79C189.22,218.31,173.75,188.57,199.93,187.38Z"/><line class="cls-6" x1="222.6" y1="249.76" x2="222.6" y2="253.93"/><line class="cls-6" x1="227.14" y1="250.83" x2="224.42" y2="254"/><line class="cls-6" x1="228.56" y1="253.87" x2="224.39" y2="254.07"/><circle cx="173.83" cy="258.17" r="5.87"/><line class="cls-6" x1="173.83" y1="249.76" x2="173.83" y2="253.93"/><line class="cls-6" x1="169.3" y1="250.83" x2="172.01" y2="254"/><line class="cls-6" x1="167.87" y1="253.87" x2="172.04" y2="254.07"/><polygon points="249.9 163.26 249.9 60.38 135 60.38 135 163.26 65.94 163.26 65.94 179.32 324.91 179.32 324.91 163.26 249.9 163.26"/><g class="cls-7"><rect class="cls-8" x="116.17" y="141.25" width="152.57" height="21.58"/></g></g></g></svg>