<svg xmlns="http://www.w3.org/2000/svg" viewBox="0 0 400.93 400.93"><defs><style>.cls-1,.cls-5{fill:none;}.cls-2{fill:#d8bc93;}.cls-3{fill:#f2d5a5;}.cls-4{fill:#ed8c85;}.cls-5{stroke:#000;stroke-linecap:round;stroke-linejoin:round;stroke-width:10px;}.cls-6{fill:#84171f;}</style></defs><g id="Layer_2" data-name="Layer 2"><g id="Layer_1-2" data-name="Layer 1"><rect class="cls-1" width="400.93" height="400.93"/><circle class="cls-2" cx="248.11" cy="253.65" r="17.55"/><circle class="cls-2" cx="147.58" cy="253.65" r="17.55"/><path class="cls-3" d="M242.61,304.94,212.43,336a20,20,0,0,1-28.71,0l-30.18-31.06A20,20,0,0,1,147.88,291V194.85a20,20,0,0,1,20-20h60.37a20,20,0,0,1,20,20V291A20,20,0,0,1,242.61,304.94Z"/><path class="cls-4" d="M208.35,266l-6.49,5.57a5.73,5.73,0,0,1-7.44,0L187.93,266a5.7,5.7,0,0,1-1.85-5.61l6.49-28.47a5.71,5.71,0,0,1,11.14,0l6.5,28.47A5.7,5.7,0,0,1,208.35,266Z"/><circle cx="222.23" cy="231.94" r="7.14"/><circle cx="172.86" cy="231.94" r="7.14"/><path class="cls-5" d="M181.19,287.26c7.14,3.57,21.15,6.55,34.07,0"/><line class="cls-5" x1="199.03" y1="301.54" x2="199.03" y2="310.3"/><path class="cls-5" d="M206.47,212s32-6.54,30,5.36"/><path class="cls-5" d="M189.56,212s-32-6.54-30,5.36"/><path d="M199,179.59c10.76,2.16,15.47,12.5,30.34,11.9,7.16-.28,16.16,8.33,13.09,29.15s9.52,25.58,16.06,28,53.15,8.63,54.06-35.4c.67-32.42-7.66-40.36-19.56-45.91s-4.16-20.41-15.47-29.34-41.64-9.51-58.89-4.75S196.06,145.9,180,135s-32.12.6-32.12,14.28c0,9.25-16.11,3-21.42,10.11-8.92,11.9,6.92,20.12-1.19,30.34-13.68,17.25,7.91,13.74-2.38,42.23-7.73,21.42,24.27,25.47,29.74,14.87s-9.7-43.88,1.79-49.37c13.68-6.54,1.19-15.4,12.49-18.44S187.14,177.22,199,179.59Z"/><path class="cls-6" d="M312.55,167.13H281.87A11.89,11.89,0,0,1,270,155.23V154a46.91,46.91,0,0,0-46.91-46.91H181.86A46.92,46.92,0,0,0,134.94,154v12.95A18.06,18.06,0,0,0,153,185H312.81a8.92,8.92,0,0,0,8.91-9.35A9.09,9.09,0,0,0,312.55,167.13Zm-145.19,0H146.54a5.06,5.06,0,0,1,0-10.11h20.82a5.06,5.06,0,1,1,0,10.11Z"/></g></g></svg>