<svg xmlns="http://www.w3.org/2000/svg" viewBox="0 0 400.93 400.93"><defs><style>.cls-1,.cls-5,.cls-6{fill:none;}.cls-2{fill:#7c5e3a;}.cls-3{fill:#96774b;}.cls-4{fill:#9b3937;}.cls-5,.cls-6{stroke:#000;stroke-linecap:round;stroke-linejoin:round;}.cls-5{stroke-width:10px;}.cls-6{stroke-width:15px;}</style></defs><g id="Layer_2" data-name="Layer 2"><g id="Layer_1-2" data-name="Layer 1"><rect class="cls-1" width="400.93" height="400.93"/><circle class="cls-2" cx="255.53" cy="282.26" r="17.55"/><circle class="cls-2" cx="141.32" cy="282.26" r="17.55"/><path class="cls-3" d="M237.55,337.18,211.06,348.1a33.26,33.26,0,0,1-25.4,0l-26.48-10.92a33.32,33.32,0,0,1-20.44-34.12l9.42-93.67h100.4L258,303.06A33.32,33.32,0,0,1,237.55,337.18Z"/><path class="cls-4" d="M211.61,290.31l-9.83,5.75a6.64,6.64,0,0,1-6.7,0l-9.83-5.75a6.64,6.64,0,0,1-2.44-9l9.83-17.59a6.63,6.63,0,0,1,11.57,0L214,281.35A6.64,6.64,0,0,1,211.61,290.31Z"/><path class="cls-5" d="M186.4,305.16c5.9,3.57,13.55,6.54,24.22,0"/><circle cx="179.09" cy="266.5" r="7.14"/><path class="cls-6" d="M184.75,249.54A35.22,35.22,0,0,0,164,254.9"/><circle cx="216.57" cy="266.5" r="7.14"/><path class="cls-6" d="M210.92,249.54a35.23,35.23,0,0,1,20.73,5.36"/><path d="M187.42,212.36c-10.9,1.23-9.52,8.93-24.39,8.33-7.15-.28-17.25,10.7-14.27,31.53,1.19,8.33,1.19,16.06-5.36,18.44s-25.35-3.14-19.63-37.48c1.79-10.7-8.4-32.88,5.36-40.45,11.89-6.54,9.51-36.28,57.7-27.95,17.63,3,25.45-8.69,44-3,23.2,7.14,22.6,23.8,25,29.15,5.64,12.68,10.37,6.68,14.28,15.47,9.52,21.41-2.47,14.92,7.82,43.42,7.74,21.41-24.27,25.47-29.74,14.87s7.05-25.58-3-32.72C232.86,223.19,245.72,205.82,187.42,212.36Z"/><path class="cls-5" d="M256.84,287c23.2-16.06,45.29,12.41,21.42,26.18-15.47,8.92-45.21-23.2-74.95-12.5"/><path class="cls-5" d="M139.83,287c-23.2-16.06-45.28,12.41-21.41,26.18,15.46,8.92,45.21-23.2,75-12.5"/></g></g></svg>